<svg version="1.1" xmlns="http://www.w3.org/2000/svg" xmlns:xlink="http://www.w3.org/1999/xlink" width="497.55661" height="73.11414" viewBox="0,0,497.55661,73.11414"><g transform="translate(15.86388,-130.98141)"><g data-paper-data="{&quot;isPaintingLayer&quot;:true}" fill-rule="nonzero" stroke="none" stroke-linecap="butt" stroke-linejoin="miter" stroke-miterlimit="10" stroke-dasharray="" stroke-dashoffset="0" style="mix-blend-mode: normal"><path d="M5.51339,159.90782c-1.19406,-0.1691 -2.39416,-0.3035 -3.59885,-0.40974c0.35885,-0.67341 0.91303,-1.07606 2.77492,-0.51392c0.71831,0.21687 1.36131,0.61739 1.96171,1.1125c-0.45584,-0.08326 -0.84846,-0.14787 -1.13778,-0.18885zM179.16059,163.27579c-0.15538,-0.07408 -0.30898,-0.15025 -0.46096,-0.22832c0.58356,-0.16692 1.09173,-0.39905 1.38925,-0.80512c0.55202,-0.75344 0.47929,-5.54531 0.47189,-6.95445c-0.00284,-0.5413 -0.01515,-1.08263 -0.02527,-1.62395c0.06585,-0.06442 0.13152,-0.12924 0.19723,-0.19415c0.38176,0.6957 1.26762,1.18315 2.29949,1.18315c0.4199,0 0.81561,-0.08071 1.16302,-0.22333l3.00515,-1.17162c0.25211,0.06666 0.52228,0.10281 0.80328,0.10281c0.93831,0 1.75588,-0.40306 2.18348,-0.99926c0.94121,-0.14626 1.88294,-0.28362 2.82764,-0.40578l1.01434,1.58183c0.40086,0.65936 1.26228,1.11535 2.26029,1.11535c0.65428,0 1.24986,-0.19599 1.69545,-0.51677c0.51301,0.34054 1.04848,0.66133 1.59154,0.97559c0.13589,0.47047 0.14558,0.99483 0.52627,1.35937c0.74815,0.71642 1.98402,1.01871 2.88752,1.61641c0.67048,0.44355 1.32496,0.90432 1.98515,1.35937c0.45758,1.02135 1.38671,1.87389 3.25241,2.27497c0.16685,0.03587 0.34929,0.04389 0.54416,0.02862l1.84524,0.9592c0.40239,0.21583 0.88987,0.34217 1.41519,0.34217c1.38071,0 2.5,-0.87275 2.5,-1.94935c0,-0.5383 -0.27982,-1.02564 -0.73223,-1.3784l-0.19964,-0.15567c0.44852,-0.24874 0.8541,-0.45985 1.18741,-0.59124c1.22291,-0.48205 2.59538,-0.70002 3.99139,-0.86513l-2.42362,1.41735c-0.62045,0.35472 -1.02328,0.92723 -1.02328,1.57309c0,1.07659 1.11929,1.94935 2.5,1.94935c0.52532,0 1.0128,-0.12633 1.41519,-0.34217l4.13181,-2.14782c0.47172,-0.14785 0.93788,-0.31836 1.39882,-0.50841c4.5067,-1.63108 8.4433,-3.7083 12.23236,-6.08917c4.04277,5.1451 8.05844,-3.76074 8.31579,-4.12625c0.37621,-0.81648 0.86301,-1.59662 1.37796,-2.36749c1.26354,-0.80022 2.57482,-1.62257 3.83552,-2.47756c0.92674,0.8222 2.33658,1.18865 4.56119,0.5094c2.0292,-0.61957 2.76861,-2.62766 4.04229,-4.00644c1.09795,-1.18855 3.08635,-3.16672 3.19714,-5.08528c1.75798,1.00952 4.20726,3.02259 4.42552,3.80266c0.0766,0.27376 -1.55829,4.11461 -1.6868,4.42511c0.06749,3.1153 0.98152,7.25855 5.65388,8.57393c0.37655,0.10601 0.7626,0.1733 1.15528,0.21359c0.01034,0.02613 0.02118,0.05245 0.03251,0.07896c0.07936,0.18566 0.17099,0.35219 0.2725,0.50146c-0.95476,1.73707 -0.59123,3.30589 3.81979,3.24952c-1.23818,0.89246 -2.29226,1.98487 -3.52243,2.88604c-1.88989,2.50125 -5.88662,3.14362 -9.41729,1.87747c-3.85176,-1.38129 -6.04777,-4.54861 -10.52275,-5.32149c-1.72064,-0.29717 -3.53491,-0.1992 -5.28667,-0.0488c-4.55631,0.39118 -4.45707,1.02229 -8.11141,3.03227c-2.60182,1.43107 -5.31841,2.73163 -7.93698,4.144c-2.46579,1.32997 -4.61939,3.07675 -7.34908,4.04381c-6.45314,2.2862 -13.13079,2.94145 -20.1199,2.97452c-1.17963,0.00558 -2.38448,0.23491 -3.5385,0.0442c-3.47471,-0.57422 -6.65061,-1.95197 -10.02746,-2.81068c-3.55595,-1.75431 -7.43,-3.08993 -11.02004,-4.80151zM282.46125,155.9841c-0.8071,0.01119 -1.66306,-0.09268 -2.48922,-0.10913c0.48836,-0.38387 0.95988,-0.79913 1.44706,-1.17344c0.35597,-0.04213 0.70621,-0.10374 1.04776,-0.19473c2.44005,-0.65008 4.60688,-1.82655 6.75773,-2.93554c1.59305,-0.82138 2.1957,-2.48504 3.67328,-3.42857c0.95561,-0.61022 2.36685,-0.67425 3.3143,-1.29214c2.05168,-1.33805 1.99688,-2.92446 4.99833,-3.2748c1.79917,-0.21001 3.01249,0.22253 3.97459,0.93934c0.45724,1.38814 1.43302,2.4377 3.01371,3.24895c1.35195,1.39714 3.10523,2.40346 6.61584,1.56714c0.3525,-0.08397 0.68375,-0.18062 0.99459,-0.28887c2.587,0.57424 5.09052,1.45749 7.76053,1.66063c1.16894,0.08894 2.36779,-0.26868 3.52132,-0.0964c0.58017,0.08665 1.05502,0.33187 1.48148,0.65206c-0.34189,0.29565 -0.70169,0.58898 -1.0871,0.87518c-2.69034,1.99787 -6.14635,3.26886 -9.02106,5.10399c-0.77991,0.49787 -1.20432,1.32412 -2.08305,1.70913c-1.24739,0.54653 -2.71253,0.71685 -4.09699,0.99857c-3.93186,0.80006 -8.36856,1.0726 -12.28761,0.02915c-1.86447,-0.49641 -10.34973,-3.66116 -11.91058,-3.93872c-1.82816,-0.3251 -3.7501,-0.07774 -5.62491,-0.05175zM431.49152,144.14581c0.80817,0.19889 1.48453,0.95007 2.0108,1.76599c-1.20807,-0.19826 -2.63415,-0.26879 -4.3833,-0.26484c-0.31009,0.0007 -0.62587,-0.01414 -0.94365,-0.03337c0.91136,-1.46154 1.17745,-1.99411 3.31615,-1.46778zM311.35735,142.48248c-0.11725,-0.67416 -0.13282,-1.36942 -0.32124,-2.03267c0.05703,0.11207 2.77323,2.24155 2.9487,3.3458c-0.62774,0.08625 -1.26523,0.20098 -1.72358,0.12457c-0.20714,-0.32956 -0.35792,-0.74286 -0.58142,-1.02119c-0.10986,-0.13682 -0.21658,-0.27622 -0.32246,-0.41652zM246.45616,138.64782c-0.97439,0.98305 -2.48517,1.61108 -3.3679,2.64555c-0.78255,0.91706 -0.69266,2.19206 -1.52088,3.08441c-0.57162,0.61589 -1.68264,0.77287 -2.47269,1.21839c-0.18515,0.1044 -0.36949,0.20968 -0.55308,0.31575c-0.00587,-0.4014 -0.01507,-0.85042 0.0007,-1.36905c1.11715,-3.58607 2.59982,-3.11041 6.36266,-5.07694c0.51846,-0.27096 1.03999,-0.5389 1.5512,-0.81809zM203.54902,152.58373c-0.05778,-0.13712 -0.13868,-0.2642 -0.26001,-0.37384c-0.37075,-0.33502 -0.76732,-0.66144 -1.18929,-0.96709c0.90276,-0.1257 1.78174,-0.19975 2.36486,0.25493c0.59446,0.46352 0.59389,1.12605 0.45784,1.83278c-0.46045,-0.24893 -0.92086,-0.49643 -1.37341,-0.74679zM253.10584,134.27914c-0.36221,-0.56749 -0.84605,-1.13231 -0.29048,-1.11319c0.49323,0.01697 0.78455,0.32432 1.04147,0.69748c-0.25917,0.12468 -0.50851,0.26494 -0.751,0.41572z" fill="#ff4b00" stroke-width="0.5"/><path d="M474.48868,167.73376h-0.68845c-3.75072,0 -7.55168,0.34879 -11.09862,-0.91522c-0.67327,-0.23993 -1.23317,-0.62782 -1.80234,-1.00592c-3.41439,-0.42327 -7.30599,-1.58763 -10.61449,-2.20177c-0.24531,-0.2566 -0.49735,-0.50954 -0.75375,-0.76011c-1.28017,-0.08443 -2.7036,0.2526 -3.80507,-0.245c-1.94617,-0.8792 -3.69368,-2.18097 -4.77131,-3.72038c-1.56455,-2.23497 0.3526,-4.09273 -0.04258,-6.10396c-0.02589,-0.1318 -0.23211,0.25369 -0.40292,0.24757c-1.7329,-0.06202 -3.46411,-0.17981 -5.18422,-0.35499c-1.87641,-0.1911 -3.63796,-0.84544 -5.50754,-1.07361c-2.10462,-0.25686 -3.90966,0.57284 -6.06927,0.36595c-0.8125,0.65764 -2.72727,1.59308 -2.91089,2.56517c-1.03197,5.46336 2.34701,13.5907 -7.76288,14.78941c-2.19614,0.26039 -4.59871,-0.3884 -6.42799,-1.37108c-2.49342,-1.33946 -2.68103,-3.67946 -3.5699,-5.66701c-0.38689,-0.15442 -0.78386,-0.29266 -1.19459,-0.40904c-1.7044,-0.48292 -3.79007,-0.06486 -5.34431,-0.79335c-1.64317,-0.77018 -2.45937,-2.29381 -3.68906,-3.44072c-0.06523,-0.05096 -0.1301,-0.10204 -0.19459,-0.15322c-0.37964,-0.11985 -0.73938,-0.25543 -1.07241,-0.41335c-1.75042,-0.83005 -3.21407,-2.03139 -4.45069,-3.305c-1.01186,-1.04211 -1.74205,-2.27087 -2.18692,-3.5311c-0.10693,-0.30291 -0.16696,-0.61276 -0.19687,-0.92628c-1.20483,-1.41295 -2.43775,-2.82971 -3.82592,-4.21849c-0.91149,-0.91189 -1.80345,-1.83583 -2.67655,-2.77028c-0.17987,-0.1925 -0.33407,-0.4078 -0.47999,-0.63019c-0.75632,-0.30057 -1.67323,1.07351 -2.63986,1.24457c-1.26933,0.22462 -2.60119,0.08391 -3.90254,0.1043c-5.04357,0.07903 -10.10093,0 -15.14575,0c-3.21274,0 -6.42548,0 -9.63821,0c-0.30859,0 -2.83977,0.29529 -3.59412,-0.29677c-0.3346,-0.26261 0.27894,0.73865 0.18352,1.10129c-0.18221,0.69242 -0.45893,1.3679 -0.66097,2.05698c-0.38115,1.29993 -0.58504,2.64254 -0.56663,3.97593c0,2.47577 0.9396,8.05322 -0.3806,10.08086c-1.00381,1.54172 -2.64992,2.8787 -4.53451,3.82952c-0.54341,1.02628 -0.78035,2.37243 -2.06369,2.62646c-1.82162,0.36058 -3.8541,-0.66577 -5.71104,-2.06963c-3.20992,-0.40662 -7.54542,-1.60119 -9.47627,-3.01775c-2.8214,-2.06991 -3.44255,-5.21727 -6.41074,-7.21306c-0.95309,-0.64085 -2.52236,-0.17323 -3.73276,-0.442c-2.4149,-0.53623 -4.34114,-1.96847 -6.50764,-2.95815c-1.22779,-0.56086 -2.72938,0.11209 -3.99219,-0.29249c0.11833,0.41901 0.15877,0.85711 0.03573,1.26713c-0.36921,1.23033 -1.15031,2.36259 -1.72546,3.54388c-1.45231,1.41624 -2.17039,3.63124 -4.35695,4.24873c-1.27453,0.35993 -2.55661,0.04137 -3.84952,-0.44334c-0.05579,0.02917 -0.11257,0.05727 -0.17037,0.08427c-0.81097,0.37877 -7.50374,0.28294 -9.07581,0.27664c-0.22384,-0.04262 -0.44941,-0.08213 -0.67631,-0.11917c-0.7034,0.4227 -1.07027,1.19217 -1.86828,1.50604c-4.75676,1.8709 -14.36034,1.96608 -17.73184,-1.87979c-3.95491,-4.51136 4.23561,-10.19437 -1.20085,-14.33582c-0.31133,-0.23717 -4.40482,0.05889 -4.95007,0.05145c-2.54422,0.49595 -5.35,0.26667 -7.7258,0.71726c-0.14321,0.02716 0.34877,0.07082 0.37389,0.18406c0.12172,0.5489 0.032,1.11384 0.03746,1.67086c0.00702,0.71572 0,1.43148 0,2.14722c0,2.71175 0.70832,6.63138 -1.78823,8.8812c-3.6791,3.3155 -8.73791,2.78335 -13.37421,1.87958c-0.12011,-0.02341 -0.24747,-0.03871 -0.37842,-0.05009c-0.72391,1.96051 -2.76923,5.14795 -2.99081,5.34932c-1.32728,1.20619 -3.30124,2.02315 -5.41843,2.5549c-1.12857,1.41047 -2.3217,2.58838 -3.1902,2.93838c-1.45964,0.58822 -3.26481,-0.31009 -4.87735,-0.55589c-2.11433,-0.32229 -4.35592,-1.0078 -6.41719,-1.95323c-0.52542,-0.04651 -1.05695,-0.0949 -1.59823,-0.1441c-4.64079,-0.42178 -7.80901,0.84508 -11.87438,-2.1863c-2.57232,-1.91807 -2.6993,-4.29623 -3.40798,-6.73273c-0.14879,-0.51154 -0.35975,-3.39788 -1.59595,-3.61808c-1.71679,-0.3058 -3.39888,0.61883 -4.87156,1.05122c-1.05571,0.30997 -2.17347,0.47578 -3.27582,0.66257c-0.53565,0.09076 -1.54185,-0.21809 -1.62341,0.20456c-0.66098,3.42521 -2.24556,6.12808 -3.90575,9.26272c-0.17622,0.73287 -0.39999,1.4347 -0.67318,2.08747c-0.36394,0.86964 -0.64001,1.85258 -1.12117,2.70973c-1.54831,-0.00303 -3.09564,-0.02415 -4.64138,-0.07477c-2.15276,-0.0705 -4.30336,-0.17203 -6.45305,-0.28684c-1.02792,-0.79477 -1.95027,-1.60029 -2.60141,-2.04681c-0.65764,-0.45098 -1.42722,-0.80389 -2.15045,-1.19469c-3.27898,-1.16404 -6.3188,-2.84434 -8.85663,-4.51989c-1.37253,-0.90619 -2.30235,-2.20193 -3.7782,-3.00334c-1.99427,-1.08292 -4.37626,-1.76977 -6.11953,-3.09003c-4.37709,-3.31498 -7.00753,-7.70626 -11.37174,-11.0365c-1.00469,-0.76666 -2.72246,-0.5619 -4.03854,-0.94712c-1.83074,-0.53586 -3.63536,-1.18582 -5.5582,-1.46323c-1.3925,-0.28924 -2.8565,-0.2941 -4.2848,-0.44804c0.80071,3.67891 -2.10653,9.6388 -6.15106,11.40436c-1.07562,0.46954 -2.34886,0.5018 -3.62755,0.45904c-0.30676,0.05596 -0.60908,0.14581 -0.90605,0.2748c-1.37188,0.59581 -2.47189,1.41962 -3.40873,2.38029c-0.3937,0.03972 -0.81242,0.05002 -1.25946,0.02682c-1.49295,-0.07747 -2.70823,-0.99523 -4.09379,-1.43562c-3.02784,-0.96239 -5.65528,-2.27572 -7.84179,-3.9241c-2.18671,-0.78497 -4.091,-1.92551 -5.41455,-3.6419c-0.47159,-0.61155 -0.78412,-1.2401 -0.98847,-1.88022c-0.29192,0.4113 -0.60121,0.80198 -0.93098,1.16534c-1.28911,1.42043 -3.54803,2.14283 -5.03655,3.4393c-0.85924,0.74838 -1.54822,2.05715 -2.13629,3.33565c0.08131,0.45959 0.20383,0.9233 0.0744,1.36574c-0.73622,2.51679 -4.10936,8.89491 -7.53924,9.89807c-0.48664,0.14233 -1.14528,0.10156 -1.8882,-0.05016c-1.1025,0.56436 -2.29944,0.99491 -3.59266,1.2408c-4.60641,0.87587 -4.74441,-0.0849 -8.39104,-1.21149c-1.36458,-0.42157 -2.9299,-0.16644 -4.38374,-0.32385c-4.30492,-0.46609 -8.59288,-2.04053 -12.82735,-2.89699c-4.30504,-1.64398 -8.75487,-3.1802 -12.75875,-5.25246c-1.19064,-0.61623 -1.96065,-1.93421 -3.38127,-2.05516c-1.29837,-0.11054 -2.32829,0.92791 -3.53374,1.31991c-5.79544,1.88468 -13.2246,4.22836 -15.96716,9.1912c-1.12346,2.03297 -0.45589,4.3553 -1.13004,6.38225c-0.35392,1.06415 -1.18066,1.99669 -1.77099,2.99503c0,0 -2.23607,3.4871 -6.7082,1.74355c-4.47213,-1.74355 -2.23606,-5.23065 -2.23606,-5.23065c0.00985,-0.01303 0.01961,-0.02606 0.02928,-0.0391c-0.19352,-0.61551 0.05221,-1.19032 0.05221,-1.19032c0.37757,-0.88203 0.76289,-1.76551 1.16642,-2.64453c0.09195,-0.71937 0.19016,-1.4583 0.41137,-2.21631c0.85091,-2.91584 1.12205,-3.7223 3.69094,-6.37523c2.45921,-2.53966 5.40753,-4.44426 8.65585,-6.00816c1.19733,-0.62999 2.4285,-1.2274 3.62225,-1.84627c1.24076,-0.64325 2.25395,-1.56711 3.5988,-2.06724c1.59619,-0.59359 3.41351,-0.7274 5.09085,-1.16427c3.7103,-0.96635 8.3791,-1.73763 12.33834,-0.92522c4.3022,0.88279 4.55204,2.11889 7.72152,4.32112c1.29668,0.90097 2.83122,1.59012 4.05575,2.55051c0.44462,0.34871 0.66065,0.84999 0.97315,1.28241c4.41105,0.8331 8.44325,1.88502 12.88246,2.38693c1.3179,0.149 2.62366,0.40015 3.87759,0.74977c0.62696,0.1748 1.20223,0.6601 1.80234,0.87017c0.25117,0.02242 0.50059,0.04955 0.74735,0.08076c0.0247,-0.00427 0.04948,-0.00933 0.07436,-0.01519c1.3124,-0.30956 1.15166,-1.02398 2.1906,-1.98086c2.16851,-1.99725 2.60881,-3.52023 4.03517,-6.02118c0.38849,-0.68116 3.14122,-4.88351 3.47622,-5.1954c1.28417,-1.19559 3.42168,-1.74318 4.60165,-3.00237c0.06106,-0.06516 0.11774,-0.13001 0.17046,-0.1946c-0.06287,-1.07782 -0.11749,-2.15545 0.05024,-3.21806c0.29042,-1.83993 1.6436,-3.48832 2.72121,-5.14078c0.46863,-0.71862 0.37677,-1.67957 1.0876,-2.26501c1.12261,-0.92458 2.76044,-1.36067 4.14066,-2.04101c0.80624,0.23933 1.74527,0.33632 2.61824,0.50411c0.16554,-0.0076 0.33432,-0.00467 0.50668,0.00995c6.88497,0.58403 7.40958,7.16714 7.39933,10.86737c-0.00269,0.97017 -0.3787,1.99662 0.03945,2.91038c0.38379,0.83868 2.13995,0.63084 3.24292,0.8617c2.67141,0.55913 4.78751,0.68547 7.4743,0.94734c0.56145,0.05472 1.69706,0.309 2.35704,0.54019c0.05421,-0.38206 0.33046,-0.95623 0.41518,-1.28368c0.85532,-3.30572 -0.0387,-6.56441 3.81488,-9.1643c1.84582,-1.24531 4.39269,-1.58071 6.95583,-1.51261c0.61867,-0.13889 1.27374,-0.20322 1.96528,-0.17519c2.03595,0.0825 3.96666,0.63376 5.89464,1.2063c4.02827,0.7205 9.22017,1.89187 12.16992,3.75025c1.09888,0.69231 1.71087,1.75542 2.63887,2.58602c1.31925,1.18078 3.2395,2.24527 4.4096,3.49566c2.09594,2.23976 3.58685,4.96759 6.83377,6.47846c5.23798,2.43737 9.34147,5.95279 14.66595,8.38505c1.08197,0.49425 4.22316,-0.26517 5.11867,0.21482c-0.21598,-1.26003 1.20955,-2.66483 1.62314,-3.99154c0.38147,-1.22366 0.3377,-2.5837 1.15826,-3.66834c2.88502,-3.81346 5.83429,-3.21599 10.24652,-4.50093c2.32208,-0.67624 4.76391,-1.35022 7.24228,-1.31578c1.06876,0.01485 2.21099,-0.14038 3.26352,-0.03475c1.24283,-0.12559 2.51415,-0.02777 3.82391,0.55674c1.40505,0.62704 2.09953,1.87179 2.88977,3.02434c0.14572,0.12947 0.28807,0.26085 0.4269,0.39402c0.40944,0.39275 0.70471,0.83388 0.9227,1.30691c1.92073,2.36281 3.45565,4.87053 5.40742,7.10668c3.62776,0.0772 7.09663,0.52939 10.80352,0.52939c1.11059,0.07216 3.82669,-0.19848 4.58191,-0.88837c0.32651,-0.29827 0.20276,-0.76109 0.27807,-1.15556c-0.02167,-1.08923 0.11426,-2.16374 1.02671,-3.08303c0.55871,-1.39145 1.26779,-2.72676 2.05133,-3.17302c2.84449,-1.62006 6.26474,-0.8811 9.20842,-0.28945c0.0798,-0.22431 0.15317,-0.4493 0.22866,-0.66991c0.86932,-2.54025 1.69772,-6.04796 3.28455,-8.38309c0.25547,-1.07193 0.73356,-2.07501 1.60098,-2.90744c3.51316,-3.37147 9.62328,-2.66468 14.30439,-3.57719c0.44781,-0.00389 0.91729,-0.01611 1.4021,-0.03106c1.47788,-0.71475 2.92992,-1.3627 3.1959,-1.36146c1.78979,0.0084 3.45019,0.87293 4.93142,1.65633c0.10591,0.05602 0.21298,0.1142 0.32106,0.17445c0.61498,0.17315 1.19409,0.39758 1.72209,0.68679c1.78337,0.97684 3.03921,2.45899 4.26511,3.86404c0.40861,0.46832 0.78436,0.96052 1.11051,1.47138c0.89661,1.14161 1.56627,2.29731 1.84655,3.36387c0.55643,2.11741 -0.55653,4.50619 0.59063,6.60562c0.15864,0.29032 0.39523,0.53344 0.69174,0.73812c0.03456,-0.01529 0.06808,-0.03201 0.10049,-0.05026c0.78931,-0.44444 1.2149,-1.24082 2.06533,-1.61042c1.05714,-0.45943 2.35326,-0.46129 3.48254,-0.80069c3.02396,-0.90884 3.66674,-2.0934 7.58084,-1.84364c1.17498,0.07498 2.12944,0.19918 2.8845,0.35214c0.06014,-0.13977 0.1231,-0.27883 0.18941,-0.41703c0.20878,-0.43513 0.47692,-0.84992 0.75815,-1.26038c0.25115,-1.24529 0.55395,-2.37771 1.81995,-3.51092c0.14736,-0.21186 0.33741,-0.3964 0.59783,-0.53627c0.08351,-0.04484 0.17185,-0.08859 0.26477,-0.13123c0.52227,-0.35401 1.15508,-0.71025 1.92585,-1.07214c2.63963,-1.23936 10.57613,-0.48622 13.33469,0.50363c0.77066,0.27653 1.41289,0.76072 2.05992,1.22591c0.82877,0.14445 1.70421,0.18071 2.48073,0.44465c0.93935,0.31928 1.85265,0.69853 2.73868,1.12544c1.61755,0.24719 3.19848,0.58948 4.51045,1.31914c3.98051,2.21376 4.50866,5.16844 7.35813,7.81752c0.73652,0.68472 2.21155,0.47049 3.32298,0.68869c0.72017,0.14139 1.45924,0.24099 2.15201,0.44961c0.12596,0.03793 0.29687,0.33446 0.27724,0.2303c-0.44869,-2.3811 -0.38061,-4.68643 -0.38061,-7.09694c0.04579,-4.76368 1.01036,-11.90931 7.21724,-14.33805c0.9071,-0.35495 5.85553,-0.29677 7.42096,-0.29677c6.19599,0 12.39198,0 18.58797,0c1.9697,0 5.86455,0.53493 7.801,0.1043c0.98692,-0.21947 1.73919,-0.95318 2.75377,-1.07361c1.80752,-0.21456 3.74109,-0.33575 5.48368,0.09578c3.21883,0.79707 6.54487,3.99225 9.26775,5.5846c1.36572,1.20018 3.20329,2.15532 4.09716,3.60055c1.16964,1.89109 -0.66551,4.05721 0.8137,5.65404c1.39758,1.5087 4.93283,1.70076 7.12962,2.55015c3.71517,1.43648 6.22539,2.74531 8.20391,5.26187c0.17666,-0.63341 0.34978,-1.22237 0.43168,-1.71433c0.1413,-0.84879 -0.21134,-1.745 0.09629,-2.5666c1.54521,-4.12675 5.20232,-5.89746 9.48109,-8.17095c3.52429,-0.16169 6.90989,-1.00928 10.45338,-0.70767c1.88117,0.16012 3.62817,0.90113 5.50754,1.07361c4.15218,0.38107 9.33604,0.02059 12.31239,3.11342c1.24414,1.29283 1.31195,3.07722 1.69057,4.66635c0.18116,0.76035 0.12964,1.54717 0.04742,2.32042c1.90733,-0.15789 5.34597,1.02996 6.51625,1.25994c3.85367,0.75731 6.5557,1.96108 9.88594,3.48285c1.58199,0.7229 5.05717,0.1584 6.80091,0.1584h0.68845c0,0 3.28284,0 4.52842,2.07415c0.44162,0.03686 0.88802,0.09849 1.33442,0.16343l0.02002,2.96627c0.06226,0.24274 0.12441,0.48847 0.18595,0.73669c-0.64688,0.00074 -1.23122,-0.00048 -1.68243,-0.00146c-1.33542,1.85831 -4.38638,1.85831 -4.38638,1.85831zM169.43076,169.31496c-0.64937,0.12055 -1.30067,0.2029 -1.95219,0.25043c0.69649,0.50543 1.46607,0.94452 1.90043,0.49825c0.23399,-0.2404 0.35554,-0.52352 0.42996,-0.82367c-0.12551,0.02644 -0.25155,0.05149 -0.3782,0.075z" fill="#ff0000" stroke-width="0.5"/><path d="M-12.24076,204.09553v-25.97726c0.8819,-0.13077 1.69461,-0.35441 2.41331,-0.61288c3.34456,-0.07096 6.45451,-0.43202 9.47686,-2.78867c3.35736,-2.61786 4.18629,-6.26976 3.7776,-9.92135c2.30128,-0.72346 3.79529,-1.8884 3.79529,-1.8884c1.61451,-1.40917 1.94353,-1.96728 4.45163,-2.64783c0.62411,1.59556 1.40627,3.09723 3.18484,3.7671c6.85447,2.58165 11.6114,-0.95228 17.31899,-2.17456c0.41703,-0.0893 1.25381,0.06411 1.7722,0.10087c2.3092,2.05588 5.55968,3.05619 9.059,3.63433c4.69788,0.77617 9.3958,-0.13174 13.99364,-0.9862c0.779,2.5357 3.10812,4.85559 7.75071,6.52276c6.78854,2.43778 13.21959,-1.46277 15.92578,-5.77768c2.42872,0.25729 4.8645,0.47852 7.27884,0.80634c3.18027,0.43181 17.66953,2.51385 21.58174,2.77362c2.28911,0.15199 4.61597,0.19168 6.95638,0.19511c0.82848,0.35526 1.74119,0.6984 2.95274,1.01597c5.55612,1.45632 11.23617,1.47838 17.01423,1.49566c1.48923,0.00445 2.99744,0.0407 4.50941,0.05775c1.03014,0.52241 2.06561,0.99271 3.09545,1.40443c4.78386,1.91253 13.03632,2.26418 18.55599,2.29546h2.75377c3.58724,0 6.73332,-1.4728 8.49792,-3.68522c4.50343,1.37975 5.92189,0.88868 12.10071,0.84195c3.15236,-1.25169 6.99753,-1.79082 9.6295,-3.57772c1.03878,0.01571 2.07773,0.03255 3.1168,0.04999c3.70824,0.84532 7.51142,1.24823 9.81739,1.50824c4.2111,0.47483 10.45988,0.44025 14.68737,0.01189c1.28259,-0.12996 6.1212,0.01138 8.64046,-1.3718c2.05338,-0.05435 4.10451,-0.12767 6.15286,-0.22396c1.42749,-0.0671 3.50605,-0.15946 5.94774,-0.2785c2.46918,0.05045 4.90136,0.01625 6.79667,-0.27297c0.34567,-0.05275 0.69457,-0.10168 1.04558,-0.14851c6.26081,-0.37451 12.92312,-0.88204 17.01229,-1.53722c4.06515,-0.65133 8.4103,-0.93759 12.0172,-2.53816c0.02552,-0.01132 0.05089,-0.02281 0.07612,-0.03443c0.29107,-0.03294 0.58236,-0.06564 0.8739,-0.09805c2.60626,-0.28974 5.19224,-0.72796 7.8088,-0.93877c3.53575,1.43391 7.16886,2.78741 11.0722,3.05314c2.88559,0.19644 6.339,-0.14752 9.32236,-1.10817c0.16372,0.01967 0.3276,0.03869 0.49163,0.05705c3.84017,0.4297 7.74235,0.3965 11.61352,0.59475c7.219,0.64476 13.86593,3.13291 21.104,1.79258c1.69667,1.39017 3.3202,2.95357 5.60474,3.55272c3.29661,0.86458 7.03895,0.79179 10.43133,0.1934c2.03746,-0.35939 3.70257,-1.49818 5.32195,-2.5773c3.2834,0.56458 6.79428,0.73487 10.19272,0.46065c0.39691,0.2119 0.74299,0.39823 1.01974,0.54792c2.35232,1.27235 4.14781,3.60091 6.98555,3.89608c0.57673,0.05999 1.15335,0.09134 1.72986,0.09906c0.07986,0.03922 0.1605,0.07758 0.24187,0.11507l-0.09936,0.3099l2.53621,0.49439c0.84188,0.17943 1.72805,0.27522 2.64291,0.27522c4.94282,0 9.04806,-2.79625 9.85583,-6.47066c4.99035,1.25882 12.2246,1.91442 16.90902,0.81967c2.01475,-0.47085 3.72332,-1.52643 5.58497,-2.28964c2.02888,-0.80927 2.85699,-0.70057 3.59479,-1.70859c1.38184,0.11469 2.78649,-0.08831 4.17541,-0.02297c2.30207,0.10829 4.57837,0.5138 6.88443,0.5368c4.43855,0.04427 6.67675,0.94868 8.19341,-0.77423c0.28051,0.34483 0.87211,0.53527 1.32626,0.76103c2.56119,1.27315 4.84325,3.1539 7.81064,3.65941c2.47793,0.42213 4.97056,-0.81376 7.48828,-1.05316c0.83783,-0.07967 1.69592,0.20721 2.52884,0.10068c3.23257,-0.41343 7.41487,0.25403 9.59634,-1.65144c0.29311,-0.25603 0.57141,-0.50937 0.83524,-0.76011c1.11379,0.35552 2.1911,0.74367 4.56743,1.14477c0.48543,0.08193 0.97424,0.15072 1.46504,0.21167v36.73902z" fill="#ffad00" stroke-width="0"/><path d="M477.31998,171.999c-2.2183,-0.20331 -4.5282,-0.16339 -6.63137,-0.74977c-0.77772,-0.21684 -1.36449,-0.78602 -2.1678,-0.93573c-2.38652,-0.44477 -5.70107,-0.1086 -8.52753,0.04163l0.03809,0.06267c-0.48043,0 -1.0613,0.01974 -1.70839,0.04821c-0.47939,0.17159 -0.9647,0.33324 -1.45733,0.48263c-1.97679,0.59945 -7.59759,-0.25543 -10.88697,-0.98175c-1.28562,0.27846 -2.10613,0.981 -3.50613,1.58025c-3.77314,1.61505 -8.13796,4.3194 -12.27238,5.20803c-2.93644,0.63115 -8.02348,0.08992 -11.10386,0.02467c-0.18908,-0.06062 -0.37859,-0.12093 -0.56854,-0.18089c-5.4195,0.20842 -11.05322,-0.47062 -15.30662,-2.12888c-1.39303,-0.2565 -2.82819,-0.39421 -4.22541,-0.63461c-0.10059,1.25402 -0.54101,2.39824 -1.72035,3.10395c-2.80662,1.6795 -7.07591,0.57915 -10.60321,0.3661c-3.49905,-0.21135 -8.98066,-3.02466 -11.58673,-4.11717c-2.78274,-1.16658 -5.18954,-2.37186 -7.07696,-3.82673c-3.25975,1.0095 -9.64367,2.83983 -11.68345,3.19894c-1.06592,0.5254 -2.15049,1.03862 -3.14404,1.61131c-0.05615,0.15628 -0.1105,0.31113 -0.16279,0.46446l-8.16115,4.1703c-0.8354,-2.44274 -2.16272,-4.82433 -2.87415,-7.28248c-0.96895,0.57364 -2.16553,0.8726 -3.63859,0.76215c-0.00765,0.02526 -0.01566,0.05099 -0.02401,0.07723c-0.53073,1.66636 -0.89603,3.63195 -2.57392,4.74384c-1.50525,0.99748 -3.87029,0.63715 -5.83083,0.82572c-3.62478,0.34866 -8.43573,-0.00547 -11.96063,-0.60715c-1.2072,-0.20606 -2.22907,-0.88996 -3.44221,-1.07361c-2.27231,-0.34399 -4.71042,0.46383 -6.94423,-0.00928c-3.24727,-0.68775 -7.76195,-2.29962 -10.19982,-4.36067c-0.41582,-0.35155 -2.90728,-3.26097 -4.8056,-5.56722c-0.32524,0.04354 -0.65001,0.08976 -0.97501,0.13759c-0.00702,0.00245 -0.01405,0.0049 -0.02107,0.00734c-0.615,0.21316 -1.50398,0.32616 -2.52134,0.37743c-0.84266,0.12414 -1.69864,0.24025 -2.57954,0.33023c-3.8084,0.38899 -7.72892,0.66137 -11.53269,1.03453c-2.48057,3.8684 -6.98533,4.35052 -11.96107,5.31995c-7.34247,1.43055 -17.07652,4.16339 -22.77476,-1.86141c-0.19383,-0.20493 -0.38556,-1.28318 -0.51795,-2.50625c-1.27199,0.07751 -2.52092,0.06246 -3.69868,-0.23847c-1.42891,1.00191 -2.447,2.40206 -4.11463,3.14288c-0.44618,0.19821 -6.49927,1.48661 -7.36012,1.55046c-1.46649,0.10875 -1.58043,-0.74789 -1.37381,0.02054c-0.53144,0.78857 -0.77756,1.74284 -1.59434,2.3657c-5.39044,4.11057 -5.74794,2.93773 -13.31337,2.45268c-7.23175,-0.46365 -14.44893,-1.03042 -21.68454,-1.46927c-1.22869,1.86345 -1.86876,2.4616 -6.24491,3.53374c-0.52577,0.12881 -5.62926,0.1043 -6.65631,0.1043c-4.33069,0 -8.66138,0 -12.99207,0c-1.07207,0.31929 -2.3615,-0.01028 -3.53056,0c-1.00137,0.0088 -1.96157,0.01818 -2.90254,0.01401c-1.23665,0.30965 -2.34911,1.03703 -3.64334,1.05065c-4.67789,0.04924 -5.57686,-0.92815 -8.26499,-2.95951c-0.40131,-0.12401 -0.80857,-0.23331 -1.227,-0.31494c-1.0341,-0.20173 -2.18304,0.17918 -3.19632,-0.0789c-1.42487,-0.36292 -2.53335,-1.26978 -3.91053,-1.73125c-1.5894,-0.53259 -3.38074,-0.14588 -5.00393,-0.30372c-2.51522,-0.24457 -5.04915,-0.35301 -7.57287,-0.53681c-5.85241,-0.42622 -11.69071,-1.76936 -17.5993,-2.12555c-3.62448,-0.21849 -6.68438,0.04911 -10.3081,-0.60498c-1.69857,-0.30659 -3.79685,-0.09326 -5.0611,-1.0294c-0.87995,-0.65158 -1.57707,-1.41859 -2.19339,-2.2366c-0.31959,0.167 -0.66524,0.30602 -1.0312,0.41257l-3.33408,1.03988l-0.03565,-0.0695c-0.09383,0.05356 -0.18815,0.10665 -0.28296,0.15924c-0.50257,0.27875 -1.29409,-0.02003 -1.82863,0.21986c-0.56275,0.25256 -0.68412,0.91872 -1.25281,1.16306c-5.10944,2.19531 -9.58312,4.71319 -11.8034,-1.15467c-1.91818,0.42358 -3.72577,1.15843 -5.67282,1.50093c-0.72034,0.12672 -1.52,0.19784 -2.23304,0.04927c0.02058,0.82338 0.11125,1.70717 -0.68451,2.10001c-2.07401,1.02387 -4.7812,1.1286 -7.23484,1.07156c-1.47959,-0.0344 -5.31243,-1.65163 -6.98519,-2.31905c-1.02123,-0.18809 -4.62357,-1.39286 -5.6339,-1.03152c-0.70358,0.25163 -1.04885,0.90959 -1.70625,1.22821c-3.03384,1.47044 -6.17716,2.81984 -9.43444,3.9633c-2.3602,0.82854 -11.33938,3.37392 -14.7949,4.40773c-5.00463,1.49728 -12.68301,4.91675 -17.45095,0.37435c-1.3154,-1.25317 -1.00094,-3.16983 -1.04931,-4.78879c-0.03402,-1.13859 0.07376,-2.36757 0.29713,-3.63213c0.00027,-0.19321 0.00501,-0.38516 0.01415,-0.57584c-0.4486,0.01835 -0.96216,-0.07598 -1.52681,-0.3695c-2.08013,-1.0813 -0.69337,-2.70326 -0.69337,-2.70326c0.49485,-0.57586 0.98969,-1.15172 1.48454,-1.72758c0.00687,-1.4584 0.56353,-3.05508 1.00631,-4.3988c0.4291,-1.30219 2.20014,-2.09718 3.55015,-2.93357c0.77504,-0.48017 1.8372,-0.98505 3.00515,-1.47144c0.14056,-0.1858 0.28157,-0.37139 0.42292,-0.5568c0.35348,-0.46366 0.52086,-1.20175 0.89634,-1.65756c-0.03822,-0.11012 -0.07644,-0.22024 -0.11465,-0.33036l0.75003,-0.56014l-0.48262,-0.15053l1.33363,-2.59971c0.70905,-1.48069 2.53943,-2.53507 4.68564,-2.53507c1.90225,0 3.55639,0.82831 4.40156,2.04759c0.95556,-1.01209 2.14594,-1.9054 3.46159,-2.61515c1.14504,-0.61771 2.63111,-0.74818 4.00459,-0.92645c1.93919,-0.25168 4.15888,-1.09733 5.87987,-0.35644c3.46753,1.49276 5.29361,4.74833 5.8027,7.94864c3.31383,-0.36025 7.45215,-0.4735 9.30534,1.30608c1.48071,1.42189 0.56301,3.67999 0.22124,5.4921c-0.04192,0.22228 -0.08738,0.43589 -0.13673,0.64117c2.03043,0.29986 4.03507,0.80694 5.97051,1.1984c1.02244,0.3912 2.03602,0.7968 3.06732,1.17359c0.10192,0.03723 0.21407,0.06739 0.33247,0.09318c1.52372,-1.11072 3.49145,-1.85417 5.42025,-2.47826c0.91049,-0.2946 1.99392,0.13006 2.957,-0.03394c2.452,-0.41757 4.65906,-1.19115 7.04448,-1.71768c0.06742,-0.28373 0.17425,-0.55667 0.31588,-0.81526l1.33477,-2.60194l0.21234,0.06623c0.01834,-0.17625 0.0419,-0.35238 0.07122,-0.52835c0.17602,-1.05625 1.6161,-1.71759 2.42415,-2.57637l1.09329,-1.28844c0.00299,-0.0233 0.00616,-0.04647 0.00951,-0.06953c0.33913,-2.33862 1.49366,-4.81499 2.09291,-7.1342l0.66326,-3.62018c0.0937,-0.57708 0.34919,-1.11483 0.72989,-1.58475c-0.90113,-0.70513 -1.45819,-1.67779 -1.45819,-2.75189c0,-2.15319 2.23857,-3.8987 5,-3.8987c2.76143,0 5,1.7455 5,3.8987c0,0.76446 -0.28217,1.47754 -0.76975,2.07936c0.4702,0.36794 0.84673,0.8087 1.09931,1.29871l2.01994,3.67506l-0.23823,0.07961c0.18838,0.21948 0.3689,0.44334 0.5404,0.67227c0.74794,0.99842 0.08292,2.31175 0.10211,3.46792c0.00547,0.32933 0.00507,0.65267 -0.00068,0.97139c1.21256,0.10703 2.40568,0.35894 3.43177,0.69708c1.31236,0.43248 2.92843,2.61333 3.12499,3.74384c1.04755,-0.65138 1.80501,-1.65752 3.05313,-2.03576c2.5578,-0.77512 7.52138,-0.4934 10.46502,-0.86433c0.86082,-0.10847 0.18487,-1.35899 0.42455,-2.01272c0.295,-0.80461 1.02496,-1.49382 1.25982,-2.31038c0.17651,-0.61367 -0.28204,-1.28333 -0.05276,-1.88631c0.55805,-1.46755 0.83324,-3.20507 2.07528,-4.35265c-0.03126,-0.1762 -0.04741,-0.35616 -0.04741,-0.53906c0,-2.15319 2.23857,-3.8987 5,-3.8987h2.75378c2.71925,0 8.60089,-0.22944 9.7608,1.84903c0.64839,1.16187 0.91106,2.18913 0.87404,3.09472c2.17512,2.13708 4.04139,4.56317 6.74602,5.99147c0.84973,0.44873 1.93052,0.59581 2.75378,1.07361c4.29423,2.49227 6.74438,6.56238 10.67911,9.34321c1.27848,0.90355 3.1987,1.02986 4.69503,1.69986c0.99916,0.44739 1.58498,1.32121 2.52539,1.84028c0.83764,0.46235 1.92474,0.60194 2.75378,1.07361c2.36677,1.34658 4.47817,3.41858 6.54845,5.04876c0.16962,0.19168 0.36965,0.38004 0.58964,0.56624c0.28993,0.04946 0.58181,0.08985 0.87593,0.11997c1.43456,0.14693 2.84368,-0.44447 4.28571,-0.5368c0.49543,-0.03172 1.00483,0.43803 1.45127,0.26756c0.87438,-0.33389 1.10996,-1.46418 2.06533,-1.61042c0.32401,-0.04959 0.6581,-0.09369 1.00115,-0.1327c-0.22597,-1.50882 -1.21995,-3.25807 0.03534,-4.31113c0.00316,-0.18377 0.00603,-0.36773 0.00759,-0.55182v-1.26839c-0.22872,-0.52961 -0.39724,-1.18344 -0.53916,-2.07181c-0.26947,-1.68683 -1.62838,-3.86751 -0.12519,-5.09866c2.15204,-1.76257 5.87898,-2.54628 8.95466,-2.13287c2.11864,0.28478 2.71757,2.59823 4.09294,3.88666c0.90358,0.84645 2.22697,1.49279 2.7437,2.51775c0.55677,1.10441 0.02644,2.38649 0.31604,3.55149c0.09338,0.37562 0.26264,0.73514 0.45085,1.09069c0.86338,0.8339 1.4929,1.77453 1.68949,2.93352l1.6083,0.31351c1.35874,0.24043 2.5073,0.91233 3.19623,1.82118c5.25446,0.43049 10.49728,1.09285 15.7179,1.44058c1.07391,0.07153 0.93341,-1.51513 1.39086,-2.27611c1.40271,-0.97758 2.52314,-2.28025 4.20812,-2.93274c1.89813,-0.73504 5.68465,0.04636 7.71124,-0.86433c1.53332,-0.68902 2.2169,-2.204 3.6706,-2.99098c2.22892,-1.20665 5.12882,-2.0419 7.82018,-2.31711c0.29543,-0.03021 0.60099,0.05547 0.90179,0.12755c0.42441,-0.08615 0.85354,-0.16999 1.2853,-0.24965c0.02104,-0.03033 0.0426,-0.06052 0.06466,-0.09057c0.07075,-0.09633 0.16279,-0.16778 0.27141,-0.22011l-2.78159,-3.74984c0,-1.04151 -0.05627,-3.54541 0.19487,-5.02785c-0.169,-0.46829 -0.27747,-0.93832 -0.19487,-1.41382c0.30216,-1.73957 0.62568,-3.74364 2.23802,-4.96882c2.08058,-1.58098 5.6241,-1.17649 8.49765,-1.50961c0.84191,-0.09761 2.12459,-1.3914 2.43233,-1.64642l0.96399,-0.31501c0.74153,-1.42912 2.53821,-2.43731 4.63688,-2.43731c2.76142,0 5,1.7455 5,3.8987v2.14722h-0.14217c0.03977,0.20599 0.06635,0.41405 0.0776,0.6245c0.23223,4.34432 -4.03008,6.56954 -8.41987,7.96398c-1.11106,0.35293 -2.39977,0.04869 -3.59575,0.12249c-0.51901,0.03202 -1.02723,0.15362 -1.54334,0.19904c-0.08465,0.13001 -0.18193,0.25848 -0.29348,0.38391c0.0416,0.10522 0.07322,0.21409 0.09709,0.32554c0.20129,0.16742 1.17631,1.02739 1.45829,2.19872c0.35939,0.07592 0.71597,0.17988 1.07113,0.29814c0.57654,0.12266 1.15071,0.23444 1.71719,0.3002c4.44746,0.51627 10.77683,2.26738 13.55925,5.28361c0.46832,0.50767 0.90587,1.03092 1.3238,1.56413c0.20325,-0.36224 0.38673,-0.73423 0.61204,-1.08559c0.81887,-0.33632 1.609,-0.72543 2.41159,-1.09164c-0.13302,-0.11313 -0.26756,-0.22479 -0.40398,-0.33463l7.113,-3.98087c3.80298,-0.02741 7.15299,0.15252 10.86003,0.5368c0.63185,0.0655 1.27113,0.11734 1.91639,0.1576l3.33013,-2.86189c1.28519,1.00114 2.64655,1.94801 3.94138,2.94227c3.4366,-0.08315 6.8906,-0.26719 10.16604,-0.26719c2.70064,0 5.45321,0.12575 8.14886,0.05034c0.55629,-0.01556 1.2389,0.11728 1.65556,-0.17054c1.08631,-0.7504 1.12272,-2.6088 2.56361,-2.74396c2.99319,-0.28077 6.31901,0.32621 8.78409,1.67951c1.3008,0.71412 0.49116,2.45739 0.92522,3.65079c0.67229,1.8484 1.19322,3.73056 1.62438,5.62441c1.33769,-0.70128 2.93686,-1.16896 4.46033,-1.57121c-0.06489,-1.19615 0.60203,-2.41965 0.60915,-3.63382c1.00909,-3.1473 0.84456,-6.35236 2.33844,-9.46518c0.50063,-1.04317 1.24615,-2.85792 2.16012,-3.76616c-1.28864,-1.23827 -2.42141,-2.59359 -3.71382,-3.82903l8.76878,-2.89866c1.39527,0.7739 3.28935,1.23964 4.68461,2.01356c0.17122,0.03598 0.27582,0.05768 0.28509,0.05858c0.66789,0.06537 1.34989,0.10105 2.04036,0.11711c1.12467,-0.8429 2.29206,-1.64031 3.62224,-2.26433c0.27675,-0.12983 5.63585,0.037 6.19599,0c2.21405,-0.14622 2.44802,-1.04609 4.9697,-1.53533c1.77426,-0.34422 3.6458,-0.26528 5.44363,-0.52469c1.64243,-0.23699 3.35041,-0.93464 4.95618,-0.57607c3.17219,0.70835 5.30575,3.19131 7.19714,5.29959c1.03089,1.14909 2.68049,1.88181 3.85172,2.94601c3.1137,2.82917 6.77311,6.29002 8.48503,9.79069c0.83994,1.71758 1.99509,4.26898 4.43108,4.84402c3.63225,1.67026 7.79248,-0.20097 11.73705,0.86208c0.89968,0.24247 1.76784,0.57778 2.58046,0.98375c-0.08258,-0.85963 -0.09916,-1.70507 -0.07808,-2.47531c0.27862,-0.43449 0.52327,-0.88544 0.76938,-1.33569c-0.20747,-0.43913 -0.3126,-0.88323 -0.19448,-1.33954c0.47787,-1.846 2.12346,-3.46663 3.84139,-4.79034c1.65391,-1.27437 6.47813,-2.71695 9.87645,-2.08112c2.26998,-0.1706 4.58601,-0.0993 6.17959,0.20634c4.64559,0.89102 9.63009,3.77763 12.43047,6.76316c1.05496,1.12471 1.99073,2.32767 2.7437,3.59137c0.18887,0.31697 0.29616,0.66189 0.35546,1.01291c0.58718,0.05546 1.17411,0.1151 1.76045,0.17309c2.23523,-0.13378 5.44815,0.16491 6.34512,0.16491l0.11915,0.05665c3.58721,-0.13999 7.25514,-0.51855 10.66782,0.04764c1.74284,0.28915 3.19579,1.40429 4.9697,1.53533c1.561,0.11532 3.07696,0.28851 4.5809,0.49505l0.0026,0.38514c0.61246,2.38778 1.21429,5.0643 1.32116,7.56907c-1.4751,-0.30237 -2.95175,-0.58005 -4.37272,-0.71028zM27.50794,169.10018c-1.23713,-0.68398 -2.37552,-1.53811 -3.61612,-2.33809c-0.26096,-0.03145 -0.53554,-0.07142 -0.82622,-0.12092c-1.80384,-0.30713 -3.71051,-0.60505 -5.36242,-1.24258c-0.10119,0.23088 -0.22724,0.45747 -0.38161,0.67916c-1.95328,2.80519 -7.03015,3.27295 -10.58837,4.85124c-0.51824,0.22987 -1.01956,0.51675 -1.53439,0.7726c-0.32489,1.00782 -0.6004,2.02527 -0.82106,3.04866c-0.0948,0.43966 -0.1256,0.89059 -0.15047,1.34203c0.0271,0.0722 0.05583,0.14464 0.0862,0.21736c0,0 0.04087,0.12746 0.07759,0.34142c0.1924,-0.09948 0.38827,-0.19369 0.5963,-0.26836c1.73046,-0.62121 8.08365,-2.43484 9.22277,-2.77216c4.62935,-1.37085 9.00329,-2.78204 13.2978,-4.51036zM328.25601,170.10223c-0.0449,-0.74025 -0.00311,-1.48735 0.29137,-2.14107l-5.03204,-0.42746c-1.50916,0.14457 -3.03008,-0.2097 -4.53733,-0.36595c-4.28191,-0.44387 -8.78239,0.26163 -13.12495,0.08464c0.13128,0.06569 0.26596,0.12776 0.40426,0.18595c4.41625,1.85814 5.06692,0.47513 10.14648,1.15727c1.21787,0.16355 2.2368,0.86128 3.44221,1.07361c1.69457,0.2985 3.4508,0.31715 5.17293,0.49567c0.42371,0.04392 1.98287,-0.03049 3.23706,-0.06268zM347.75896,156.16542l2.30535,-3.52866c-0.33402,-0.25689 -0.66394,-0.52017 -0.99498,-0.7817c-0.53674,0.72771 -1.09486,1.46058 -1.38389,2.05972c-0.63181,1.30968 -0.86822,2.64895 -1.06581,3.99457l0.09984,-0.15282c0.1264,-0.27592 0.25285,-0.55183 0.37935,-0.82772zM142.13674,166.78035c-0.01809,-0.01174 -0.03616,-0.02353 -0.05422,-0.03535c0.29605,0.54512 0.65498,1.06976 1.12199,1.56359c0.25898,-0.12758 0.53413,-0.2412 0.82085,-0.34392c-0.64683,-0.37732 -1.26983,-0.78251 -1.88862,-1.18432zM431.53088,158.47452c-0.05448,-0.01205 -0.10898,-0.0243 -0.16334,-0.03644c-0.01184,0.01491 -0.02366,0.02982 -0.0355,0.04473c0.06568,-0.00397 0.13198,-0.0067 0.19885,-0.0083z" fill="#ffad00" stroke-width="0.5"/><path d="M339.48244,167.30018c-0.40616,0.32248 -0.87921,0.63149 -1.43066,0.92492c-1.49615,0.79612 -3.57703,0.46812 -5.38243,0.58226c-3.28317,0.20758 -5.75214,-0.81687 -8.87223,-1.10282c-2.70057,-0.2475 -4.73579,0.62459 -7.36012,-1.01365c-0.57298,-0.35768 -1.26689,-0.74757 -1.94396,-1.16649c-1.83051,-0.14167 -3.64712,-0.63132 -5.25473,-1.34291c-1.46762,0.5629 -3.16331,0.77756 -4.79512,0.86822c-2.07279,0.11518 -4.11813,-0.55825 -6.19599,-0.5368c-5.11809,-0.33257 -9.71481,3.61579 -15.02681,3.75654c-1.37114,0.03633 -2.68848,-0.45024 -4.05385,-0.55468c-5.20637,-0.39825 -10.8022,0.01898 -16.02995,0.01898c-4.0432,0 -8.32435,0.44282 -12.1017,-1.04286c-0.86928,-0.3419 -1.22393,-1.22846 -2.06533,-1.61042c-0.26923,-0.12222 -0.58056,-0.15412 -0.90053,-0.16863c-1.84436,2.65879 -4.84075,3.39842 -8.41704,3.86631c-1.10617,0.14472 -2.24305,0.02921 -3.36469,0.02921c-0.94385,0 -1.89583,0.06861 -2.8313,-0.02921c-0.14608,-0.01528 -0.18413,-0.39909 -0.23605,-0.29154c-1.25905,2.60789 -1.88491,4.62877 -5.48425,6.25637c-2.7098,1.22535 -5.10326,1.01796 -7.97104,1.04286c-4.01591,0 -8.3303,0.31593 -12.31446,-0.02921c-3.79921,-0.32913 -7.82862,-1.14201 -11.5853,-1.60018c-1.10393,-0.13464 -2.26669,-0.19831 -3.36105,-0.39649c-0.29908,0.93853 -0.7141,1.83443 -1.5605,2.4944c-1.42827,1.11368 -3.703,1.32076 -5.67839,1.6495c-1.01704,0.16925 -2.65185,0.13446 -4.34768,0.02274c-5.04851,1.67233 -9.83522,1.23535 -14.32399,-0.38687c-4.686,0.23205 -9.89376,0.51976 -13.6264,-1.0351c-2.42187,-1.00885 -4.51075,-2.51891 -6.28147,-4.15526c-0.73165,-0.67613 -0.45745,-1.75439 -0.96823,-2.54432c-0.47583,-0.7359 -1.39214,-1.25903 -1.93475,-1.96242c-2.11267,0.07528 -4.27227,0.11185 -6.05501,-0.15921c-6.4204,-0.97626 -12.50551,-5.50092 -15.84432,-9.85078c-0.43714,-0.56951 -0.82798,-1.15959 -1.18328,-1.76379l-0.01403,0.04377c-0.50529,1.73617 -2.49658,3.03224 -4.87608,3.03224c-0.78721,0 -1.53194,-0.14185 -2.19442,-0.39456c-0.61142,0.48079 -1.22611,0.95922 -1.92428,1.35423c-2.77293,1.56884 -6.1245,2.00041 -9.11364,3.03802c-1.25821,0.43676 -2.25326,1.28891 -3.55265,1.64489c-2.91038,0.79734 -5.58868,1.09388 -8.34918,0.4406c-3.00309,1.84907 -7.52535,2.91978 -11.62879,2.6031c-0.31476,0.30818 -0.6638,0.5917 -1.05206,0.84273c-1.72034,1.11236 -5.73236,0.52345 -8.03419,0.66435c-8.6607,0.53014 -17.42643,2.26198 -26.04104,1.00388c0,0 -0.11279,-0.01758 -0.30072,-0.06077c-2.5272,1.49099 -4.93638,0.41712 -5.91991,-0.16271c-2.51679,0.44623 -5.60893,0.30032 -7.2561,0.29919c-1.89042,-0.0013 -3.78797,-0.07297 -5.67586,-0.22087c-5.97005,4.05129 -13.15909,8.20742 -19.00083,0.84744c-0.53491,-0.67392 -0.11045,-2.54914 0.59153,-4.48815c-0.25183,0.27895 -2.95514,3.11777 -6.91451,1.05959c-4.16025,-2.16261 -1.38675,-5.40652 -1.38675,-5.40652c1.09392,-1.24583 1.96488,-2.63055 3.28176,-3.73748c0.83627,-0.70294 1.76904,-1.2851 2.76737,-1.78113c0.11148,-2.07623 2.30542,-3.73277 4.99556,-3.73277h8.94976c0.07463,0 0.14888,0.00127 0.22271,0.0038c0.49611,-0.32167 1.01668,-0.60846 1.54662,-0.85271c1.86585,-0.85998 4.40525,0.08358 6.44943,0.6454c2.14382,0.5892 4.05997,1.5129 5.8464,2.60628c2.1992,0.31273 4.28392,0.7334 5.60942,1.32413c3.16803,1.41187 4.86551,3.68227 5.10972,6.22676c1.51958,-0.4534 3.04557,-0.21543 3.04557,-0.21543c3.89782,0.66667 7.99509,0.06393 11.96789,-0.22884c3.8556,-0.28412 7.6972,-0.68715 11.55899,-0.91452c0.33891,-0.01995 0.86521,-0.00878 1.39007,0.03292c0.0314,-1.42992 0.35759,-3.00598 0.76966,-4.29258c-0.03328,-2.82907 0.00121,-5.6594 0.00121,-8.4886v-2.68403c0,-2.15319 2.23857,-3.8987 5,-3.8987c1.99602,0 3.71886,0.91198 4.52058,2.23069l2.70533,4.2189l-0.22917,0.08935c0.2195,0.24593 0.42785,0.49842 0.62328,0.75847c0.30763,0.40935 0.30496,2.47939 0.144,4.52582c0.74941,-0.34946 1.62594,-0.55031 2.56264,-0.55031c1.65663,0 3.12508,0.62821 4.03491,1.59578l1.82419,1.89652c0.50352,0.03365 0.63886,0.8671 1.14427,0.80326c1.77748,-0.22455 3.20617,-1.28209 4.85207,-1.85155c2.41674,-0.83616 5.17317,-1.05917 7.40901,-2.33005c1.85471,-1.05425 3.35375,-2.47593 5.29013,-3.43676c0.15972,-0.07925 0.3398,-0.11857 0.53005,-0.13773c0.19124,-0.27215 0.43841,-0.53907 0.64348,-0.81428c0.11713,-0.31026 0.24095,-0.61779 0.37139,-0.91313c-0.02815,-0.37054 -0.24523,-0.75566 -0.11956,-1.11266c1.7746,-5.04156 2.18274,-7.99371 8.36229,-5.15986c1.81582,-0.2087 3.59266,0.55821 5.14191,3.02764c0.11114,0.10766 0.2139,0.2163 0.30908,0.32586c2.05998,-0.45903 4.7475,-0.13754 7.41908,0.56094c2.44174,0.63839 4.92564,4.40339 6.22232,5.75217c2.3658,2.46085 7.03048,3.04844 9.62989,5.36157c0.10871,0.09674 0.21553,0.19454 0.32056,0.29334l0.04503,-0.0351l5.50754,4.29445c0.74624,0.58187 1.25771,1.34683 1.41406,2.20104c0.39844,-0.07972 0.81607,-0.12211 1.2464,-0.12211c0.93432,0 1.80878,0.19982 2.55693,0.54765l4.74287,2.11326l-0.00724,0.00986c0.01776,0.00362 0.03552,0.00725 0.05327,0.01089c2.27247,0.46669 3.73664,2.37773 5.9892,2.89979c0.07233,0.01676 0.14477,0.03309 0.21732,0.04901c0.76196,-0.59793 1.36757,-1.86471 1.54625,-2.6275c0.38016,-1.6229 -0.4464,-3.32167 -0.09629,-4.94868c1.10452,-5.13291 6.72138,-9.87282 13.86733,-5.60505c1.70266,1.01688 1.70219,3.07035 2.59903,4.58944c0.51156,0.86649 1.50302,2.23812 2.23452,3.49389c1.02521,0.62643 1.95137,1.62058 3.07825,2.07598c1.31687,0.53216 2.97652,-0.0428 4.44762,0.1047c2.99611,0.30041 5.95681,1.35109 8.94976,1.61042c3.57261,0.30956 7.49041,-0.02921 11.09262,-0.02921c1.01461,0.01383 2.14384,0.33445 3.04405,-0.03076c1.43522,-0.58226 3.31109,-5.04608 4.15396,-5.55336c2.72305,-1.63889 6.21534,-1.39436 9.32463,-1.39436c0.71439,0 1.42852,0.03643 2.14285,0.02921c0.28756,-0.00291 0.88179,0.44756 0.81063,0.2303c-1.1404,-3.48192 -0.53247,-7.80216 -0.38061,-11.39139c0.05528,-1.30662 -0.31511,-2.68792 0.25659,-3.91691c0.65175,-1.40107 1.92165,-2.61727 3.27321,-3.67114c5.77205,-4.50069 15.75595,-3.86541 16.10648,4.47538c0.09584,2.28039 -2.59847,4.08874 -3.89771,6.13312c-1.8041,1.23023 -3.23902,3.42067 -5.47724,3.78697c0.49314,0.28789 0.8947,0.70147 1.47119,0.86359c1.07853,0.30331 2.30472,0.30757 3.30385,0.74609c0.84843,0.37237 1.27602,1.16598 2.06533,1.61042c1.00872,0.56799 2.48828,0.03655 3.7325,0.03076c7.83397,-0.03648 15.5576,0.10314 23.28813,0.5379c1.93104,0.1086 3.47107,-1.34549 5.26865,-1.90616c3.37576,-1.05288 6.3463,-1.75505 9.99605,-1.85259c1.35104,0.00973 2.71029,-0.08713 4.05313,0.02921c0.83116,0.07201 1.70706,0.80036 2.43314,0.47684c1.5281,-0.68087 2.76893,-2.13101 4.52882,-2.11647c1.82385,0.01507 3.06338,1.55544 4.69399,2.19268c0.21162,0.0827 0.45901,0.1191 0.71441,0.14251l0.19489,-0.20262c0.90983,-0.96756 2.37829,-1.59578 4.03491,-1.59578c2.76142,0 5,1.7455 5,3.8987c0,0.13161 -0.00836,0.26171 -0.0247,0.38998c0.38263,-0.00759 0.76426,-0.00371 1.14316,0.03499c0.84323,0.08613 1.66169,0.27455 2.47775,0.47262c0.48307,-0.20959 0.83774,-0.30177 0.83774,-0.30177l3.64646,-0.73688c0.19034,0 0.38178,0.00079 0.57418,0.00223c-0.00629,-1.15123 -0.20716,-2.31369 0.06713,-3.44095c0.49942,-2.05254 2.44545,-4.9792 3.61903,-6.89857c0.78436,-1.2828 0.83589,-3.02206 2.30081,-3.86756c2.76842,-1.59783 5.30701,-0.58776 8.09192,-0.80675c3.26057,-0.25639 6.51605,-1.61284 9.59436,-2.40624c1.37387,-0.44904 2.63597,-1.26166 4.12161,-1.3471c0.8929,-0.05135 1.78863,0.037 2.67152,0.19716c1.07474,-0.50663 2.26029,-0.91513 3.60973,-1.18976c0.4678,-0.09521 4.65759,-0.11668 6.23593,-0.10817c1.47534,-0.60246 3.05006,-1.0381 4.6635,-1.01938c0.76074,0.00882 1.41476,0.26808 2.02639,0.63327c1.26349,-0.01203 2.47676,0.12108 3.57295,0.59006c0.47208,0.20197 0.89324,0.44837 1.27551,0.72871l0.14335,-0.14903l2.70722,1.5832c1.24088,0.70943 2.04655,1.85445 2.04655,3.14618c0,0.38759 -0.07254,0.76198 -0.20761,1.11535c0.18761,0.24393 0.36377,0.49322 0.52776,0.74716c0.57047,0.1605 1.14771,0.34412 1.73501,0.55526c1.47264,0.70706 3.39698,1.03273 4.41791,2.12119c1.48845,1.58691 2.10101,4.16013 1.65971,6.44875c4.69488,0.66502 9.33918,1.6396 14.00864,2.36711c0.7806,0.12162 1.56315,0.23632 2.34704,0.34618c0.16107,-1.51858 0.65943,-2.99842 2.0866,-4.11124c1.41965,-1.10696 5.63304,-1.84677 9.18232,-1.90199c3.54699,-3.50756 9.78229,-5.24444 15.13299,-2.82252c1.56829,0.70986 2.01253,2.35563 3.12611,3.47158c1.63371,1.63717 4.49883,2.96503 7.00491,3.46758c2.35121,0.47148 4.84506,0.2503 7.26427,0.40863c3.47505,0.22743 6.90062,0.80404 10.37041,1.07588c1.89099,0.14815 4.05725,-0.47194 5.68963,0.28696c2.27335,1.05691 4.88601,2.67989 5.11445,4.73599c0.58079,5.22738 -5.40749,7.40647 -10.35762,8.08235c-5.40454,0.73793 -12.08211,0.05819 -17.678,0.04054c-5.16221,-0.57503 -10.52247,-0.3865 -15.59222,-1.11415c-3.33919,-0.47927 -6.4681,-1.65435 -9.79847,-2.16959c-1.03125,-0.15954 -2.06628,-0.32238 -3.10445,-0.48745c-0.91149,1.67486 -2.56405,2.96338 -6.26103,3.2442c-3.77574,0.2868 -6.13508,-3.96266 -9.0333,-5.20968c-2.22654,-0.95801 -7.18023,0.18757 -9.32655,-0.26268c-2.09103,-0.43865 -4.01557,-1.30623 -5.84456,-2.21186c-5.32921,-0.35336 -11.26095,0.42234 -16.33621,-0.39709c-1.81308,-0.29273 -3.73677,-0.55751 -5.2715,-1.36514c-0.7874,-0.41436 -0.36684,-1.63227 -1.1718,-2.02558c-0.75343,-0.36814 -1.77318,0.20159 -2.66015,0.15325c-1.27469,-0.06948 -2.51898,-0.33616 -3.77846,-0.50423c-0.73275,0.00416 -3.52283,0.02216 -5.1929,0.02334c-0.47537,0.27888 -0.95327,0.55308 -1.43903,0.81271c-0.26904,0.43348 -0.59298,0.87411 -0.78645,1.17011c-0.87809,1.34345 -1.22442,3.00526 -2.65007,4.02404c-1.29314,0.9241 -3.25911,1.02538 -4.94486,1.40339c-2.58636,0.57996 -5.31208,0.72711 -8.05271,0.73501zM376.87853,153.21346c-0.53535,0.06517 -1.07133,0.14228 -1.60755,0.22462c0.54897,0.52167 0.61695,1.41327 1.14517,1.98777c0.08587,0.0934 0.09081,-0.27195 0.23605,-0.29153c0.70395,-0.09491 1.42848,-0.02621 2.14286,-0.02921c0.70328,-0.00295 1.40656,-0.00348 2.10985,-0.00306c0.00274,-0.58154 0.0394,-1.1629 0.06019,-1.72488c-1.3659,-0.05004 -2.74113,-0.0551 -4.03961,-0.15616c-0.00513,-0.0004 -0.02113,-0.00301 -0.04696,-0.00756zM345.47293,152.30931c-0.10178,0.28326 -0.24055,0.57052 -0.40349,0.86027c0.52229,-0.0604 1.04399,-0.12374 1.56454,-0.19272c0.95262,-0.12624 1.87513,-0.39723 2.83796,-0.46079c0.12552,-0.00829 0.26795,0.08565 0.39657,0.16457c0.35915,-0.38813 0.65147,-0.66169 0.82113,-0.7487c0.04284,-0.08671 0.08371,-0.17419 0.12318,-0.26221c-1.04521,0.21118 -2.10674,0.37807 -3.19347,0.47768c-0.70207,0.06434 -1.43687,0.17286 -2.14642,0.16191zM81.65567,159.20708c0.02196,0.27067 0.04492,0.54145 0.06487,0.81194c0.36887,-0.08382 0.72105,-0.24348 1.07168,-0.39677c-0.16764,-0.18727 -0.31473,-0.38656 -0.43872,-0.59588c-0.2296,0.06154 -0.46786,0.11718 -0.69783,0.1807zM443.52058,163.21056c-0.2256,-0.06565 -0.44904,-0.13371 -0.67012,-0.20432c-0.03479,0.05571 -0.07063,0.11182 -0.10753,0.16831c0.259,0.01248 0.51824,0.02441 0.77765,0.036z" fill="#ff6f00" stroke-width="0.5"/><path d="M98.09107,169.73993c0,3.8987 -5,3.8987 -5,3.8987l-2.16759,-0.00082c-11.23488,-0.18021 -22.38653,-0.53599 -33.63146,-0.53599c0,0 -2.50131,0 -3.96561,-1.37948c-0.30747,3.52671 -4.98415,3.52671 -4.98415,3.52671l-3.23443,-0.00337c-3.90212,0.25356 -7.75341,0.3915 -11.61355,0.46436c-0.31883,0.04973 -0.64862,0.07582 -0.98622,0.07582h-2.75377c-0.72941,0 -1.45866,-0.00295 -2.18777,-0.00839c-1.21105,0.0061 -2.42592,0.00839 -3.64643,0.00839c-3.33334,0 -6.66668,0.00523 -10,0c-1.55778,-0.00244 -3.28556,0.52887 -4.67327,-0.02303c-0.16797,-0.0668 -0.33335,-0.13669 -0.49637,-0.20938l-0.03984,0.14056l-2.22224,-0.38289c-2.11185,-0.03849 -4.22407,-0.06273 -6.33714,-0.06208c0,0 -5,0 -5,-3.8987c0,-3.8987 5,-3.8987 5,-3.8987c1.8994,0.00055 3.79794,0.02075 5.69603,0.05303c0.26889,-0.03489 0.54503,-0.05303 0.82661,-0.05303h10c0,0 1.04578,0 2.1808,0.37293c2.87013,0.07238 5.7413,0.13273 8.61487,0.15485c5.73813,-0.03359 11.46868,-0.15052 17.22271,-0.52441l3.65001,-0.00337c0,0 2.50131,0 3.96561,1.37948c0.30747,-3.52671 4.98415,-3.52671 4.98415,-3.52671c11.3127,0 22.53354,0.35839 33.83598,0.53762l1.96307,-0.00082c0,0 5,0 5,3.8987z" fill="#ff7b00" stroke-width="0.5"/><path d="M55.151,174.73045c-1.58114,3.69862 -6.32456,2.46575 -6.32456,2.46575l-2.10959,-0.54848c-0.66587,-0.17847 -1.33176,-0.35691 -1.99766,-0.53531c-1.02388,0.29173 -2.14368,0.31819 -3.30218,0.23752c-7.03751,0.60422 -13.30293,1.02652 -20.42157,0.4902c0,0 -1.00605,-0.07845 -2.06811,-0.51754c-0.06266,0.00006 -0.12538,0.00009 -0.18814,0.00009c-7.80236,0 -15.60471,0 -23.40707,0c0,0 -5,0 -5,-3.8987c0,-3.8987 5,-3.8987 5,-3.8987c6.712,0 13.42401,0 20.13601,0l-0.46764,-0.72928c-0.36581,-0.54178 -0.57284,-1.15889 -0.57284,-1.8137c0,-2.15319 2.23857,-3.8987 5,-3.8987c0.37146,0 0.73346,0.03158 1.08182,0.0915l6.78319,1.05783l-0.00701,0.02734c0.11083,0.00998 0.22161,0.02073 0.33234,0.03228c3.41427,0.35604 6.51817,1.73945 9.77635,2.61121c0,0 3.60934,0.96743 7.07055,1.89516c0.37828,0.0497 0.75299,0.11221 1.1236,0.18957h2.75377c1.92365,0 3.59359,0.84705 4.42979,2.0889c1.2747,0.5409 3.54415,1.92747 2.37896,4.65309z" fill="#ffde00" stroke-width="0.5"/><path d="M68.13565,167.84111c0.24029,-3.61029 4.99057,-3.61029 4.99057,-3.61029c8.74795,0 18.12453,-1.56335 26.84929,-0.53681c2.70409,0.31816 6.61516,-0.41297 7.99737,1.42697c0.04143,0.05515 0.08205,0.11001 0.12187,0.16456c1.33947,0.05462 2.87807,0.54018 3.92577,2.17405c2.23607,3.4871 -2.23606,5.23065 -2.23606,5.23065l-3.61295,0.9484c-0.18073,-0.00023 -0.36132,0.00013 -0.54175,0.00106c-3.61289,1.42969 -8.70879,1.81211 -11.32348,2.12446c-3.46846,0.41435 -7.01783,0.01662 -10.52675,0.0217c-3.76528,0.00545 -7.5306,0.00414 -11.29591,0.00236c-1.62682,0.07205 -3.40044,0.54163 -4.86413,-0.00207c-0.68872,-0.00019 -1.37743,-0.0003 -2.06614,-0.0003h-3.44222c-2.76143,0 -5,-1.7455 -5,-3.8987c0,-2.15319 2.23857,-3.8987 5,-3.8987h5.50755c0.16797,-0.06436 0.34058,-0.11245 0.51698,-0.14735z" fill="#ffde00" stroke-width="0.5"/><path d="M134.57857,168.66632c0,3.8987 -5,3.8987 -5,3.8987l-1.90112,-0.11641c-3.3851,-0.84191 -6.53612,-1.93923 -7.94633,-4.36323c-2.02581,0.57921 -4.09216,-0.22641 -4.09216,-0.22641l-2.65689,-1.03584c-1.69123,-0.62513 -2.86082,-1.9685 -2.86082,-3.52487c0,-1.81176 1.58494,-3.33489 3.73268,-3.77237l4.71282,-1.04993l0.09217,0.25153c0.56264,-0.16835 1.14229,-0.30029 1.74414,-0.3848c8.38965,-1.17804 4.81426,6.53136 9.69974,6.54135l-0.52424,-0.11641c0,0 5,0 5,3.8987z" fill="#ffde00" stroke-width="0.5"/><path d="M168.47287,172.29083c2.23607,3.4871 -2.23607,5.23065 -2.23607,5.23065l-3.61295,0.9484c-5.0517,-0.02214 -10.33907,1.24992 -15.40285,0.46646c-1.5216,-0.23542 -2.90242,-0.85474 -4.35363,-1.28211c0,0 -4.64238,-1.44794 -2.78543,-5.06779c1.85695,-3.61985 6.49934,-2.17191 6.49934,-2.17191c5.09671,1.74223 10.62559,0.27663 16.04257,0.25796l-0.85918,-0.12521c0,0 4.47213,-1.74354 6.7082,1.74355z" fill="#ffde00" stroke-width="0.5"/><path d="M119.34524,156.92934c-3.53553,2.7568 -7.07107,0 -7.07107,0l-3.59879,-2.81178c-1.19707,-1.118 -2.39414,-2.236 -3.59121,-3.35399c0,0 -3.20092,-2.99506 0.64019,-5.49095c3.8411,-2.49588 7.04203,0.49917 7.04203,0.49917c1.09774,1.02922 2.19548,2.05846 3.29322,3.08768l3.28564,2.55628c0,0 3.53553,2.75679 0,5.51359z" fill="#ffde00" stroke-width="0.5"/><path d="M80.82974,157.94474c-0.7071,3.85951 -5.65685,3.30815 -5.65685,3.30815l-5.18693,-0.58878c-3.01342,-0.71956 -6.10076,-1.5672 -9.25172,-1.51926c0,0 -5,0 -5,-3.8987c0,-3.8987 5,-3.8987 5,-3.8987c3.8692,0.03836 7.68955,0.84956 11.40158,1.70158l4.45128,0.48483c0,0 4.94974,0.55136 4.24264,4.41087z" fill="#ffde00" stroke-width="0.5"/><path d="M304.62406,162.22465c0,3.8987 -5,3.8987 -5,3.8987c-6.42547,0 -14.22783,0 -20.6533,0c-0.95299,0 -6.59578,0.03064 -7.34475,-0.1043c-1.26514,-0.22794 -2.4596,-0.65791 -3.67443,-1.02562c-0.17028,0.17447 -0.36638,0.34964 -0.59104,0.52482c-0.21503,0.16766 -0.43005,0.31494 -0.64428,0.44367c0.77181,3.4592 -3.7439,4.33947 -3.7439,4.33947l-3.35553,0.62399c-1.35104,0.00973 -2.70209,0.01948 -4.05314,0.02921c0,0 -3.28863,0 -4.53171,-2.07963c-0.09654,1.9941 -2.53401,3.13446 -2.53401,3.13446l-4.21171,1.90371c-1.42154,0.24113 -2.84308,0.48226 -4.26462,0.7234c0,0 -3.92101,0.61147 -5.45138,-1.99337l-4.61376,0.1439c-3.7477,0.07588 -7.51234,0.51524 -11.24312,0.22761c-1.4355,-0.11067 -2.62571,-0.93204 -3.93857,-1.39806c0,0 -4.47214,-1.74355 -2.23607,-5.23065c2.23607,-3.4871 6.7082,-1.74354 6.7082,-1.74354c2.9336,1.40075 6.87571,0.50894 10.30988,0.35348l5.88763,-0.18363c-0.63038,-3.54239 3.99292,-4.26338 3.99292,-4.26338l3.62188,-0.56218c3.30381,-0.32201 6.49041,-0.7526 9.69146,-1.09468c-1.06492,-2.48278 -0.81012,-5.01979 -0.81012,-8.47713c0,0 0,-3.8987 5,-3.8987c5,0 5,3.8987 5,3.8987c0,0.26146 -0.03616,0.6276 -0.08309,1.0588c1.08037,0.64969 1.62056,1.4921 1.62056,1.4921l1.59418,2.53814c0.11687,0.41935 0.21882,0.86292 0.33598,1.30707c1.17127,-0.17259 2.15116,-0.01977 2.15116,-0.01977c2.18595,0.35972 4.21549,1.16191 6.36417,1.639c2.21163,0.49106 6.16177,-0.10429 8.48944,-0.10429c5.27807,0 10.55613,0 15.8342,0h1.37688c0,0 5,0 5,3.8987zM250.56541,167.17992c-0.00114,-0.0409 -0.00172,-0.08223 -0.00172,-0.12402c0,-0.01917 0.00013,-0.03825 0.00037,-0.05723c-0.03419,0.00424 -0.06839,0.00848 -0.10259,0.01272c0.03659,0.05659 0.07121,0.11277 0.10394,0.16853z" fill="#ffde00" stroke-width="0.5"/><path d="M246.79186,186.24656c0.17231,3.89638 -4.82472,4.03074 -4.82472,4.03074l-9.9708,0.26809c-28.87052,0.77624 -57.69623,1.34464 -86.58358,1.34464c0,0 -5,0 -5,-3.8987c0,-3.8987 5,-3.8987 5,-3.8987c12.24703,0 24.48286,-0.1027 36.71575,-0.28029c-1.23683,-0.11108 -4.53981,-0.70436 -4.53981,-3.8731c0,-3.8987 5,-3.8987 5,-3.8987c0.82412,0 1.64873,0 2.47382,0c-0.36021,-0.51554 -0.58938,-1.17151 -0.58938,-2.00618c0,-3.8987 5,-3.8987 5,-3.8987c5.85763,0 11.71525,0 17.57288,0h1.01509c0,0 5,0 5,3.8987c0,0.83466 -0.22917,1.49064 -0.58938,2.00618c38.85371,0 78.34304,0 116.75541,0c0,0 5,0 5,3.8987c0,3.8987 -5,3.8987 -5,3.8987c-27.83031,0 -55.66062,0 -83.49092,0c0.58488,0.54992 1.00763,1.32273 1.05565,2.40861z" fill="#ffde00" stroke-width="0.5"/><path d="M468.29269,166.91485c2.76142,0 5,1.7455 5,3.8987c0,2.15319 -2.23858,3.8987 -5,3.8987c-2.01623,0 -3.75373,-0.93053 -4.54466,-2.27087c-0.03078,0.51797 -0.21564,1.09335 -0.62142,1.72615c-2.23607,3.4871 -6.7082,1.74355 -6.7082,1.74355l-0.3535,-0.24162c-4.53141,-0.94074 -8.62513,-2.7921 -12.54807,-4.81845c-0.6074,-0.31375 -0.92495,-0.93676 -1.58926,-1.17008c-1.27943,-0.44936 -5.82521,0.6455 -6.87594,0.7179c-5.88426,0.40547 -11.83411,-0.06898 -17.53956,-1.17104c0,0 -1.14261,-0.22273 -2.18009,-0.88441c-1.4721,1.00081 -3.49167,1.00081 -3.49167,1.00081l-5.31179,-0.01897c-2.31698,-0.36132 -4.79826,-0.07225 -7.03797,-0.6593c-2.0899,-0.54778 -7.14045,-3.29882 -9.01171,-4.27096c0,0 -0.01829,-0.00951 -0.05165,-0.02822c-0.74534,0.1462 -1.30551,0.14619 -1.30551,0.14619l-4.05313,-0.02921c-3.37102,-0.66848 -6.54013,-1.54246 -9.13595,-3.20706c-1.11264,2.01586 -2.0718,3.01331 -6.49763,4.62691c-1.33398,0.48635 -2.9392,0.14652 -4.40881,0.21978c0,0 -2.37541,0 -3.85167,-1.27665c-2.75216,2.56733 -6.49471,0.62187 -6.49471,0.62187l-2.75852,-1.52273c-0.2731,1.04842 -0.91038,2.23736 -1.54205,2.82535c-1.414,1.31621 -3.96974,1.52688 -6.08389,2.00699c-0.8813,0.20014 -1.84242,-0.08548 -2.75377,0c-2.13971,0.20071 -4.17226,0.89829 -6.31422,1.08385c-9.87829,0.85576 -20.15412,0.14514 -28.27665,-4.51841c0,0 -4,-2.33922 -1,-5.45817c3,-3.11896 7,-0.77974 7,-0.77974c5.86997,3.52291 14.09886,3.62009 21.29127,2.99687c2.0636,-0.17881 4.01851,-0.85635 6.07776,-1.06338c0.38743,-0.03896 0.79814,-0.10719 1.20416,-0.14617c0.20896,-1.35232 0.51266,-2.82808 1.70254,-3.79193c2.65063,-2.1471 5.30662,-2.7218 7.85885,-2.36515l-0.00887,-0.02658c0,0 0,-3.68042 4.58603,-3.88944c-1.39123,-0.41353 -3.72681,-1.52665 -3.14112,-4.26679c0.822,-3.84565 5.75397,-3.20471 5.75397,-3.20471c4.10146,0.53351 7.41679,1.19966 11.23938,2.33635c2.1501,0.63935 4.55543,0.31232 6.53855,1.4822c5.25571,3.10043 3.29138,8.28916 10.23717,9.57778l2.8313,-0.02921c0,0 1.42756,0 2.75709,0.59478c2.14954,-0.44155 4.14706,0.59681 4.14706,0.59681c2.05534,1.06909 3.78604,2.6448 6.13405,3.24432c1.70439,0.43518 3.5954,0.14006 5.35401,0.41431l4.32641,-0.01897c0,0 1.96381,0 3.42996,0.95966c1.8771,-1.38712 4.66715,-0.84325 4.66715,-0.84325c4.56471,0.89955 9.41264,1.32112 14.12883,0.97619c3.40673,-0.24917 7.58693,-1.29297 11.02359,-0.35572c4.75955,1.29803 8.30545,4.93663 13.4004,5.8212l2.40028,0.832c0,0 1.59305,0.62109 2.40217,1.86325c0.00928,-2.14701 2.2443,-3.88527 4.99998,-3.88527zM366.04523,152.99782c-2.65103,-0.76385 -4.6793,-1.24159 -7.20741,-1.6425c0.80133,0.38385 1.31582,0.92266 1.64614,1.4563c0.60071,0.06209 1.21036,0.15043 1.78846,0.14626c0,0 5,0 5,3.8987c0,0.32229 -0.03417,0.61794 -0.09686,0.88915c0.26572,-0.37778 0.42967,-0.88199 0.63199,-1.42033l-0.20848,0.53117c0,0 0,-2.31741 2.29136,-3.37888c-1.23183,-0.27023 -2.63319,-0.13065 -3.8452,-0.47987z" fill="#ffde00" stroke-width="0.5"/><path d="M379.3026,179.40244c0,-3.8987 5,-3.8987 5,-3.8987h0.32665c11.65956,0.01616 23.13895,-1.57367 34.78396,-1.61042c0,0 5,0 5,3.8987c0,3.8987 -5,3.8987 -5,3.8987c-11.6333,-0.04756 -23.12416,1.59554 -34.78396,1.61042h-0.32665c0,0 -5,0 -5,-3.8987z" fill="#ffde00" stroke-width="0.5"/><path d="M-8.11898,189.74281c-0.68548,0.32494 -1.57934,0.53681 -2.7449,0.53681c-5,0 -5,-3.8987 -5,-3.8987l5,-4.43551c9.40873,0 18.81746,0 28.22618,0c0,0 5,0 5,3.8987c0,3.8987 -5,3.8987 -5,3.8987c-8.49376,0 -16.98752,0 -25.48127,0z" fill="#ffde00" stroke-width="0.5"/><path d="M46.45782,178.32883c0,3.8987 -5,3.8987 -5,3.8987l-5.86199,-0.00981c-7.63676,-0.84318 -14.26734,-1.02383 -21.15804,-3.62262c0,0 -4.47214,-1.74355 -2.23607,-5.23065c2.23607,-3.4871 6.70821,-1.74355 6.70821,-1.74355c5.35053,2.18615 11.40312,2.14536 17.39479,2.81905l5.1531,-0.0098c0,0 5,0 5,3.8987z" fill="#ffb800" stroke-width="0.5"/><path d="M30.95028,165.98229c0,-3.8987 5,-3.8987 5,-3.8987c9.44098,0 20.46441,0 30.29995,0c0.91229,-2.68403 4.81065,-2.68403 4.81065,-2.68403c2.72309,0 5.44618,0 8.16927,0c6.33162,-1.31149 12.65628,-2.67791 19.07633,-3.68193c0,0 4.9029,-0.7646 5.88348,3.05839c0.05582,0.21762 0.09257,0.42532 0.11225,0.62355h2.55772c0,0 5,0 5,3.8987c0,2.27409 -1.70115,3.22171 -3.11892,3.61659h0.18425c0,0 5,0 5,3.8987c0,3.8987 -5,3.8987 -5,3.8987c-2.52429,0 -9.86769,0 -12.39198,0c0,0 -5,0 -5,-3.8987c0,-2.27409 1.70116,-3.22171 3.11892,-3.61659c-4.68034,0 -9.52395,0 -14.1243,0c-0.67893,0.13999 -1.35798,0.27894 -2.03728,0.41626l-2.77485,0.54095c0,0 -0.46504,0.09065 -1.14312,0.10355c-1.41227,1.62328 -4.20022,1.62328 -4.20022,1.62328c-10.78561,0 -21.57122,0 -32.35683,0h-2.06533c0,0 -5,0 -5,-3.8987z" fill="#ffb800" stroke-width="0.5"/><path d="M182.04255,172.90753c-0.62017,3.86859 -5.58156,3.38502 -5.58156,3.38502l-5.88723,-0.58544c-12.59268,-2.82092 -26.65319,-1.53167 -39.6183,-1.53167c0,0 -5,0 -5,-3.8987c0,-3.8987 5,-3.8987 5,-3.8987c13.65938,0 28.34686,-1.25165 41.61801,1.68916l5.12787,0.48816c0,0 4.96139,0.48358 4.34121,4.35217z" fill="#ffb800" stroke-width="0.5"/><path d="M259.0096,165.23708c-2.71936,0.96381 -4.55257,0.08506 -5.58787,-0.77868c-0.95484,-0.45767 -1.80169,-1.2635 -2.10156,-2.66643c-0.03294,-0.15411 -0.05665,-0.30308 -0.07179,-0.44706l-1.60603,-2.75503c-1.78769,-3.1003 -3.4866,-6.32761 -6.24431,-8.96031c0,0 -3.12348,-3.04437 0.78087,-5.47987c3.90435,-2.4355 7.02782,0.60887 7.02782,0.60887c3.20702,3.17525 5.37732,6.93135 7.5393,10.60472l0.81889,1.40475c2.26463,-0.2943 4.52927,-0.5886 6.7939,-0.88291c1.13482,-0.64361 3.82206,-1.73346 6.50929,0.36188c3.53553,2.7568 0,5.51359 0,5.51359l-3.40198,1.62566c-3.02022,0.3925 -6.04045,0.785 -9.06068,1.1775c-0.37581,0.24694 -0.8357,0.47479 -1.39584,0.67332z" fill="#ffb800" stroke-width="0.5"/><path d="M418.90567,177.79202c0,3.8987 -5,3.8987 -5,3.8987h-8.58797c-8.70407,-0.00005 -17.2936,-0.06304 -25.97618,0.51345c-10.39763,0.69037 -21.07939,2.38765 -31.39285,3.72795c0,0 -4.93197,0.64094 -5.75396,-3.20471c-0.822,-3.84565 4.10998,-4.48659 4.10998,-4.48659c1.95828,-0.25449 3.92824,-0.52097 5.9061,-0.79072c-1.25373,-0.48587 -2.51123,-1.46054 -2.51123,-3.41573c0,-3.8987 5,-3.8987 5,-3.8987c3.61229,0 7.22458,0.00137 10.83686,0.00248l9.4602,-0.52937c0,0 4.98729,-0.27777 5.34353,3.61102c0.03733,0.4075 0.01598,0.77536 -0.05215,1.10739c8.35848,-0.47492 16.63724,-0.43382 25.02972,-0.43386h8.58797c0,0 5,0 5,3.8987z" fill="#ffb800" stroke-width="0.5"/><path d="M322.85024,158.467c0,-3.8987 5,-3.8987 5,-3.8987h3.08042c9.08538,0.003 18.19255,0.17324 27.22169,1.11191c5.89366,0.6127 11.66228,1.81222 17.49262,2.72145c0,0 4.9029,0.7646 3.92233,4.58759c-0.98058,3.82299 -5.88349,3.05839 -5.88349,3.05839c-14.3737,-2.24155 -28.07022,-3.68698 -42.75315,-3.68193h-3.08042c0,0 -5,0 -5,-3.8987z" fill="#ffb800" stroke-width="0.5"/><path d="M226.64908,188.6692h-8.94976c-8.90595,0 -17.80919,-0.03004 -26.71113,-0.07591c-0.48617,3.29674 -4.95727,3.29674 -4.95727,3.29674c-9.19096,0 -26.6081,0 -35.79906,0c0,0 -4.74157,0 -4.98989,-3.60037c-13.47824,-0.0884 -26.95907,-0.15727 -40.44737,-0.15727c0,0 -5,0 -5,-3.8987c0,-3.8987 5,-3.8987 5,-3.8987c34.15462,0 68.26148,0.44158 102.39982,0.52374c0.01292,-0.37214 0.07262,-0.70729 0.16969,-1.00914c-3.89217,0.14219 -7.78926,0.22963 -11.69499,0.23069c0,0 -5,0 -5,-3.8987c0,-3.8987 5,-3.8987 5,-3.8987c15.20998,0.00428 30.29715,-1.34931 45.46769,-2.08921l1.03457,-0.05042c0,0 4.99026,-0.24319 5.30215,3.64791c0.12933,1.61352 -0.65304,2.59977 -1.61325,3.20155c25.15399,-0.15835 50.30989,-0.41537 75.46731,-0.41537h3.76887c0,0 5,0 5,3.8987c0,3.8987 -5,3.8987 -5,3.8987h-3.76887c-29.89563,0 -59.78892,0.36197 -89.67954,0.49144c-0.08113,3.80301 -4.99899,3.80301 -4.99899,3.80301z" fill="#ffb800" stroke-width="0.5"/><path d="M251.94059,191.74898c0,-3.8987 5,-3.8987 5,-3.8987c29.15582,0 67.22625,0 96.38206,0c0,0 5,0 5,3.8987c0,3.8987 -5,3.8987 -5,3.8987c-29.15582,0 -58.31163,0 -87.46744,0h-8.91462c0,0 -5,0 -5,-3.8987z" fill="#ffb800" stroke-width="0.5"/><path d="M-7.60255,188.52815c0,-3.8987 5,-3.8987 5,-3.8987c32.58632,0 65.17264,0 97.75896,0c0,0 5,0 5,3.8987c0,3.8987 -5,3.8987 -5,3.8987c-32.58632,0 -65.17263,0 -97.75895,0c0,0 -5,0 -5,-3.8987z" fill="#ffb800" stroke-width="0.5"/></g></g></svg>