<svg version="1.1" xmlns="http://www.w3.org/2000/svg" xmlns:xlink="http://www.w3.org/1999/xlink" width="507.15326" height="87.55365" viewBox="0,0,507.15326,87.55365"><g transform="translate(14.8798,-175.73019)"><g data-paper-data="{&quot;isPaintingLayer&quot;:true}" fill-rule="nonzero" stroke="none" stroke-width="0.5" stroke-linecap="butt" stroke-linejoin="miter" stroke-miterlimit="10" stroke-dasharray="" stroke-dashoffset="0" style="mix-blend-mode: normal"><path d="M-12.28093,231.42835c-3.63252,-2.89399 -2.50165,-11.08845 -2.16968,-14.67649c0.75358,-8.14501 5.11778,-17.13021 15.08904,-19.01834c3.13825,-0.59425 8.29178,0.26601 10.80654,-0.5131c0.98455,-0.30503 1.52235,-1.29562 2.41779,-1.77216c3.82652,-2.03643 9.27215,-1.38379 13.20678,0c5.80195,2.04052 12.004,9.08416 15.9154,11.27802c1.2251,0.68714 2.89705,-0.10789 4.33801,0c4.51378,0.33795 8.35075,1.58197 12.11255,3.66992c0.83873,0.46553 1.80585,0.73933 2.6098,1.25161c0.48991,0.31217 1.00713,1.6912 1.22122,1.18837c0.94029,-2.20846 -0.0053,-3.21137 0.3955,-5.28262c0.96529,-4.98832 2.7824,-8.71478 7.77243,-11.1037c2.03579,-0.97461 5.08834,-2.23713 7.51649,-1.65009c2.76307,0.66801 7.50063,1.63852 9.60875,3.50671c2.8432,2.51961 5.08899,7.25283 10.18049,6.51205c0.3293,-0.04791 0.43214,-0.46802 0.55329,-0.74609c0.90901,-2.08638 2.34164,-3.67979 4.01147,-5.40935c0.28281,-0.29293 1.83041,-0.67013 1.83175,-0.6747c1.95058,-6.62892 5.57776,-10.61094 14.31823,-10.61094c6.96311,0 17.98576,5.77602 21.31837,10.78685c0.89588,1.34703 0.75689,3.57456 1.39551,4.59438c0.84218,1.34488 7.34934,9.03856 8.77466,10.28548c2.4697,2.16057 8.21067,5.36066 9.96196,6.26542c1.45043,0.74934 3.11393,1.11237 4.61858,1.77062c0.79361,0.34719 2.2036,1.91832 2.3264,1.13573c1.7747,-11.30992 19.97287,-17.21493 30.64458,-12.44185c5.03119,2.25027 8.80955,5.87057 11.91862,10.01883c0.84268,1.12434 0.38049,3.38511 2.58814,3.77006c1.10029,0.19186 2.04286,-0.8473 3.12247,-1.11726c0.92261,-0.2307 2.78993,0.48657 2.84419,-0.369c0.54022,-8.51811 8.19644,-11.32677 16.5024,-11.6445c0.5805,-0.0222 -0.091,-1.0497 0.02444,-1.55909c0.55523,-2.45013 0.36082,-5.34807 2.1875,-7.2401c2.23615,-2.31614 5.88006,-3.48823 6.57824,-4.11276c0.429,-0.38375 0.09388,-1.13468 0.44143,-1.57951c1.21426,-1.55409 2.31592,-3.36422 4.15625,-4.30493c5.10417,-2.60905 11.08333,-2.60905 16.1875,0c9.46688,4.83909 3.28332,11.15099 6.02365,16.55656c0.85576,1.68806 2.61271,2.94399 3.37603,4.71551c0.30331,0.70392 0.74484,3.04572 1.18585,3.45382c1.37406,1.27149 1.59611,-1.79936 1.7103,-2.34619c0.69409,-3.32387 1.66848,-8.23802 4.91378,-10.28199c1.3642,-0.85921 3.99995,-2.5343 5.67685,-2.56278c2.40471,-0.04084 4.81331,-0.10779 7.21543,0c0.62156,0.02789 1.23328,0.61141 1.81129,0.40506c0.59404,-0.21207 0.59534,-1.03783 1.06071,-1.43033c1.57216,-1.32596 5.62358,-2.5456 7.86423,-2.39142c12.10065,0.83265 17.84557,8.91703 26.27338,16.21053c2.27051,1.96492 3.24249,1.71362 6.27941,2.2986c0.90407,0.17415 2.87492,1.58301 2.632,0.7848c-0.36197,-1.1894 -2.24074,-1.47453 -3.12877,-2.41713c-1.39461,-1.48031 -2.93641,-7.12407 -2.37256,-8.99031c0.57225,-1.894 0.86087,-4.06839 2.37256,-5.4899c4.52664,-4.25661 7.31796,-4.80164 13.46965,-6.0245c1.12092,-0.22282 2.77121,0.52746 3.70069,0c1.34354,-0.76243 1.81396,-2.41849 3.11991,-3.23151c4.37974,-2.72664 11.88615,-2.73062 16.1875,0c2.72542,1.73017 4.29803,4.58807 6.65094,6.7111c3.79689,3.42593 6.24238,4.95659 9.97067,9.04674c1.88312,2.06589 3.79453,7.0284 6.88426,8.23748c2.62014,1.02531 6.48507,2.65058 9.34996,2.21294c0.72756,-0.11115 0.27925,-1.32452 0.65779,-1.89132c0.59108,-0.88507 1.37842,-1.65303 2.09465,-2.46076c1.9011,-2.14399 5.20862,-4.28942 8.10019,-4.93607c9.49423,-2.12322 18.71668,-2.5247 28.11239,0.47699c4.88266,1.55989 8.37829,6.72319 12.28798,9.54731c0.00796,0.00575 7.22646,-1.39806 8.88357,-1.47733c9.39733,-0.44953 18.97145,2.44473 18.97145,12.52342c0,9.4432 -6.42694,10.37735 -14.39456,12.52342c-8.91352,2.40086 -17.95071,4.47511 -26.70754,7.29994c-1.54319,0.49781 -11.95524,6.30707 -16.30674,6.40866c-2.54576,0.05943 -5.09412,0.05943 -7.63987,0c-3.58112,-0.08361 -8.36632,-3.27476 -11.26353,-4.48275c-5.09845,-2.12581 -10.81651,-4.6055 -15.96853,-6.26111c-1.66263,-0.53428 -4.52027,0.67245 -6.23388,0.74118c-13.07164,0.52428 -25.77362,1.0122 -38.94302,0.74118c-8.48707,-0.17466 -19.84692,-6.6023 -28.19574,-6.67066c-6.43374,-0.05268 -13.16201,1.02015 -18.79673,4.05197c-3.89486,2.09568 -8.0084,5.14657 -13.1941,5.00779c-2.30335,-0.06164 -4.58884,-0.44175 -6.84743,-0.85064c-1.08559,-0.19653 -1.97893,-1.56574 -3.04726,-1.66079c-2.79475,-0.24866 -11.81477,-0.0069 -16.62234,-1.1007c-4.52926,-1.03048 -8.84594,-3.2828 -13.51918,-3.32343c-1.32235,-0.01149 -1.59685,1.95459 -2.71252,2.58968c-1.03039,0.58654 -4.95407,1.82842 -6.15229,2.05531c-2.76604,0.52377 -7.62794,-0.05386 -9.87587,0.64266c-3.64462,1.12928 -5.66029,4.71476 -8.78883,6.73274c-4.84246,3.12352 -10.90897,4.30088 -16.47057,5.88231c-2.42524,0.68961 -4.62313,2.34818 -7.31351,2.94983c-17.94225,4.01247 -38.71438,-3.92938 -56.24243,-5.18829c-1.81388,-0.13028 -3.41155,2.13993 -4.79357,2.88168c-2.74202,1.47169 -6.44634,1.63327 -9.62955,1.63327c-6.79499,0 -13.60809,-3.3425 -19.95589,-5.12985c-7.80661,-2.1981 -18.28194,-5.56481 -27.19538,-6.05577c-6.63087,-0.36524 -11.82215,2.3406 -18.16232,2.96474c-19.24193,1.89421 -39.80515,2.10801 -58.82882,1.48237c-8.05092,-0.26477 -14,-5.04188 -14,-12.52342c0,-5.61475 0.14966,-5.66578 2.40904,-7.41125z" fill="#ffad00"/><path d="M5.51338,212.82778c-1.19406,-0.21687 -2.39416,-0.38923 -3.59885,-0.52548c0.35885,-0.86364 0.91303,-1.38003 2.77492,-0.65909c0.71831,0.27813 1.36131,0.79179 1.96171,1.42676c-0.45584,-0.10678 -0.84846,-0.18964 -1.13778,-0.24219zM179.16058,217.14713c-0.15538,-0.09501 -0.30898,-0.19269 -0.46096,-0.29281c0.58356,-0.21407 1.09173,-0.51177 1.38925,-1.03255c0.55202,-0.96627 0.47929,-7.11175 0.47189,-8.91895c-0.00284,-0.69421 -0.01515,-1.38845 -0.02527,-2.08268c0.06585,-0.08262 0.13152,-0.16575 0.19723,-0.24899c0.38176,0.89222 1.26762,1.51737 2.29949,1.51737c0.4199,0 0.81561,-0.10351 1.16302,-0.28642l3.00515,-1.50258c0.25211,0.08549 0.52228,0.13185 0.80328,0.13185c0.93831,0 1.75588,-0.51692 2.18348,-1.28153c0.94121,-0.18757 1.88294,-0.36374 2.82764,-0.5204l1.01434,2.02867c0.40086,0.84562 1.26228,1.43041 2.26029,1.43041c0.65428,0 1.24986,-0.25135 1.69545,-0.66275c0.51301,0.43674 1.04848,0.84814 1.59154,1.25117c0.13589,0.60337 0.14558,1.27585 0.52627,1.74337c0.74815,0.91879 1.98402,1.30647 2.88752,2.07302c0.67048,0.56884 1.32496,1.15977 1.98515,1.74336c0.45758,1.30986 1.38671,2.40323 3.25241,2.91761c0.16685,0.046 0.34929,0.05629 0.54416,0.0367l1.84524,1.23016c0.40239,0.2768 0.88987,0.43883 1.41519,0.43883c1.38071,0 2.5,-1.11929 2.5,-2.5c0,-0.69036 -0.27982,-1.31536 -0.73223,-1.76777l-0.19964,-0.19964c0.44852,-0.319 0.8541,-0.58975 1.18741,-0.75825c1.22291,-0.61822 2.59538,-0.89776 3.99139,-1.10951l-2.42362,1.81772c-0.62045,0.45492 -1.02328,1.18915 -1.02328,2.01746c0,1.38071 1.11929,2.5 2.5,2.5c0.52532,0 1.0128,-0.16202 1.41519,-0.43883l4.13181,-2.75454c0.47172,-0.18961 0.93788,-0.40829 1.39882,-0.65202c4.5067,-2.09183 8.4433,-4.75582 12.23236,-7.80924c4.04277,6.59849 8.05844,-4.82308 8.31579,-5.29183c0.37621,-1.04712 0.86301,-2.04764 1.37796,-3.03626c1.26354,-1.02626 2.57482,-2.08091 3.83552,-3.17742c0.92674,1.05446 2.33658,1.52442 4.56119,0.6533c2.0292,-0.79459 2.76861,-3.36992 4.04229,-5.13818c1.09795,-1.52429 3.08635,-4.06126 3.19714,-6.52177c1.75798,1.29469 4.20726,3.87641 4.42552,4.87684c0.0766,0.35109 -1.55829,5.2769 -1.6868,5.67512c0.06749,3.99531 0.98152,9.30895 5.65388,10.9959c0.37655,0.13595 0.7626,0.22226 1.15528,0.27393c0.01034,0.03351 0.02118,0.06726 0.03251,0.10126c0.07936,0.2381 0.17099,0.45168 0.2725,0.64311c-0.95476,2.22776 -0.59123,4.23974 3.81979,4.16745c-1.23818,1.14456 -2.29226,2.54556 -3.52243,3.70129c-1.88989,3.2078 -5.88662,4.03163 -9.41729,2.40782c-3.85176,-1.77148 -6.04777,-5.8335 -10.52275,-6.82471c-1.72064,-0.38112 -3.53491,-0.25547 -5.28667,-0.06259c-4.55631,0.50168 -4.45707,1.31107 -8.11141,3.88883c-2.60182,1.83532 -5.31841,3.50326 -7.93698,5.3146c-2.46579,1.70566 -4.61939,3.94587 -7.34908,5.18611c-6.45314,2.932 -13.13079,3.77235 -20.1199,3.81476c-1.17963,0.00716 -2.38448,0.30127 -3.5385,0.05669c-3.47471,-0.73643 -6.65061,-2.50336 -10.02746,-3.60464c-3.55595,-2.24987 -7.43,-3.96277 -11.02004,-6.15784zM282.46124,207.79568c-0.8071,0.01435 -1.66306,-0.11886 -2.48922,-0.13996c0.48836,-0.4923 0.95988,-1.02487 1.44706,-1.50492c0.35597,-0.05403 0.70621,-0.13304 1.04776,-0.24974c2.44005,-0.83372 4.60688,-2.34252 6.75773,-3.76477c1.59305,-1.0534 2.1957,-3.18701 3.67328,-4.39707c0.95561,-0.78259 2.36685,-0.86471 3.3143,-1.65715c2.05168,-1.71602 1.99688,-3.75056 4.99833,-4.19987c1.79917,-0.26933 3.01249,0.28539 3.97459,1.20468c0.45724,1.78026 1.43302,3.1263 3.01371,4.16672c1.35195,1.7918 3.10523,3.08239 6.61584,2.00982c0.3525,-0.10769 0.68375,-0.23164 0.99459,-0.37047c2.587,0.73645 5.09052,1.8692 7.76053,2.12973c1.16894,0.11407 2.36779,-0.34458 3.52132,-0.12363c0.58017,0.11113 1.05502,0.42562 1.48148,0.83626c-0.34189,0.37917 -0.70169,0.75535 -1.0871,1.1224c-2.69034,2.56223 -6.14635,4.19225 -9.02106,6.54576c-0.77991,0.63851 -1.20432,1.69816 -2.08305,2.19192c-1.24739,0.70091 -2.71253,0.91935 -4.09699,1.28064c-3.93186,1.02606 -8.36856,1.37559 -12.28761,0.03738c-1.86447,-0.63664 -10.34973,-4.69536 -11.91058,-5.05133c-1.82816,-0.41693 -3.7501,-0.0997 -5.62491,-0.06637zM431.49151,192.61331c0.80817,0.25507 1.48453,1.21845 2.0108,2.26485c-1.20807,-0.25427 -2.63415,-0.34472 -4.3833,-0.33965c-0.31009,0.0009 -0.62587,-0.01814 -0.94365,-0.0428c0.91136,-1.8744 1.17745,-2.55741 3.31615,-1.8824zM311.35734,190.48012c-0.11725,-0.8646 -0.13282,-1.75625 -0.32124,-2.60686c0.05703,0.14373 2.77323,2.87474 2.9487,4.29092c-0.62774,0.11062 -1.26523,0.25775 -1.72358,0.15976c-0.20714,-0.42266 -0.35792,-0.9527 -0.58142,-1.30965c-0.10986,-0.17547 -0.21658,-0.35425 -0.32246,-0.53418zM246.45615,185.56225c-0.97439,1.26074 -2.48517,2.06618 -3.3679,3.39286c-0.78255,1.17611 -0.69266,2.81128 -1.52088,3.95569c-0.57162,0.78987 -1.68264,0.99119 -2.47269,1.56256c-0.18515,0.13389 -0.36949,0.26891 -0.55308,0.40494c-0.00587,-0.51479 -0.01507,-1.09065 0.0007,-1.75578c1.11715,-4.59907 2.59982,-3.98904 6.36266,-6.51108c0.51846,-0.3475 1.03999,-0.69113 1.5512,-1.04919zM203.54901,203.43478c-0.05778,-0.17585 -0.13868,-0.33883 -0.26001,-0.47944c-0.37075,-0.42966 -0.76732,-0.84828 -1.18929,-1.24027c0.90276,-0.16121 1.78174,-0.25618 2.36486,0.32694c0.59446,0.59445 0.59389,1.44414 0.45784,2.35051c-0.46045,-0.31925 -0.92086,-0.63666 -1.37341,-0.95774zM253.10583,179.9595c-0.36221,-0.7278 -0.84605,-1.45217 -0.29048,-1.42765c0.49323,0.02177 0.78455,0.41594 1.04147,0.8945c-0.25917,0.1599 -0.50851,0.33978 -0.751,0.53315z" fill="#ff4b00"/><path d="M490.27227,205.58542c2.45145,0.49029 1.96116,2.94174 1.96116,2.94174l-0.86378,4.29425c-0.94569,2.7574 -1.60522,5.81171 -4.61252,7.39442c-0.60486,0.31833 -7.05468,0.26393 -8.51811,0.26393c-5.46858,0 -11.59567,0.74379 -17.02906,-0.03228c-3.48743,-0.49812 -7.5159,-2.05902 -10.92518,-2.87065c-1.8751,-2.51543 -4.14308,-4.75727 -5.74873,-7.45269c-2.03421,-3.41484 -3.53919,-9.88475 -8.68489,-10.35983c-0.71831,-0.06632 -1.29647,0.70455 -2.01184,0.79737c-1.40089,0.18177 -2.83316,-0.13581 -4.23787,0.01355c-3.13959,0.33382 -5.63242,1.98367 -8.46307,3.14273c-0.59714,0.24451 -1.4271,0.00752 -1.87812,0.46898c-0.64566,0.66061 -3.09618,5.8844 -3.25287,6.7828c-0.4195,2.40522 1.05063,9.18023 -1.27468,10.87136c-1.42853,1.03893 -3.39881,-1.00781 -5.00224,-1.74881c-2.77486,-1.28236 -4.97555,-3.69924 -7.8486,-4.74322c-1.7044,-0.61933 -3.79007,-0.08318 -5.34431,-1.01746c-1.64317,-0.98774 -2.45937,-2.94177 -3.68906,-4.41266c-4.92227,-4.93159 -7.70754,-10.6776 -11.92739,-16.09183c-0.91149,-1.16948 -1.80345,-2.35442 -2.67655,-3.55283c-0.76324,-1.04761 -1.06426,-2.62127 -2.23176,-3.18426c-1.1613,-0.56 -2.57101,0.21652 -3.85993,0.24674c-1.49931,0.03516 -3.02788,-0.34286 -4.49888,-0.05074c-1.42344,0.28267 -2.59047,1.36116 -3.99221,1.73693c-3.54315,0.94984 -5.5494,0.79701 -8.93754,0.79953c-4.03531,0.003 -8.08817,-0.08651 -12.12317,-0.01873c-0.61816,0.01038 -1.44448,-0.35134 -1.8512,0.11428c-0.49151,0.56269 -0.14632,1.48727 -0.19876,2.23256c-0.11172,1.58767 -0.19406,3.17728 -0.29368,4.76576c-0.44651,7.11954 -0.29403,13.67197 -3.08219,20.2947c-0.78468,1.32065 -0.86509,3.58397 -2.35404,3.96196c-4.05596,1.02965 -9.1573,-6.75886 -11.0386,-9.07546c-3.95984,-4.87608 -7.90885,-10.82145 -13.98423,-13.37446c-1.04984,-0.44117 -2.26875,-0.37735 -3.3143,-0.82857c-0.82346,-0.35538 -1.34009,-1.29187 -2.1988,-1.55071c-0.82726,-0.24936 -1.72591,0.0946 -2.58984,0.10727c-2.21121,0.03242 -4.74599,-0.95322 -6.63124,0.20277c-0.44835,0.27492 0.01111,1.07573 -0.17338,1.56824c-0.42211,1.12685 -1.19869,2.09861 -1.62214,3.22496c-1.09097,2.90189 -1.32862,8.56701 -4.34468,10.37359c-0.81097,0.48576 -7.50374,0.36286 -9.07581,0.35478c-4.63799,-1.13259 -10.0144,-0.55344 -12.67056,-5.44317c-2.28849,-4.21289 -0.36652,-5.48214 -1.06652,-9.75707c-0.32853,-2.00633 -3.12676,-4.9534 -4.1588,-6.09271c-1.00269,-1.10692 -2.03941,-2.1875 -3.14738,-3.18903c-0.51258,-0.46333 -1.00634,-1.20226 -1.69718,-1.19009c-0.58833,0.01037 -0.78825,0.88291 -1.25432,1.24211c-0.66255,0.51063 -1.51853,0.76513 -2.11329,1.35333c-0.8349,0.82568 -1.05517,2.30312 -2.10857,2.82193c-3.07851,1.51618 -6.84692,0.53141 -10.24568,1.00517c-0.34477,0.04806 -0.46085,0.54003 -0.5844,0.86547c-1.24247,3.27276 -1.98817,6.63854 -2.99174,9.97302c-0.99501,3.30603 -1.82603,5.64508 -5.58647,7.41075c-1.53976,0.72298 -3.39972,0.12687 -5.09958,0.1903c-0.59192,-0.1765 -1.26355,-0.87467 -1.77577,-0.52949c-0.45698,0.30796 0.10321,1.09829 0.11416,1.64924c0.0226,1.13622 0.16752,2.28737 -0.01355,3.4093c-0.44459,2.75469 -4.39827,9.9464 -6.48246,11.02357c-1.45964,0.75438 -3.26481,-0.39768 -4.87735,-0.71292c-4.45603,-0.87111 -9.47734,-3.8113 -12.18461,-7.58028c-1.8512,-2.57719 -3.00488,-5.59456 -4.67883,-8.29025c-0.87427,-1.4079 -1.82931,-2.76586 -2.66937,-4.19443c-0.64367,-1.0946 -0.74593,-2.62952 -1.77825,-3.36898c-0.78753,-0.56412 -4.01931,0.8339 -4.72661,1.03736c-4.72643,1.35962 -8.05375,4.38702 -12.71458,5.62987c1.01512,4.51722 0.9399,10.62934 -0.49121,15.01499c-0.63557,1.94769 -1.00314,4.33859 -2.66311,5.5394c-1.47189,1.06475 -3.66042,0.68597 -5.44033,0.32256c-2.33982,-0.47772 -5.23034,-4.1711 -6.71357,-5.47555c-1.12666,-0.99086 -2.58184,-1.61257 -3.5697,-2.74187c-0.88294,-1.00936 -1.05774,-2.50861 -1.92095,-3.5349c-1.43149,-1.70192 -3.88917,-2.16761 -5.73999,-3.40055c-1.33293,-0.88794 -2.30556,-2.23306 -3.57164,-3.21397c-1.73996,-1.34806 -6.35717,-3.90024 -7.85063,-5.62414c-2.3975,-2.76742 -3.85377,-7.01441 -5.8994,-10.0701c-1.93687,-2.89323 -5.87301,-5.02546 -8.3328,-7.58803c-2.13587,-0.4814 -6.42215,-3.09312 -8.21992,-1.70291c-2.99009,2.31223 -3.13374,5.64341 -4.46451,8.91632c-0.05519,0.13573 -4.59403,9.21457 -4.66609,9.3286c-1.72512,2.72967 -3.47963,5.57488 -7.2753,5.32226c-1.49295,-0.09936 -2.70823,-1.27636 -4.09379,-1.84116c-6.76195,-2.75638 -11.52687,-7.75749 -13.84362,-14.77633c-0.69581,-2.10803 -0.94862,-4.37071 -0.95687,-6.59059c-0.00616,-1.65714 -0.11432,-3.31825 0,-4.97145c0.09208,-1.33151 0.87392,-2.45189 0.34611,-1.665c-0.79122,0.66357 -0.94627,1.83592 -1.40034,2.76337c-0.80462,1.64344 -2.07649,3.18554 -2.25024,5.0071c-0.40828,4.28015 0.57363,8.02563 -1.00015,12.2513c-0.66731,1.79175 -2.74589,2.88985 -3.23127,4.7392c-0.25921,0.98763 0.28923,2.0671 0.06216,3.06261c-0.73622,3.22773 -4.10936,11.40754 -7.53924,12.69408c-2.04949,0.76876 -7.14976,-2.6276 -8.74724,-3.27655c-0.66252,-0.26914 -1.52332,-0.81856 -2.10672,-0.40502c-0.71253,0.50509 -0.04339,2.10323 -0.82857,2.48572c-1.55682,0.75839 -3.45105,0.5865 -5.17653,0.43961c-3.67196,-0.31258 -5.2659,-3.4323 -8.5742,-4.62383c-0.55238,-0.82857 -0.87967,-1.86349 -1.65715,-2.48572c-0.67319,-0.53877 -1.78635,-0.26605 -2.45752,-0.80735c-0.96273,-0.77645 -1.34814,-2.09708 -2.22511,-2.96923c-1.13204,-1.12582 -2.56188,-1.91279 -3.75294,-2.97597c-1.81164,-1.61713 -2.99315,-3.8179 -5.53568,-4.40115c-3.12348,-0.71652 -6.63126,0.07302 -9.53227,1.03767c-1.48504,0.49381 -3.10976,0.58472 -4.52439,1.25407c-1.14985,0.54406 -1.97318,1.61195 -3.0298,2.32026c-2.54471,1.70588 -5.36643,3.16289 -7.39255,5.4608c-4.14224,4.69787 -6.25879,10.61343 -8.20362,16.4562c0,0 -0.79057,2.37171 -3.16228,1.58114c-2.37171,-0.79057 -1.58114,-3.16228 -1.58114,-3.16228c2.16197,-6.47727 4.57842,-13.01509 9.20881,-18.19554c2.3198,-2.59538 5.43924,-4.36034 8.33801,-6.28766c1.24076,-0.82495 2.25395,-2.00979 3.5988,-2.65119c1.59619,-0.76127 3.41351,-0.93288 5.09085,-1.49315c3.7103,-1.23932 8.3791,-2.22847 12.33834,-1.18657c4.3022,1.13216 4.55204,2.71744 7.72152,5.54175c1.29668,1.15547 2.83122,2.0393 4.05575,3.27098c0.67035,0.67426 0.8211,1.79332 1.56625,2.38387c0.69324,0.54942 1.8231,0.29736 2.51393,0.8498c0.77773,0.62193 1.10477,1.65715 1.65715,2.48572c2.71715,0.81984 3.72767,2.86097 6.34015,3.66192c0.48351,0.14824 1.07564,0.77733 1.45207,0.43961c0.65011,-0.58325 0.02118,-2.15266 0.82857,-2.48572c1.90812,-0.78713 4.1468,-0.76629 6.17903,-0.40502c1.78158,0.31672 3.29327,1.50743 4.88312,2.37157c0.47314,0.25717 0.8084,1.23308 1.284,0.98048c0.72962,-0.38751 0.71105,-1.49149 1.07478,-2.23326c0.68485,-1.39665 2.67842,-5.19057 2.98604,-6.61562c0.25085,-1.16208 -0.2822,-2.42811 0.06216,-3.56599c0.60004,-1.9827 2.66381,-3.26641 3.39733,-5.2037c1.34282,-3.54648 0.20989,-7.31601 0.657,-10.9488c0.29042,-2.35968 1.6436,-4.4737 2.72121,-6.59295c0.46863,-0.92162 0.37677,-2.15402 1.0876,-2.90483c1.12261,-1.18576 2.76044,-1.74503 4.14066,-2.61755c1.61522,0.61489 3.7634,0.49718 4.84566,1.84468c1.00178,1.24729 0.39454,3.17817 0.47189,4.77608c0.1271,2.62538 -0.39618,5.28215 -0.03228,7.88529c1.00876,7.21614 7.69993,13.14624 14.281,15.30682c1.26278,0.41457 2.00589,-1.81083 2.6676,-2.96349c2.39894,-4.17884 3.83564,-8.46559 5.60607,-12.87287c1.41458,-3.52145 4.38859,-8.43562 8.94918,-8.1986c3.30549,0.17179 6.33356,1.92824 9.52298,2.81334c3.00406,2.90738 7.48687,5.55842 9.89585,8.98347c2.06859,2.9411 3.39753,7.09115 5.70065,9.8157c1.85542,2.19493 4.83329,3.12535 7.09847,4.89432c1.08937,0.85073 1.87246,2.07192 3.02221,2.83908c0.70343,0.46936 1.69949,0.33105 2.41185,0.78674c1.6668,1.06624 3.30174,2.2487 4.6283,3.71681c0.882,0.97611 1.0103,2.4799 1.87041,3.47535c1.82576,2.11305 4.25912,3.6149 6.32017,5.49916c0.78676,0.71928 2.16905,2.36948 2.81348,1.52034c0.56877,-0.74944 0.47323,-1.8225 0.65119,-2.74635c1.05061,-5.45408 0.66274,-10.95006 1.16594,-16.47086c5.40197,-2.63696 9.63838,-5.97453 15.45697,-7.62733c2.72134,-0.77301 5.5247,-2.34018 8.53059,-0.61979c1.79676,1.02835 2.43154,3.35222 3.59051,5.06763c3.7524,5.55402 5.8612,11.95606 11.50757,15.75813c1.5088,1.01598 3.30305,1.53875 5.01961,2.14049c0.62586,0.21939 1.21366,1.33259 1.75125,0.94423c0.92888,-0.67102 0.79583,-2.15622 1.32991,-3.17005c0.91471,-1.73637 1.90222,-2.10752 2.13053,-4.03503c0.31914,-2.69432 -0.93155,-5.96214 1.75776,-8.19866c1.2511,-1.04046 3.23522,-0.35299 4.85283,-0.52949c1.06206,0.06343 2.19809,0.58487 3.18617,0.1903c1.90342,-0.76008 2.2665,-2.5674 2.69928,-4.1893c0.90518,-3.39221 1.76599,-8.12963 3.48484,-11.11387c3.23155,-5.61057 7.94533,-1.2405 12.44309,-3.54371c0.74633,-0.38218 0.69041,-1.57116 1.28469,-2.16268c0.61776,-0.61489 6.03586,-4.03641 6.57529,-4.03316c1.78979,0.01077 3.45019,1.11952 4.93142,2.12421c3.543,2.40315 8.37384,7.91052 9.26532,12.26121c0.55643,2.71554 -0.55653,5.7791 0.59063,8.47158c1.15121,2.70199 6.40827,2.21555 8.87239,2.84258c1.00333,-0.0062 2.00849,-0.07945 3.00999,-0.01859c0.94928,0.05768 1.98045,0.8037 2.82855,0.37337c0.6671,-0.33849 0.4337,-1.43194 0.66178,-2.14438c0.60334,-1.88465 0.92874,-3.85728 1.62214,-5.71068c0.44397,-1.1867 1.15644,-2.25545 1.69216,-3.40364c0.52325,-1.12147 0.4646,-2.70123 1.48377,-3.40321c2.74174,-1.88845 10.70865,-2.24537 13.97902,-1.34711c1.05622,0.29011 1.76489,1.33443 2.77265,1.76359c1.04772,0.44618 2.2704,0.37353 3.3143,0.82857c5.16325,2.25069 9.53942,6.82527 12.92496,11.09909c2.29372,2.89553 3.61621,4.65727 6.05416,7.46075c0.62211,0.71539 1.38708,1.31597 1.98501,2.04678c2.3451,-5.8477 2.07274,-11.83487 2.48228,-18.15895c0.14171,-2.18829 0.12825,-8.35074 1.9452,-10.21412c1.16829,-1.19814 3.12741,-1.26358 4.7774,-1.54287c3.8028,-0.64368 8.89727,-0.02171 12.73408,-0.01873c6.26808,0.00486 11.20961,-2.59147 17.42862,-2.48572c2.01002,0.03418 4.21717,-0.63071 6.02587,0.24674c1.10972,0.53835 5.60319,6.7749 6.69174,8.17726c4.15342,5.35076 6.86743,10.99814 11.71518,15.83648c0.83236,1.14354 1.27263,2.72264 2.49707,3.43062c1.31669,0.76133 3.09037,0.10642 4.51963,0.62653c1.67119,0.60815 3.07494,1.78773 4.60512,2.69397c0.88098,0.52175 1.8502,0.93081 2.7379,1.44544c-0.49598,-3.67559 0.29946,-6.18817 2.02655,-9.52768c0.90302,-1.74608 1.76016,-3.59899 3.15969,-4.9794c0.7864,-0.77565 2.08383,-0.7399 3.09333,-1.18817c3.21965,-1.42969 6.17169,-3.07068 9.76558,-3.48587c1.34038,-0.15485 2.70831,0.17532 4.04788,0.01355c1.01991,-0.12317 1.94276,-1.00606 2.95961,-0.85978c5.02871,0.72343 8.83239,4.4921 11.2203,8.73128c0.72364,1.28466 0.88631,2.84039 1.63775,4.10898c1.21655,2.05381 3.00675,3.73372 4.19417,5.80451c3.04255,0.4343 5.99381,1.67688 8.96062,2.1008c5.1544,0.7365 11.03545,-0.03228 16.22814,-0.03228c2.09586,0 4.36887,1.11974 6.28204,0.26393c0.9944,-0.44482 1.71656,-3.26556 2.01608,-4.20563l0.79337,-3.9915c0,0 0.49029,-2.45145 2.94174,-1.96116z" fill="#ff0000"/></g></g></svg>