<svg version="1.1" xmlns="http://www.w3.org/2000/svg" xmlns:xlink="http://www.w3.org/1999/xlink" width="761.57954" height="558.49786" viewBox="0,0,761.57954,558.49786"><g transform="translate(135.78977,94.24893)"><g data-paper-data="{&quot;isPaintingLayer&quot;:true}" fill-rule="nonzero" stroke="none" stroke-linecap="butt" stroke-linejoin="miter" stroke-miterlimit="10" stroke-dasharray="" stroke-dashoffset="0" style="mix-blend-mode: normal"><path d="M625.78977,185c0,154.22495 -170.48541,279.24893 -380.78977,279.24893c-210.30436,0 -380.78977,-125.02398 -380.78977,-279.24893c0,-154.22495 170.48541,-279.24893 380.78977,-279.24893c210.30436,0 380.78977,125.02398 380.78977,279.24893z" fill="#9c9c9c" stroke-width="0"/><path d="M265.28482,124.7224c0,19.03349 -15.30112,34.46319 -34.17599,34.46319c-18.87488,0 -34.17599,-15.4297 -34.17599,-34.46319c0,-19.03349 15.30112,-34.46319 34.17599,-34.46319c18.87488,0 34.17599,15.4297 34.17599,34.46319z" fill="#ffffff" stroke-width="0"/><path d="M283.16796,125.0096c0,13.79928 -11.97529,24.98581 -26.74755,24.98581c-14.77226,0 -26.74755,-11.18653 -26.74755,-24.98581c0,-13.79928 11.97529,-24.98581 26.74755,-24.98581c14.77226,0 26.74755,11.18653 26.74755,24.98581z" fill="#9c9c9c" stroke-width="0"/><path d="M234.03311,83.30527c-2.86492,3.21356 -7.01096,4.19293 -9.26045,2.18749c-2.24949,-2.00544 -1.75059,-6.23627 1.11433,-9.44983c2.86492,-3.21356 7.01096,-4.19293 9.26045,-2.18749c2.24949,2.00544 1.75059,6.23627 -1.11433,9.44983z" fill="#ffffff" stroke-width="0"/><path d="M273.03904,122.99924c-0.15861,0 -0.28719,-0.12858 -0.28719,-0.28719c0,-0.15861 0.12858,-0.28719 0.28719,-0.28719c0.15861,0 0.28719,0.12858 0.28719,0.28719c0,0.15861 -0.12858,0.28719 -0.28719,0.28719z" fill="#ffffff" stroke-width="0"/><text transform="translate(204.80002,132.60766) scale(0.81372,0.81372)" font-size="40" xml:space="preserve" fill="#ffc500" fill-rule="nonzero" stroke="none" stroke-width="1" stroke-linecap="butt" stroke-linejoin="miter" stroke-miterlimit="10" stroke-dasharray="" stroke-dashoffset="0" font-family="Marker" font-weight="normal" text-anchor="start" style="mix-blend-mode: normal"><tspan x="0" dy="0">S</tspan></text><path d="M119.797,254.18052v-27h135.33333v27z" fill="#ffffff" stroke-width="0"/></g></g></svg>