<svg version="1.1" xmlns="http://www.w3.org/2000/svg" xmlns:xlink="http://www.w3.org/1999/xlink" width="761.57954" height="558.49785" viewBox="0,0,761.57954,558.49785"><g transform="translate(161.95604,90.71595)"><g data-paper-data="{&quot;isPaintingLayer&quot;:true}" fill-rule="nonzero" stroke="none" stroke-linecap="butt" stroke-linejoin="miter" stroke-miterlimit="10" stroke-dasharray="" stroke-dashoffset="0" style="mix-blend-mode: normal"><path d="M599.6235,188.53298c0,154.22495 -170.48541,279.24893 -380.78977,279.24893c-210.30436,0 -380.78977,-125.02398 -380.78977,-279.24893c0,-154.22495 170.48541,-279.24893 380.78977,-279.24893c210.30436,0 380.78977,125.02398 380.78977,279.24893z" fill="#9c9c9c" stroke-width="0"/><path d="M283.93284,195.18559c0,33.13708 -26.63906,60 -59.5,60c-32.86094,0 -59.5,-26.86292 -59.5,-60c0,-33.13708 26.63906,-60 59.5,-60c32.86094,0 59.5,26.86292 59.5,60z" fill="#ffffff" stroke-width="0"/><path d="M315.06717,195.68559c0,24.02439 -20.84883,43.5 -46.56716,43.5c-25.71833,0 -46.56716,-19.47561 -46.56716,-43.5c0,-24.02439 20.84883,-43.5 46.56716,-43.5c25.71833,0 46.56716,19.47561 46.56716,43.5z" fill="#9c9c9c" stroke-width="0"/><path d="M229.52398,123.07885c-4.98779,5.59477 -12.206,7.29984 -16.12234,3.80839c-3.91634,-3.49145 -3.04775,-10.85728 1.94003,-16.45205c4.98779,-5.59477 12.206,-7.29984 16.12234,-3.80839c3.91634,3.49145 3.04775,10.85728 -1.94003,16.45205z" fill="#ffffff" stroke-width="0"/><path d="M297.43284,192.18559c-0.27614,0 -0.5,-0.22386 -0.5,-0.5c0,-0.27614 0.22386,-0.5 0.5,-0.5c0.27614,0 0.5,0.22386 0.5,0.5c0,0.27614 -0.22386,0.5 -0.5,0.5z" fill="#ffffff" stroke-width="0"/><text transform="translate(178.62951,208.91372) scale(1.41667,1.41667)" font-size="40" xml:space="preserve" fill="#ffc500" fill-rule="nonzero" stroke="none" stroke-width="1" stroke-linecap="butt" stroke-linejoin="miter" stroke-miterlimit="10" stroke-dasharray="" stroke-dashoffset="0" font-family="Marker" font-weight="normal" text-anchor="start" style="mix-blend-mode: normal"><tspan x="0" dy="0">S</tspan></text></g></g></svg>