<svg version="1.1" xmlns="http://www.w3.org/2000/svg" xmlns:xlink="http://www.w3.org/1999/xlink" width="43" height="43" viewBox="0,0,43,43"><g transform="translate(-218.5,-158.5)"><g data-paper-data="{&quot;isPaintingLayer&quot;:true}" fill-rule="nonzero" stroke="#000000" stroke-width="2" stroke-linejoin="miter" stroke-miterlimit="10" stroke-dasharray="" stroke-dashoffset="0" style="mix-blend-mode: normal"><path d="M219.5,180c0,-11.32184 9.17816,-20.5 20.5,-20.5c11.32184,0 20.5,9.17816 20.5,20.5c0,11.32184 -9.17816,20.5 -20.5,20.5c-11.32184,0 -20.5,-9.17816 -20.5,-20.5z" fill="#ffffff" stroke-linecap="butt"/><path d="M234.23397,191.98153c0,0 -2.70794,-2.45522 -4.02009,-6.00344c-0.68432,-1.85048 -0.94499,-3.74403 -1.08017,-5.79852c-0.08073,-1.22699 0.15701,-2.40434 0.35549,-3.51805c0.25071,-1.40673 1.04138,-2.90265 1.71699,-3.81888c0.53795,-0.72955 2.16513,-2.083 3.38222,-2.41741c2.42413,-0.66605 4.40149,-0.76037 7.52847,0.16305c1.60312,0.47341 3.40132,1.37722 4.69208,2.46207c1.79335,1.50726 2.8139,3.20895 2.8139,3.20895" fill="none" stroke-linecap="round"/><path d="M250.88247,168.01847l-0.55556,9l-8.55556,0.61111" fill="none" stroke-linecap="round"/><path d="M246.27136,176.79624l3.55556,-3.61111" fill="none" stroke-linecap="round"/><path d="M250.04913,171.51847l-4.66667,5.16667" fill="none" stroke-linecap="round"/></g></g></svg>