<svg version="1.1" xmlns="http://www.w3.org/2000/svg" xmlns:xlink="http://www.w3.org/1999/xlink" width="89.94081" height="71.69942" viewBox="0,0,89.94081,71.69942"><g transform="translate(-195.02959,-144.15029)"><g data-paper-data="{&quot;isPaintingLayer&quot;:true}" fill-rule="nonzero" stroke="none" stroke-linecap="butt" stroke-linejoin="miter" stroke-miterlimit="10" stroke-dasharray="" stroke-dashoffset="0" style="mix-blend-mode: normal"><g><path d="M195.0541,215.84971v-71.69942h89.89181v71.69942z" fill="#000000" stroke-width="none"/><path d="M195.0296,157.89519v-13.73627h89.94081v13.73627z" fill="#ffffff" stroke-width="0"/><path d="M196.50184,151.09046c0,-3.2524 2.63658,-5.88898 5.88898,-5.88898c3.2524,0 5.88899,2.63659 5.88899,5.88898c0,3.2524 -2.63659,5.88898 -5.88899,5.88898c-3.2524,0 -5.88898,-2.63658 -5.88898,-5.88898z" fill="#ff0000" stroke-width="0"/><path d="M209.35053,151.09046c0,-3.2524 2.63659,-5.88898 5.88898,-5.88898c3.2524,0 5.88898,2.63659 5.88898,5.88898c0,3.2524 -2.63658,5.88898 -5.88898,5.88898c-3.2524,0 -5.88898,-2.63658 -5.88898,-5.88898z" fill="#fff700" stroke-width="0"/><path d="M222.19922,151.09046c0,-3.2524 2.63658,-5.88898 5.88898,-5.88898c3.2524,0 5.88898,2.63659 5.88898,5.88898c0,3.2524 -2.63659,5.88898 -5.88898,5.88898c-3.2524,0 -5.88898,-2.63658 -5.88898,-5.88898z" fill="#00ff46" stroke-width="0"/><text transform="translate(197.0372,165.11169) scale(0.10892,0.10892)" font-size="40" xml:space="preserve" fill="#ffffff" fill-rule="nonzero" stroke="none" stroke-width="1" stroke-linecap="butt" stroke-linejoin="miter" stroke-miterlimit="10" stroke-dasharray="" stroke-dashoffset="0" font-family="&quot;ヒラギノ角ゴ Pro W3&quot;, &quot;Hiragino Kaku Gothic Pro&quot;, Osaka, &quot;メイリオ&quot;, Meiryo, &quot;ＭＳ Ｐゴシック&quot;, &quot;MS PGothic&quot;" font-weight="normal" text-anchor="start" style="mix-blend-mode: normal"><tspan x="0" dy="0">Why are you reading this text?</tspan></text><text transform="translate(197.0372,171.00067) scale(0.10892,0.10892)" font-size="40" xml:space="preserve" fill="#ffffff" fill-rule="nonzero" stroke="none" stroke-width="1" stroke-linecap="butt" stroke-linejoin="miter" stroke-miterlimit="10" stroke-dasharray="" stroke-dashoffset="0" font-family="&quot;ヒラギノ角ゴ Pro W3&quot;, &quot;Hiragino Kaku Gothic Pro&quot;, Osaka, &quot;メイリオ&quot;, Meiryo, &quot;ＭＳ Ｐゴシック&quot;, &quot;MS PGothic&quot;" font-weight="normal" text-anchor="start" style="mix-blend-mode: normal"><tspan x="0" dy="0">Makes me think if you were looking through</tspan><tspan x="0" dy="46.15px">the code...</tspan></text><text transform="translate(197.0372,181.97559) scale(0.10892,0.10892)" font-size="40" xml:space="preserve" fill="#ffffff" fill-rule="nonzero" stroke="none" stroke-width="1" stroke-linecap="butt" stroke-linejoin="miter" stroke-miterlimit="10" stroke-dasharray="" stroke-dashoffset="0" font-family="&quot;ヒラギノ角ゴ Pro W3&quot;, &quot;Hiragino Kaku Gothic Pro&quot;, Osaka, &quot;メイリオ&quot;, Meiryo, &quot;ＭＳ Ｐゴシック&quot;, &quot;MS PGothic&quot;" font-weight="normal" text-anchor="start" style="mix-blend-mode: normal"><tspan x="0" dy="0">I could not think of any commands, so</tspan><tspan x="0" dy="46.15px">I wrote this :)</tspan></text></g></g></g></svg>