<svg version="1.1" xmlns="http://www.w3.org/2000/svg" xmlns:xlink="http://www.w3.org/1999/xlink" width="123.84626" height="133.64761" viewBox="0,0,123.84626,133.64761"><g transform="translate(-182.09267,-82.2021)"><g data-paper-data="{&quot;isPaintingLayer&quot;:true}" fill-rule="nonzero" stroke-linejoin="miter" stroke-miterlimit="10" stroke-dasharray="" stroke-dashoffset="0" style="mix-blend-mode: normal"><path d="M183.63106,124.65308v-41.82466h121.5431v41.82466c0,0 -27.3697,0 -50.94432,0c-4.1584,0 -7.56977,14.78014 -11.32096,14.78014c-4.56722,0 -9.33478,-14.78014 -12.73608,-14.78014c-17.35582,0 -46.54173,0 -46.54173,0z" fill="#ffffff" stroke="none" stroke-width="0" stroke-linecap="butt"/><path d="M230.59288,124.26857h-47.25021v-40.81647h121.34626v40.81647h-50.93837" fill="none" stroke="#565656" stroke-width="2.5" stroke-linecap="butt"/><path d="M254.05958,124.42678l-11.07424,17.08596l-12.97267,-17.40237" fill="none" stroke="#565656" stroke-width="2.5" stroke-linecap="round"/><text transform="translate(189.01535,108.56961) scale(0.4932,0.4932)" font-size="40" xml:space="preserve" fill="#000000" fill-rule="nonzero" stroke="none" stroke-width="1" stroke-linecap="butt" stroke-linejoin="miter" stroke-miterlimit="10" stroke-dasharray="" stroke-dashoffset="0" font-family="Sans Serif" font-weight="normal" text-anchor="start" style="mix-blend-mode: normal"><tspan x="0" dy="0">Commands</tspan></text><g stroke="none" stroke-linecap="butt"><path d="M195.0541,215.84971v-71.69942h89.89181v71.69942z" fill="#000000" stroke-width="NaN"/><path d="M195.0296,157.89519v-13.73627h89.94081v13.73627z" fill="#ffffff" stroke-width="0"/><path d="M196.50184,151.09046c0,-3.2524 2.63658,-5.88898 5.88898,-5.88898c3.2524,0 5.88899,2.63659 5.88899,5.88898c0,3.2524 -2.63659,5.88898 -5.88899,5.88898c-3.2524,0 -5.88898,-2.63658 -5.88898,-5.88898z" fill="#ff0000" stroke-width="0"/><path d="M209.35053,151.09046c0,-3.2524 2.63659,-5.88898 5.88898,-5.88898c3.2524,0 5.88898,2.63659 5.88898,5.88898c0,3.2524 -2.63658,5.88898 -5.88898,5.88898c-3.2524,0 -5.88898,-2.63658 -5.88898,-5.88898z" fill="#fff700" stroke-width="0"/><path d="M222.19922,151.09046c0,-3.2524 2.63658,-5.88898 5.88898,-5.88898c3.2524,0 5.88898,2.63659 5.88898,5.88898c0,3.2524 -2.63659,5.88898 -5.88898,5.88898c-3.2524,0 -5.88898,-2.63658 -5.88898,-5.88898z" fill="#00ff46" stroke-width="0"/><text transform="translate(197.0372,165.11169) scale(0.10892,0.10892)" font-size="40" xml:space="preserve" fill="#ffffff" fill-rule="nonzero" stroke="none" stroke-width="1" stroke-linecap="butt" stroke-linejoin="miter" stroke-miterlimit="10" stroke-dasharray="" stroke-dashoffset="0" font-family="&quot;ヒラギノ角ゴ Pro W3&quot;, &quot;Hiragino Kaku Gothic Pro&quot;, Osaka, &quot;メイリオ&quot;, Meiryo, &quot;ＭＳ Ｐゴシック&quot;, &quot;MS PGothic&quot;" font-weight="normal" text-anchor="start" style="mix-blend-mode: normal"><tspan x="0" dy="0">Why are you reading this text?</tspan></text><text transform="translate(197.0372,171.00067) scale(0.10892,0.10892)" font-size="40" xml:space="preserve" fill="#ffffff" fill-rule="nonzero" stroke="none" stroke-width="1" stroke-linecap="butt" stroke-linejoin="miter" stroke-miterlimit="10" stroke-dasharray="" stroke-dashoffset="0" font-family="&quot;ヒラギノ角ゴ Pro W3&quot;, &quot;Hiragino Kaku Gothic Pro&quot;, Osaka, &quot;メイリオ&quot;, Meiryo, &quot;ＭＳ Ｐゴシック&quot;, &quot;MS PGothic&quot;" font-weight="normal" text-anchor="start" style="mix-blend-mode: normal"><tspan x="0" dy="0">Makes me think if you were looking through</tspan><tspan x="0" dy="46.150000000000006px">the code...</tspan></text><text transform="translate(197.0372,181.97559) scale(0.10892,0.10892)" font-size="40" xml:space="preserve" fill="#ffffff" fill-rule="nonzero" stroke="none" stroke-width="1" stroke-linecap="butt" stroke-linejoin="miter" stroke-miterlimit="10" stroke-dasharray="" stroke-dashoffset="0" font-family="&quot;ヒラギノ角ゴ Pro W3&quot;, &quot;Hiragino Kaku Gothic Pro&quot;, Osaka, &quot;メイリオ&quot;, Meiryo, &quot;ＭＳ Ｐゴシック&quot;, &quot;MS PGothic&quot;" font-weight="normal" text-anchor="start" style="mix-blend-mode: normal"><tspan x="0" dy="0">I could not think of any commands, so</tspan><tspan x="0" dy="46.150000000000006px">I wrote this :)</tspan></text></g></g></g></svg>