<svg version="1.1" xmlns="http://www.w3.org/2000/svg" xmlns:xlink="http://www.w3.org/1999/xlink" width="393.04102" height="190.58333" viewBox="0,0,393.04102,190.58333"><g transform="translate(48.5,-46.41666)"><g data-paper-data="{&quot;isPaintingLayer&quot;:true}" fill-rule="nonzero" stroke-linejoin="miter" stroke-miterlimit="10" stroke-dasharray="" stroke-dashoffset="0" style="mix-blend-mode: normal"><path d="M342.65816,47.77412l-0.53005,55.18446l-190.62734,-0.65742l0.53005,-55.18446z" fill="#ffffff" stroke="none" stroke-width="0" stroke-linecap="butt"/><path d="M269.37247,97.2949l-23.65739,27.51718l-6.74572,-7.63385l-15.99772,-17.74311z" fill="#ffffff" stroke="none" stroke-width="0" stroke-linecap="butt"/><path d="M174,234.56693v-109.13386h132v109.13386z" fill="#00b5ff" stroke="#000000" stroke-width="0" stroke-linecap="butt"/><path d="M251.83334,128l-29,106" fill="#000000" stroke="#000000" stroke-width="6" stroke-linecap="round"/><path d="M200.5,184l36,11" fill="none" stroke="none" stroke-width="0" stroke-linecap="round"/><path d="M229.83334,209l-36,-16l35,15" fill="none" stroke="#ffffff" stroke-width="4" stroke-linecap="round"/><path d="M-48.5,109l82,123" fill="none" stroke="none" stroke-width="0" stroke-linecap="round"/><path d="M267.71751,203.59903l-39.10168,4.80196l37.72968,-5.14496" fill="none" stroke="#ff0000" stroke-width="4" stroke-linecap="round"/><path d="M226,154.83334c0,5.4308 -4.55177,9.83333 -10.16666,9.83333c-5.61489,0 -10.16667,-4.40253 -10.16667,-9.83333c0,-5.4308 4.55178,-9.83334 10.16667,-9.83334c5.61489,0 10.16666,4.40254 10.16666,9.83334z" fill="none" stroke="#bc00ff" stroke-width="4" stroke-linecap="butt"/><path d="M281.33333,163.02731c0,5.87595 -4.92487,10.63934 -11,10.63934c-6.07513,0 -11,-4.76339 -11,-10.63934c0,-5.87595 4.92487,-10.63934 11,-10.63934c6.07513,0 11,4.7634 11,10.63934z" fill="none" stroke="#00ff45" stroke-width="4" stroke-linecap="butt"/><g><path d="M226.38376,103.32062h-74.55043v-55.65395h191.45769v55.65395h-80.36953" fill="none" stroke="#565656" stroke-width="2.5" stroke-linecap="butt"/><path d="M263.40904,103.53633l-17.47271,23.297l-20.46802,-23.72842" fill="none" stroke="#565656" stroke-width="2.5" stroke-linecap="round"/><text transform="translate(155.72169,85.15334) scale(0.73974,0.72079)" font-size="40" xml:space="preserve" fill="#000000" fill-rule="nonzero" stroke="none" stroke-width="5" stroke-linecap="butt" stroke-linejoin="miter" stroke-miterlimit="10" stroke-dasharray="" stroke-dashoffset="0" font-family="Sans Serif" font-weight="normal" text-anchor="start" style="mix-blend-mode: normal"><tspan x="0" dy="0">Finder/home</tspan></text></g></g></g></svg>