<svg version="1.1" xmlns="http://www.w3.org/2000/svg" xmlns:xlink="http://www.w3.org/1999/xlink" width="354.5" height="128" viewBox="0,0,354.5,128"><g transform="translate(48.5,-109)"><g data-paper-data="{&quot;isPaintingLayer&quot;:true}" fill-rule="nonzero" stroke-linejoin="miter" stroke-miterlimit="10" stroke-dasharray="" stroke-dashoffset="0" style="mix-blend-mode: normal"><path d="M174,234.56693v-109.13386h132v109.13386z" fill="#00b5ff" stroke="#000000" stroke-width="0" stroke-linecap="butt"/><path d="M251.83334,128l-29,106" fill="#000000" stroke="#000000" stroke-width="6" stroke-linecap="round"/><path d="M200.5,184l36,11" fill="none" stroke="none" stroke-width="0" stroke-linecap="round"/><path d="M229.83334,209l-36,-16l35,15" fill="none" stroke="#ffffff" stroke-width="4" stroke-linecap="round"/><path d="M-48.5,109l82,123" fill="none" stroke="none" stroke-width="0" stroke-linecap="round"/><path d="M267.71751,203.59903l-39.10168,4.80196l37.72968,-5.14496" fill="none" stroke="#ff0000" stroke-width="4" stroke-linecap="round"/><path d="M226,154.83334c0,5.4308 -4.55177,9.83333 -10.16666,9.83333c-5.61489,0 -10.16667,-4.40253 -10.16667,-9.83333c0,-5.4308 4.55178,-9.83334 10.16667,-9.83334c5.61489,0 10.16666,4.40254 10.16666,9.83334z" fill="none" stroke="#bc00ff" stroke-width="4" stroke-linecap="butt"/><path d="M281.33333,163.02732c0,5.87595 -4.92487,10.63934 -11,10.63934c-6.07513,0 -11,-4.76339 -11,-10.63934c0,-5.87595 4.92487,-10.63934 11,-10.63934c6.07513,0 11,4.7634 11,10.63934z" fill="none" stroke="#00ff45" stroke-width="4" stroke-linecap="butt"/></g></g></svg>