<svg version="1.1" xmlns="http://www.w3.org/2000/svg" xmlns:xlink="http://www.w3.org/1999/xlink" width="132" height="112.55633" viewBox="0,0,132,112.55633"><g transform="translate(-174,-124)"><g data-paper-data="{&quot;isPaintingLayer&quot;:true}" fill-rule="nonzero" stroke-linejoin="miter" stroke-miterlimit="10" stroke-dasharray="" stroke-dashoffset="0" style="mix-blend-mode: normal"><path d="M174,234.56693v-109.13386h132v109.13386z" fill="#1b00ff" stroke="#000000" stroke-width="0" stroke-linecap="butt"/><path d="M251.83334,128l-28.60504,104.55633" fill="#d26dff" stroke="#00ffad" stroke-width="8" stroke-linecap="round"/><path d="M200.5,184l36,11" fill="none" stroke="none" stroke-width="0" stroke-linecap="round"/><path d="M230.71263,209.32933l-45.45813,-10.99094l44.07668,10.03688" fill="none" stroke="#ffad00" stroke-width="4" stroke-linecap="round"/><path d="M287.74957,201.52185l-58.65252,7.20294l56.59452,-7.71744" fill="none" stroke="#ffffff" stroke-width="4" stroke-linecap="round"/><path d="M231.97041,157.96523c0,10.88129 -9.12005,19.70232 -20.37019,19.70232c-11.25014,0 -20.37021,-8.82102 -20.37021,-19.70232c0,-10.88129 9.12007,-19.70234 20.37021,-19.70234c11.25014,0 20.37019,8.82104 20.37019,19.70234z" fill="none" stroke="#ff0000" stroke-width="4" stroke-linecap="butt"/><path d="M289.35913,163.50854c0,8.53367 -7.15241,15.45156 -15.97535,15.45156c-8.82294,0 -15.97535,-6.91789 -15.97535,-15.45156c0,-8.53367 7.15241,-15.45156 15.97535,-15.45156c8.82294,0 15.97535,6.91791 15.97535,15.45156z" fill="none" stroke="#00ff45" stroke-width="4" stroke-linecap="butt"/><path d="M269.11391,159.28439c0,-4.25234 3.4472,-7.69955 7.69955,-7.69955c4.25234,0 7.69955,3.4472 7.69955,7.69955c0,4.25234 -3.4472,7.69955 -7.69955,7.69955c-4.25234,0 -7.69955,-3.4472 -7.69955,-7.69955z" fill="#efff00" stroke="none" stroke-width="0" stroke-linecap="butt"/><path d="M205.29921,153.69751c0,-5.84697 4.73991,-10.58688 10.58688,-10.58688c5.84697,0 10.58687,4.73991 10.58687,10.58688c0,5.84697 -4.7399,10.58687 -10.58687,10.58687c-5.84697,0 -10.58688,-4.7399 -10.58688,-10.58687z" fill="#ffffff" stroke="none" stroke-width="0" stroke-linecap="butt"/></g></g></svg>