<svg version="1.1" xmlns="http://www.w3.org/2000/svg" xmlns:xlink="http://www.w3.org/1999/xlink" width="129.17931" height="113.85001" viewBox="0,0,129.17931,113.85001"><g transform="translate(-175.41036,-122.79862)"><g data-paper-data="{&quot;isPaintingLayer&quot;:true}" fill-rule="nonzero" stroke-linejoin="miter" stroke-miterlimit="10" stroke-dasharray="" stroke-dashoffset="0" style="mix-blend-mode: normal"><path d="M175.41037,233.41561v-106.83122h129.17931v106.83122z" fill="#0059ff" stroke="none" stroke-width="NaN" stroke-linecap="butt"/><path d="M257.73695,160.34632c0.59984,-0.76086 1.61763,-2.41024 2.30293,-1.80648c3.73909,3.29415 10.03149,10.49919 12.69738,13.42144c2.46682,2.70404 10.00388,10.29027 13.05635,12.98408c0.85153,0.75148 0.32333,1.85216 -0.65024,2.31944c-17.68846,8.48974 -3.33723,5.11053 -13.69353,4.68384c-10.3563,-0.42668 -18.41225,-9.01255 -17.99347,-19.17707c0.41878,-10.16452 -5.64896,0.16966 4.28058,-12.42525z" fill="#ffffff" stroke="none" stroke-width="0" stroke-linecap="butt"/><path d="M200.70488,150.55736c1.62736,-3.51073 5.67998,2.71057 11.01424,8.1529c4.55773,4.65007 10.46795,10.11231 8.15627,12.38967c-5.25883,5.18076 -0.92522,1.4589 -8.08844,1.88419c-7.16321,0.42528 -13.76261,-4.20659 -14.18002,-11.23715c-0.41741,-7.03056 -1.07149,-2.19484 3.09795,-11.18961z" fill="#ffffff" stroke="none" stroke-width="0" stroke-linecap="butt"/><path d="M197.04165,159.51231c0,-7.57449 6.14033,-13.71482 13.71482,-13.71482c7.57449,0 13.71481,6.14033 13.71481,13.71482c0,7.57449 -6.14033,13.71482 -13.71481,13.71482c-7.57449,0 -13.71482,-6.14033 -13.71482,-13.71482z" fill="none" stroke="#ff0000" stroke-width="7.5" stroke-linecap="butt"/><path d="M252.38215,172.5053c0,-10.49797 8.51029,-19.00826 19.00826,-19.00826c10.49797,0 19.00826,8.51029 19.00826,19.00826c0,10.49797 -8.51029,19.00825 -19.00826,19.00825c-10.49797,0 -19.00826,-8.51028 -19.00826,-19.00825z" fill="none" stroke="#00ff0c" stroke-width="7.5" stroke-linecap="butt"/><path d="M231.68962,232.89863c0,0 -12.47458,-6.12694 -13.08128,-17.72507c-0.10797,-2.06405 2.39839,-7.59373 2.78439,-9.82111c0.39376,-2.2722 3.38085,-5.74656 6.34243,-9.18343c0.78856,-0.91511 7.29147,3.87459 9.45664,1.36531c2.66006,-3.08283 -5.75817,-4.84373 -5.69625,-5.51299c0.6328,-6.83993 8.52085,-11.86258 6.42864,-13.75457c-13.57576,-12.27655 -8.89365,-19.45665 9.15079,-21.18558c4.03111,-0.38624 11.79016,-14.15537 17.90111,-17.36702c13.55084,-7.12175 12.42959,-13.16555 12.42959,-13.16555" fill="none" stroke="#ffef00" stroke-width="7.5" stroke-linecap="round"/><path d="M206.07388,158.80317c0,-2.39194 1.93905,-4.331 4.331,-4.331c2.39194,0 4.331,1.93905 4.331,4.331c0,2.39194 -1.93905,4.331 -4.331,4.331c-2.39194,0 -4.331,-1.93905 -4.331,-4.331z" fill="#000000" stroke="none" stroke-width="0" stroke-linecap="butt"/><path d="M264.3017,171.79615c0,-3.7208 3.0163,-6.7371 6.7371,-6.7371c3.7208,0 6.7371,3.0163 6.7371,6.7371c0,3.7208 -3.0163,6.7371 -6.7371,6.7371c-3.7208,0 -6.7371,-3.0163 -6.7371,-6.7371z" fill="#000000" stroke="none" stroke-width="0" stroke-linecap="butt"/></g></g></svg>