<svg version="1.1" xmlns="http://www.w3.org/2000/svg" xmlns:xlink="http://www.w3.org/1999/xlink" width="129.17931" height="112.40634" viewBox="0,0,129.17931,112.40634"><g transform="translate(-175.41037,-124.24229)"><g data-paper-data="{&quot;isPaintingLayer&quot;:true}" fill-rule="nonzero" stroke-linejoin="miter" stroke-miterlimit="10" stroke-dasharray="" stroke-dashoffset="0" style="mix-blend-mode: normal"><path d="M175.41038,233.41561v-106.83122h129.17931v106.83122z" fill="#0059ff" stroke="none" stroke-width="NaN" stroke-linecap="butt"/><path d="M257.73695,160.34632c0.59984,-0.76086 1.61763,-2.41024 2.30293,-1.80648c3.73909,3.29415 10.03149,10.49919 12.69738,13.42144c2.46682,2.70404 10.00388,10.29027 13.05635,12.98408c0.85153,0.75148 0.32333,1.85216 -0.65024,2.31944c-17.68846,8.48974 -3.33723,5.11053 -13.69353,4.68384c-10.3563,-0.42668 -18.41225,-9.01255 -17.99347,-19.17707c0.41878,-10.16452 -5.64896,0.16966 4.28058,-12.42525z" fill="#ffffff" stroke="none" stroke-width="0" stroke-linecap="butt"/><path d="M200.70489,150.55736c1.62736,-3.51073 5.67998,2.71057 11.01424,8.1529c4.55773,4.65007 10.46795,10.11231 8.15627,12.38967c-5.25883,5.18076 -0.92522,1.4589 -8.08844,1.88419c-7.16321,0.42528 -13.76261,-4.20659 -14.18002,-11.23715c-0.41741,-7.03056 -1.07149,-2.19484 3.09795,-11.18961z" fill="#ffffff" stroke="none" stroke-width="0" stroke-linecap="butt"/><path d="M197.04166,159.51231c0,-7.57449 6.14033,-13.71482 13.71482,-13.71482c7.57449,0 13.71481,6.14033 13.71481,13.71482c0,7.57449 -6.14033,13.71482 -13.71481,13.71482c-7.57449,0 -13.71482,-6.14033 -13.71482,-13.71482z" fill="none" stroke="#ff0000" stroke-width="7.5" stroke-linecap="butt"/><path d="M252.38216,172.5053c0,-10.49797 8.51029,-19.00826 19.00826,-19.00826c10.49797,0 19.00826,8.51029 19.00826,19.00826c0,10.49797 -8.51029,19.00825 -19.00826,19.00825c-10.49797,0 -19.00826,-8.51028 -19.00826,-19.00825z" fill="none" stroke="#00ff0c" stroke-width="7.5" stroke-linecap="butt"/><path d="M231.51201,232.89863c0,0 -12.30524,-6.04377 -12.90371,-17.48446c-0.1065,-2.03603 2.36583,-7.49065 2.74659,-9.68779c0.38841,-2.24136 7.01727,-13.45241 7.07835,-14.11259c4.95521,-5.30342 15.14229,-7.37055 13.07848,-9.23686c-0.94676,-0.85616 -4.22886,-6.51624 -5.03305,-7.35331c-10.5707,-11.00287 -6.33124,-14.84713 10.20985,-16.43201c3.97639,-0.381 11.63011,-14.44444 17.65811,-17.61249c13.36689,-7.02507 12.26086,-12.98683 12.26086,-12.98683" fill="none" stroke="#ffef00" stroke-width="7.5" stroke-linecap="round"/><path d="M206.07389,158.80317c0,-2.39194 1.93905,-4.331 4.331,-4.331c2.39194,0 4.331,1.93905 4.331,4.331c0,2.39194 -1.93905,4.331 -4.331,4.331c-2.39194,0 -4.331,-1.93905 -4.331,-4.331z" fill="#000000" stroke="none" stroke-width="0" stroke-linecap="butt"/><path d="M264.3017,171.79615c0,-3.7208 3.0163,-6.7371 6.7371,-6.7371c3.7208,0 6.7371,3.0163 6.7371,6.7371c0,3.7208 -3.0163,6.7371 -6.7371,6.7371c-3.7208,0 -6.7371,-3.0163 -6.7371,-6.7371z" fill="#000000" stroke="none" stroke-width="0" stroke-linecap="butt"/><path d="M221.95419,205.48167c0,0 12.9179,7.47962 20.1686,9.31221c7.34514,1.85646 23.62258,1.75589 23.62258,1.75589" fill="none" stroke="#ffef00" stroke-width="7.5" stroke-linecap="round"/></g></g></svg>