<svg version="1.1" xmlns="http://www.w3.org/2000/svg" xmlns:xlink="http://www.w3.org/1999/xlink" width="97.86645" height="97.86645" viewBox="0,0,97.86645,97.86645"><g transform="translate(-189.21417,-132.9194)"><g data-paper-data="{&quot;isPaintingLayer&quot;:true}" fill-rule="nonzero" stroke-linecap="butt" stroke-linejoin="miter" stroke-miterlimit="10" stroke-dasharray="" stroke-dashoffset="0" style="mix-blend-mode: normal"><path d="M191.21418,181.85263c0,-25.9205 21.01273,-46.93323 46.93323,-46.93323c25.9205,0 46.93322,21.01273 46.93322,46.93323c0,25.9205 -21.01272,46.93322 -46.93322,46.93322c-25.9205,0 -46.93323,-21.01272 -46.93323,-46.93322z" fill-opacity="0.24706" fill="#000000" stroke="#ff0000" stroke-width="4"/><g fill="#be2026" stroke="#be2026" stroke-width="1"><g><path d="M211.23207,167.4261l15.68019,-14.15906l39.30046,43.52259l-15.68019,14.15906z"/><path d="M251.47463,196.23009c4.32997,-3.90992 11.00971,-3.5694 14.91963,0.76057c3.90992,4.32997 3.5694,11.00971 -0.76057,14.91963c-4.32997,3.90992 -11.00971,3.5694 -14.91963,-0.76057c-3.90992,-4.32997 -3.5694,-11.00971 0.76057,-14.91963z"/><path d="M211.89905,152.4614c4.32997,-3.90991 11.00971,-3.5694 14.91963,0.76057c3.90991,4.32997 3.5694,11.00971 -0.76057,14.91963c-4.32997,3.90991 -11.00971,3.56939 -14.91962,-0.76057c-3.90991,-4.32997 -3.5694,-11.00971 0.76057,-14.91962z"/></g><g><path d="M251.28684,153.56374l15.36263,14.503l-40.25512,42.64114l-15.36263,-14.503z"/><path d="M225.7786,195.97202c4.24227,4.00489 4.43471,10.69054 0.42981,14.93281c-4.00489,4.24227 -10.69054,4.43471 -14.93282,0.42981c-4.24227,-4.00489 -4.43471,-10.69054 -0.42981,-14.93281c4.00489,-4.24227 10.69054,-4.43471 14.93282,-0.42981z"/><path d="M266.25714,153.03704c4.24227,4.00489 4.43471,10.69054 0.42981,14.93282c-4.00489,4.24227 -10.69054,4.43471 -14.93282,0.42981c-4.24227,-4.00489 -4.4347,-10.69054 -0.42981,-14.93281c4.00489,-4.24227 10.69054,-4.43471 14.93281,-0.42982z"/></g></g><g fill="#e6272e" stroke="#be2026" stroke-width="1"><g><path d="M216.04245,170.20117l12.79544,-11.55416l32.07019,35.51556l-12.79544,11.55416z"/><path d="M248.88141,193.70597c3.53337,-3.1906 8.98421,-2.91272 12.1748,0.62064c3.1906,3.53337 2.91272,8.98421 -0.62064,12.1748c-3.53337,3.1906 -8.98421,2.91272 -12.1748,-0.62064c-3.1906,-3.53337 -2.91272,-8.98421 0.62064,-12.1748z"/><path d="M216.58672,157.98959c3.53337,-3.19059 8.98421,-2.91272 12.1748,0.62064c3.19059,3.53337 2.91272,8.98421 -0.62064,12.1748c-3.53337,3.19059 -8.98421,2.91271 -12.17479,-0.62064c-3.19059,-3.53337 -2.91272,-8.98421 0.62064,-12.17479z"/></g><g><path d="M248.72817,158.88913l12.5363,11.83482l-32.84922,34.79627l-12.5363,-11.83482z"/><path d="M227.91279,193.49538c3.4618,3.26809 3.61884,8.72376 0.35074,12.18556c-3.26809,3.4618 -8.72376,3.61884 -12.18557,0.35074c-3.4618,-3.26809 -3.61884,-8.72376 -0.35074,-12.18556c3.26809,-3.4618 8.72376,-3.61884 12.18557,-0.35074z"/><path d="M260.94432,158.45933c3.4618,3.26809 3.61884,8.72376 0.35074,12.18557c-3.26809,3.4618 -8.72376,3.61884 -12.18557,0.35074c-3.4618,-3.26809 -3.61883,-8.72376 -0.35074,-12.18556c3.26809,-3.4618 8.72376,-3.61884 12.18556,-0.35074z"/></g></g></g></g></svg>