<svg version="1.1" xmlns="http://www.w3.org/2000/svg" xmlns:xlink="http://www.w3.org/1999/xlink" width="115.83334" height="78.5" viewBox="0,0,115.83334,78.5"><g transform="translate(-184.58333,-143.25)"><g data-paper-data="{&quot;isPaintingLayer&quot;:true}" fill-rule="nonzero" stroke-linecap="butt" stroke-linejoin="miter" stroke-miterlimit="10" stroke-dasharray="" stroke-dashoffset="0" style="mix-blend-mode: normal"><path d="M193.00001,217.66667c0,0 -0.66667,-0.55349 -0.66667,-3.51067c0,-7.29439 0,-21.10129 0,-29.16666c0,-7.60055 0,-20.29669 0,-27.83334c0,-3.69965 1.16667,-4.656 1.16667,-4.656c0,0 0.51258,-1.5 3.3195,-1.5c10.00056,0 34.31554,0 48,0c13.58683,0 37.72509,0 48,0c3.02398,0 3.1805,1 3.1805,1c0,0 1.66667,0.80837 1.66667,3.656c0,7.17026 0,20.92967 0,29c0,8.57825 0,22.54896 0,29.5c0,2.27845 -1,3.51067 -1,3.51067c0,0 -1.23095,1.33333 -3.34717,1.33333c-9.18779,0 -34.06247,0 -48.33333,0c-14.11078,0 -39.56053,0 -49,0c-2.30285,0 -2.98617,-1.33333 -2.98617,-1.33333z" fill="#5500ff" stroke-opacity="0.59608" stroke="#000000" stroke-width="5.5"/><path d="M188,212.66667c0,0 -0.66667,-0.55349 -0.66667,-3.51067c0,-7.29439 0,-21.10129 0,-29.16666c0,-7.60055 0,-20.29669 0,-27.83334c0,-3.69965 1.16667,-4.656 1.16667,-4.656c0,0 0.51258,-1.5 3.3195,-1.5c10.00056,0 34.31554,0 48,0c13.58683,0 37.72509,0 48,0c3.02398,0 3.1805,1 3.1805,1c0,0 1.66667,0.80837 1.66667,3.656c0,7.17026 0,20.92967 0,29c0,8.57825 0,22.54896 0,29.5c0,2.27845 -1,3.51067 -1,3.51067c0,0 -1.23095,1.33333 -3.34717,1.33333c-9.18779,0 -34.06247,0 -48.33333,0c-14.11078,0 -39.56053,0 -49,0c-2.30285,0 -2.98617,-1.33333 -2.98617,-1.33333z" fill="#5500ff" stroke="#000000" stroke-width="5.5"/><text transform="translate(192.07986,175.34614) scale(0.40337,0.40337)" font-size="40" xml:space="preserve" fill="#ffffff" fill-rule="nonzero" stroke="none" stroke-width="1" stroke-linecap="butt" stroke-linejoin="miter" stroke-miterlimit="10" stroke-dasharray="" stroke-dashoffset="0" font-family="Sans Serif" font-weight="normal" text-anchor="start" style="mix-blend-mode: normal"><tspan x="0" dy="0">Classic Pong</tspan><tspan x="0" dy="46.15px">      Game</tspan></text></g></g></svg>