<svg version="1.1" xmlns="http://www.w3.org/2000/svg" xmlns:xlink="http://www.w3.org/1999/xlink" width="495.84906" height="362.16426" viewBox="0,0,495.84906,362.16426"><g transform="translate(7.92453,1.08213)"><g data-paper-data="{&quot;isPaintingLayer&quot;:true}" fill-rule="nonzero" stroke="none" stroke-linecap="butt" stroke-linejoin="miter" stroke-miterlimit="10" stroke-dasharray="" stroke-dashoffset="0" style="mix-blend-mode: normal"><path d="M-7.92453,361.08213v-362.16426h495.84906v362.16426z" fill="#909090" stroke-width="0"/><text transform="translate(23.35004,187.25) scale(0.49543,0.60417)" font-size="40" xml:space="preserve" fill="#ffffff" fill-rule="nonzero" stroke="none" stroke-width="1" stroke-linecap="butt" stroke-linejoin="miter" stroke-miterlimit="10" stroke-dasharray="" stroke-dashoffset="0" font-family="Sans Serif" font-weight="normal" text-anchor="start" style="mix-blend-mode: normal"><tspan x="0" dy="0">You have 0 attemps. Click the        to try again.</tspan></text><path d="M336.144,171.584v16.128c0,0.32 -0.128,0.64 -0.384,0.768c-2.048,1.792 -4.608,2.688 -7.232,2.688c-2.624,0 -5.184,-0.96 -7.232,-2.688c-1.664,-1.408 -3.712,-2.24 -5.888,-2.24c-1.984,0 -3.904,0.64 -5.504,1.92v10.688c0,0.64 -0.512,1.152 -1.152,1.152c-0.64,0 -1.152,-0.512 -1.152,-1.152v-27.264c0,-0.512 0.32,-0.832 0.64,-1.024c2.048,-1.664 4.48,-2.56 7.04,-2.56c2.624,0 5.248,0.96 7.296,2.688c1.664,1.408 3.712,2.176 5.888,2.176c2.176,0 4.224,-0.768 5.888,-2.176c0.384,-0.256 0.832,-0.32 1.216,-0.128c0.384,0.192 0.576,0.576 0.576,1.024z" fill="#549a10" stroke-width="1"/></g></g></svg>