<svg version="1.1" xmlns="http://www.w3.org/2000/svg" xmlns:xlink="http://www.w3.org/1999/xlink" width="495.84906" height="362.16426" viewBox="0,0,495.84906,362.16426"><g transform="translate(7.92453,1.08213)"><g data-paper-data="{&quot;isPaintingLayer&quot;:true}" fill-rule="nonzero" stroke="none" stroke-linecap="butt" stroke-linejoin="miter" stroke-miterlimit="10" stroke-dasharray="" stroke-dashoffset="0" style="mix-blend-mode: normal"><path d="M-7.92453,361.08213v-362.16426h495.84906v362.16426z" fill="#909090" stroke-width="0"/><text transform="translate(107.78892,57.36896) scale(0.75757,0.75757)" font-size="40" xml:space="preserve" fill="#ffffff" fill-rule="nonzero" stroke="none" stroke-width="1" stroke-linecap="butt" stroke-linejoin="miter" stroke-miterlimit="10" stroke-dasharray="" stroke-dashoffset="0" font-family="Sans Serif" font-weight="normal" text-anchor="start" style="mix-blend-mode: normal"><tspan x="0" dy="0">Log in with your </tspan><tspan x="0" dy="48px">Scratch Username</tspan></text><text transform="translate(131.00108,205.01217) scale(0.36496,0.36496)" font-size="40" xml:space="preserve" fill="#ffffff" fill-rule="nonzero" stroke="none" stroke-width="1" stroke-linecap="butt" stroke-linejoin="miter" stroke-miterlimit="10" stroke-dasharray="" stroke-dashoffset="0" font-family="Sans Serif" font-weight="normal" text-anchor="start" style="mix-blend-mode: normal"><tspan x="0" dy="0">If you are not logged into your</tspan><tspan x="0" dy="46.15px">scratch account, just press</tspan><tspan x="0" dy="46.15px">to log in using a guest account.</tspan></text><text transform="translate(8.5,277.57547) scale(0.5,0.5)" font-size="40" xml:space="preserve" fill="#ffffff" fill-rule="nonzero" stroke="none" stroke-width="1" stroke-linecap="butt" stroke-linejoin="miter" stroke-miterlimit="10" stroke-dasharray="" stroke-dashoffset="0" font-family="Sans Serif" font-weight="normal" text-anchor="start" style="mix-blend-mode: normal"><tspan x="0" dy="0">You have 5 attemps</tspan></text><path d="M260.88286,148.35957c0,15.75125 -12.66251,28.52016 -28.28249,28.52016c-15.61998,0 -28.28249,-12.76891 -28.28249,-28.52016c0,-15.75125 12.6625,-28.52015 28.28249,-28.52015c15.61998,0 28.28249,12.76891 28.28249,28.52015z" fill="#ffffff" stroke-width="0"/><path d="M275.07496,148.59724c0,11.41966 -9.9102,20.67711 -22.13504,20.67711c-12.22484,0 -22.13504,-9.25746 -22.13504,-20.67711c0,-11.41966 9.9102,-20.67711 22.13504,-20.67711c12.22485,0 22.13504,9.25746 22.13504,20.67711z" fill="#909090" stroke-width="0"/><path d="M235.02037,114.08465c-2.37088,2.6594 -5.80196,3.46988 -7.66353,1.81027c-1.86157,-1.65961 -1.4487,-5.16085 0.92217,-7.82025c2.37088,-2.6594 5.80195,-3.46988 7.66352,-1.81027c1.86157,1.65961 1.44871,5.16085 -0.92216,7.82025z" fill="#ffffff" stroke-width="0"/><text transform="translate(210.8284,154.88504) scale(0.6734,0.6734)" font-size="40" xml:space="preserve" fill="#ffc500" fill-rule="nonzero" stroke="none" stroke-width="1" stroke-linecap="butt" stroke-linejoin="miter" stroke-miterlimit="10" stroke-dasharray="" stroke-dashoffset="0" font-family="Marker" font-weight="normal" text-anchor="start" style="mix-blend-mode: normal"><tspan x="0" dy="0">S</tspan></text></g></g></svg>