<svg version="1.1" xmlns="http://www.w3.org/2000/svg" xmlns:xlink="http://www.w3.org/1999/xlink" width="541.24247" height="114.46674" viewBox="0,0,541.24247,114.46674"><g transform="translate(73.20243,-156.33165)"><g data-paper-data="{&quot;isPaintingLayer&quot;:true}" fill-rule="nonzero" stroke="none" stroke-width="0" stroke-linecap="butt" stroke-linejoin="miter" stroke-miterlimit="10" stroke-dasharray="" stroke-dashoffset="0" style="mix-blend-mode: normal"><path d="M38.45105,189.82894c0.01846,-0.08421 0.03566,-0.16868 0.05169,-0.25339c0.08678,-0.23011 0.15798,-0.45521 0.20638,-0.68218c0.09507,-0.00854 0.16423,-0.07771 0.16423,-0.07771c0.38831,-0.40253 0.43629,-0.84206 0.45224,-1.28823c0.22631,-0.18333 0.37098,-0.46349 0.37098,-0.77743c0,-0.17243 -0.04364,-0.33467 -0.12048,-0.47627l0.06179,-0.18536c0.01085,-0.03018 0.02028,-0.06102 0.02823,-0.09246c0.00794,-0.01644 0.01591,-0.03285 0.02393,-0.04924c0.39493,-0.25304 0.44602,-0.76384 0.44602,-0.76384l0.01081,-0.10811c0.25152,-0.4692 0.49806,-0.94484 0.67576,-1.46789l-0.13934,-0.29814c0.3567,-1.17998 0.61606,-2.41315 1.14932,-3.597l0.04852,-0.27012c0.34956,-0.15584 0.59323,-0.50636 0.59323,-0.9138c0,-0.22454 -0.074,-0.43179 -0.19895,-0.5987c0.03852,-0.08631 0.07381,-0.17373 0.10548,-0.26242c0.078,-0.21841 0.15447,-0.43619 0.22935,-0.65331c0.12126,-0.16283 0.19414,-0.36381 0.19734,-0.58167c0.04743,-0.14221 0.09415,-0.28413 0.14016,-0.42575c0.25169,-0.1816 0.4155,-0.47742 0.4155,-0.81149c0,-0.11719 -0.02016,-0.22967 -0.0572,-0.33417c0.05946,-0.19803 0.1174,-0.39539 0.1738,-0.59209c0.20139,-0.18293 0.32784,-0.4469 0.32784,-0.74041c0,-0.10245 -0.01541,-0.20131 -0.04403,-0.29437c0.00089,-0.00342 0.00179,-0.00686 0.00268,-0.01028c0.15281,0.03259 0.24936,-0.11223 0.24936,-0.11223l0.23879,-0.36217c0.18031,-0.53074 0.30316,-1.22972 0.42845,-1.97391c0.13314,-0.19871 0.21079,-0.43774 0.21079,-0.6949c0,-0.05105 -0.00306,-0.10139 -0.00901,-0.15084c0.17759,-0.20324 0.29046,-0.46448 0.30643,-0.75159c0.23211,-0.22695 0.37618,-0.54357 0.37618,-0.89383c0,-0.20298 -0.04838,-0.39466 -0.13423,-0.56413c0.10471,-0.18879 0.18834,-0.39858 0.25732,-0.61766c0.119,-0.19543 0.25301,-0.36703 0.40515,-0.50842c0,0 0.17677,-0.17678 0,-0.35356c-0.06423,-0.06423 -0.12846,-0.08179 -0.18421,-0.0781c0.01864,-0.10176 0.0361,-0.20204 0.053,-0.29972l0.14831,-0.0113c0.06175,-0.12491 0.13428,-0.23935 0.21024,-0.35077h385.61337c0.26078,0.16205 0.52957,0.31242 0.80564,0.4504c0.00882,0.12964 0.02988,0.21389 0.02988,0.21389c0.45313,1.80673 0.73375,3.58631 1.37127,5.34623l0.40197,0.56782c0,0 0.18719,0.18718 0.47542,0.30313c0.21753,1.88458 0.51371,3.77345 1.43625,5.61853c0.09665,0.19329 0.19211,0.3957 0.2867,0.60578c-0.20422,0.4333 -0.07842,0.90854 -0.07842,0.90854c1.46968,5.55211 3.54983,10.77229 5.22471,16.203c0.07591,0.29992 0.15494,0.59963 0.23635,0.89891c0.18352,1.07922 0.02905,2.2546 0.31915,3.35156l0.54429,0.77721c0,0 0.16932,0.16932 0.43386,0.28564c0.26344,0.88907 0.51324,1.76469 0.72732,2.62102c0.10215,0.4086 0.38913,0.862 0.69774,1.29695c0.52377,1.839 1.12097,3.68212 1.53243,5.5514h-413.74281c-0.03368,-0.15245 -0.07082,-0.30358 -0.11137,-0.45332c0.32841,-0.31086 0.40292,-0.75785 0.40292,-0.75785c0.61966,-3.7356 1.88594,-8.26759 3.84443,-11.57172l0.17258,-0.856c0,0 0,-0.66377 -0.48371,-1.02392c0.91067,-2.29226 1.66589,-4.53825 1.9882,-6.00824z" fill="#c7c7c7"/><path d="M45.30143,166.68365c-0.08913,-0.39302 -0.23825,-0.80987 -0.40926,-1.18366h0.63077c-0.0031,0.0187 -0.00619,0.0376 -0.00929,0.05669c-0.02931,0.06059 -0.03393,0.11285 -0.02522,0.15681c-0.04871,0.30433 -0.10354,0.64407 -0.18699,0.97017z" fill="#c7c7c7"/><path d="M38.45107,189.82895c0.01848,-0.08426 0.03568,-0.16877 0.05172,-0.25352c0.08676,-0.23006 0.15793,-0.45513 0.20634,-0.68205c0.09507,-0.00854 0.16423,-0.07771 0.16423,-0.07771c0.38831,-0.40253 0.43629,-0.84206 0.45224,-1.28823c0.22631,-0.18333 0.37098,-0.46349 0.37098,-0.77743c0,-0.17243 -0.04364,-0.33467 -0.12048,-0.47627l0.06179,-0.18536c0.01085,-0.03018 0.02028,-0.06102 0.02823,-0.09246c0.00794,-0.01644 0.01591,-0.03285 0.02393,-0.04924c0.39493,-0.25304 0.44602,-0.76384 0.44602,-0.76384l0.01081,-0.10811c0.25152,-0.4692 0.49806,-0.94484 0.67576,-1.46789l-0.13934,-0.29814c0.3567,-1.17998 0.61606,-2.41315 1.14932,-3.597l0.04852,-0.27012c0.24995,-0.11143 0.44576,-0.3224 0.53706,-0.58254l-5.48069,17.8796c-0.02508,-0.20888 -0.11946,-0.63701 -0.47463,-0.90145c0.91067,-2.29226 1.66588,-4.53824 1.9882,-6.00823z" fill="#ffffff"/><path d="M32.67125,210.65641c-0.04196,-0.2056 -0.09023,-0.40891 -0.1446,-0.60972c0.32843,-0.31086 0.40292,-0.75786 0.40292,-0.75786c0.58807,-3.5451 1.75847,-7.80743 3.55019,-11.05691z" fill="#ffffff"/><path d="M42.38091,177.66667c0.07802,-0.21843 0.1545,-0.43624 0.22939,-0.65339c0.12121,-0.16279 0.19405,-0.36372 0.19728,-0.58151c0.04745,-0.14226 0.09419,-0.28422 0.14021,-0.42588c0.25166,-0.1816 0.41546,-0.4774 0.41546,-0.81145c0,-0.11716 -0.02015,-0.22962 -0.05718,-0.3341c0.05947,-0.19806 0.11743,-0.39547 0.17383,-0.5922c0.20136,-0.18293 0.32779,-0.44689 0.32779,-0.74036c0,-0.10243 -0.0154,-0.20126 -0.04401,-0.29431c0.0009,-0.00344 0.0018,-0.00689 0.0027,-0.01034c0.15279,0.03256 0.24932,-0.11224 0.24932,-0.11224l0.23879,-0.36217c0.18031,-0.53073 0.30316,-1.2297 0.42845,-1.97388c0.13315,-0.19872 0.21081,-0.43775 0.21081,-0.69492c0,-0.05105 -0.00306,-0.10139 -0.00901,-0.15084c0.17759,-0.20324 0.29046,-0.46448 0.30643,-0.75159c0.23211,-0.22695 0.37618,-0.54357 0.37618,-0.89383c0,-0.20298 -0.04838,-0.39466 -0.13423,-0.56413c0.10472,-0.1888 0.18834,-0.3986 0.25733,-0.61769c0.11899,-0.19541 0.253,-0.36701 0.40513,-0.50839c0,0 0.17677,-0.17678 0,-0.35356c-0.06423,-0.06423 -0.12845,-0.08178 -0.1842,-0.0781c0.01864,-0.10176 0.0361,-0.20204 0.053,-0.29972l0.14831,-0.0113c0.11259,-0.22774 0.26096,-0.42065 0.40071,-0.62398c0.03052,-0.00866 0.06115,-0.01771 0.09184,-0.02713l-4.16374,13.58336c0.02144,-0.08148 0.03287,-0.16701 0.03287,-0.25522c0,-0.22453 -0.074,-0.43177 -0.19894,-0.59868c0.03852,-0.08632 0.07381,-0.17374 0.10549,-0.26243z" fill="#ffffff"/><path d="M44.82463,165.07441c0.11842,-0.00405 0.24407,-0.012 0.37506,-0.02356c0.06013,0.14618 0.18614,0.23098 0.35442,0.26907c-0.01366,0.07457 -0.02697,0.15387 -0.04046,0.23676c-0.02931,0.06059 -0.03393,0.11285 -0.02522,0.15681c-0.04871,0.30433 -0.10354,0.64407 -0.18699,0.97017c-0.09916,-0.43719 -0.27253,-0.90386 -0.46769,-1.30795c-0.00226,-0.1008 -0.00529,-0.20123 -0.00911,-0.30128z" fill="#ffffff"/><path d="M45.84342,163.69167c0.03885,-0.03716 0.07981,-0.07469 0.12201,-0.11204c0.02845,-0.00324 0.057,-0.00625 0.08566,-0.00903c-0.0317,0.04293 -0.05794,0.08735 -0.08036,0.13272c-0.04592,-0.00277 -0.0885,-0.00661 -0.12732,-0.01164z" fill="#ffffff"/><path d="M46.9116,163.54359c-0.03531,0.00965 -0.07059,0.01951 -0.10581,0.02957c0.00319,-0.00986 0.00572,-0.02026 0.00747,-0.0312c0.03278,0.00037 0.06556,0.00093 0.09835,0.00163z" fill="#ffffff"/><path d="M44.99819,163.92059c0.03053,-0.0205 0.06097,-0.04119 0.09125,-0.06206c-0.01009,0.02204 -0.01938,0.04399 -0.0279,0.06582c-0.02115,-0.00134 -0.04227,-0.00259 -0.06334,-0.00376z" fill="#ffffff"/><path d="" fill="#ffffff"/><path d="" fill="#ffffff"/><path d="M14.23577,270.79839l-17.97831,-5.51094c0.46721,-0.52349 0.9091,-1.07464 1.32352,-1.6547c5.66192,2.01119 11.28735,4.17335 16.87687,6.4411z" fill="#ffffff"/><path d="" fill="#ffffff"/><path d="M-46.5,207.62016c-0.12596,-0.05957 -0.25182,-0.11946 -0.37757,-0.17965c0.12578,0.01785 0.25165,0.03472 0.37757,0.05055z" fill="#ffffff"/><path d="M-1.37087,157.39818c0.00786,0.74908 -0.52541,1.32542 -1.08111,1.9055c0.12728,-0.98968 0.24453,-1.98039 0.35002,-2.97203c0.23602,0.09116 0.47636,0.17363 0.72063,0.24701c0.00405,0.27331 0.00759,0.54649 0.01046,0.81952z" fill="#ffffff"/><path d="M-71.65137,231.55979c-0.5201,0.10307 -1.0374,0.21507 -1.55106,0.33635l0.57527,-1.87669c0.30447,0.51984 0.63135,1.03396 0.9758,1.54035z" fill="#ffffff"/><path d="M444.15065,203.65166c0.10215,0.40861 0.38915,0.86204 0.69778,1.297c0.64888,2.27828 1.41046,4.56289 1.79195,6.89573c0,0 0.04148,0.24891 0.19901,0.50441c0.09549,0.30849 0.21073,0.58698 0.35343,0.82482c0.17246,0.28744 0.35153,0.56784 0.53686,0.84106c-0.10294,0.37168 -0.18356,0.76231 -0.23818,1.1727l-4.40044,-14.35553c0.07566,0.0586 0.19024,0.13632 0.33225,0.19877c0.26345,0.88908 0.51325,1.76471 0.72733,2.62104z" data-paper-data="{&quot;index&quot;:null}" fill="#ffffff"/><path d="M432.33231,165.73363c0.13465,0.07531 0.27122,0.14759 0.40962,0.21677c0.00882,0.12964 0.02988,0.21388 0.02988,0.21388c0.45313,1.80673 0.73375,3.58631 1.37127,5.34623l0.40197,0.56782c0,0 0.18718,0.18717 0.4754,0.30312c0.21753,1.88459 0.51371,3.77346 1.43626,5.61855c0.09665,0.1933 0.19212,0.39571 0.2867,0.60579c-0.2042,0.4333 -0.07841,0.90852 -0.07841,0.90852c1.46964,5.55197 3.54973,10.77203 5.22459,16.2026c0.07596,0.30013 0.15505,0.60005 0.23651,0.89954c0.07885,0.46381 0.09529,0.94538 0.11142,1.43086z" data-paper-data="{&quot;index&quot;:null}" fill="#ffffff"/><path d="M447.4915,215.18741c0,-0.00001 0,-0.00002 0,-0.00003l0.00001,0.00002z" data-paper-data="{&quot;index&quot;:null}" fill="#ffffff"/><path d="M467.85906,166.73104c-0.02867,-0.25218 -0.05568,-0.50458 -0.08101,-0.75719c0.08716,0.20838 0.17448,0.41669 0.26199,0.6249c-0.06123,0.04387 -0.12156,0.08798 -0.18098,0.13229z" data-paper-data="{&quot;index&quot;:null}" fill="#ffffff"/><path d="" data-paper-data="{&quot;index&quot;:null}" fill="#ffffff"/><path d="" data-paper-data="{&quot;index&quot;:null}" fill="#ffffff"/><path d="" data-paper-data="{&quot;index&quot;:null}" fill="#ffffff"/></g></g></svg>