<svg version="1.1" xmlns="http://www.w3.org/2000/svg" xmlns:xlink="http://www.w3.org/1999/xlink" width="358.9448" height="50.4543" viewBox="0,0,358.9448,50.4543"><g transform="translate(-61,-159.4)"><g data-paper-data="{&quot;isPaintingLayer&quot;:true}" fill="#c7c7c7" fill-rule="nonzero" stroke="none" stroke-width="0" stroke-linecap="butt" stroke-linejoin="miter" stroke-miterlimit="10" stroke-dasharray="" stroke-dashoffset="0" style="mix-blend-mode: normal"><path d="M64.51804,209.31343c0,0 -2.2316,-1.20969 -2.92115,-3.10314c-0.43729,-1.20077 -0.59689,-3.09298 -0.59689,-4.77831c0,-5.08128 0,-10.81494 0,-15.20392c0,-4.72634 0,-12.28614 0,-18.2103c0,-4.98885 2.17489,-6.64287 2.17489,-6.64287c0,0 1.10864,-1.02576 3.1534,-1.59233c1.17617,-0.32589 2.49478,-0.33256 4.51817,-0.33256c50.36234,0 308.01034,-0.05 341.2291,-0.05c2.31103,0 7.1616,2.40876 7.61041,7.9629c0.33999,4.20758 -0.07241,14.77279 0.10489,17.89321c0.19772,3.47978 0.27235,12.34425 -0.19543,17.01637c-0.59315,5.92432 -3.35391,7.58182 -9.11987,7.58182c-30.46485,0 -290.24447,0 -340.8791,0c-5.54086,0 -5.07842,-0.54087 -5.07842,-0.54087z"/></g></g></svg>