<svg version="1.1" xmlns="http://www.w3.org/2000/svg" xmlns:xlink="http://www.w3.org/1999/xlink" width="102.61057" height="102.61057" viewBox="0,0,102.61057,102.61057"><g transform="translate(-188.69472,-128.69472)"><g data-paper-data="{&quot;isPaintingLayer&quot;:true}" fill-rule="nonzero" stroke="#000000" stroke-linejoin="miter" stroke-miterlimit="10" stroke-dasharray="" stroke-dashoffset="0" style="mix-blend-mode: normal"><g><path d="M201.58642,145.99165c18.78231,-21.21524 51.2067,-23.18752 72.42193,-4.40523c21.21524,18.78231 23.18753,51.2067 4.40523,72.42193c-18.78231,21.21525 -51.2067,23.18752 -72.42194,4.40523c-21.21525,-18.78231 -23.18752,-51.20669 -4.40523,-72.42193z" fill="#ff7d00" stroke-width="0" stroke-linecap="butt"/><path d="M216.63274,191.62462l37.5652,-42.43115l14.80157,13.10414l-37.5652,42.43115z" fill="none" stroke-width="0.5" stroke-linecap="butt"/><path d="M231.45047,204.99453l-24.1067,9.33553l9.41377,-22.8464" fill="none" stroke-width="0.5" stroke-linecap="round"/><path d="M253.93216,149.20964l10.23371,-11.55931l14.8339,13.63567l-10.01644,10.74585" fill="none" stroke-width="0.5" stroke-linecap="round"/><path d="M271.62032,159.3373l-14.94253,-13.22894" fill="none" stroke-width="0.5" stroke-linecap="round"/><path d="M256.18311,148.93935c0.34463,-0.38927 0.93958,-0.42546 1.32885,-0.08083c0.38927,0.34463 0.42546,0.93957 0.08083,1.32885c-0.34463,0.38927 -0.93958,0.42546 -1.32885,0.08083c-0.38927,-0.34463 -0.42546,-0.93957 -0.08083,-1.32885z" fill="none" stroke-width="0.5" stroke-linecap="butt"/><path d="M258.98629,151.16961c0.27571,-0.31142 0.75165,-0.34037 1.06307,-0.06467c0.31142,0.2757 0.34037,0.75165 0.06466,1.06307c-0.27571,0.31142 -0.75165,0.34037 -1.06307,0.06466c-0.31142,-0.2757 -0.34037,-0.75165 -0.06466,-1.06307z" fill="none" stroke-width="0.5" stroke-linecap="butt"/><path d="M261.39889,153.557c0.41355,-0.46712 1.12749,-0.51055 1.59462,-0.09699c0.46712,0.41355 0.51056,1.12749 0.09699,1.59462c-0.41355,0.46712 -1.12748,0.51055 -1.59461,0.09699c-0.46712,-0.41355 -0.51056,-1.12749 -0.097,-1.59462z" fill="none" stroke-width="0.5" stroke-linecap="butt"/><path d="M264.42162,156.10735c0.37909,-0.42819 1.03353,-0.46801 1.46173,-0.08892c0.4282,0.37909 0.46801,1.03354 0.08891,1.46174c-0.37909,0.42819 -1.03353,0.46801 -1.46174,0.08892c-0.4282,-0.37909 -0.46801,-1.03354 -0.08891,-1.46174z" fill="none" stroke-width="0.5" stroke-linecap="butt"/><path d="M267.31953,158.79866c0.34463,-0.38927 0.93958,-0.42546 1.32885,-0.08083c0.38927,0.34463 0.42546,0.93958 0.08083,1.32885c-0.34463,0.38927 -0.93958,0.42546 -1.32885,0.08083c-0.38927,-0.34463 -0.42546,-0.93958 -0.08083,-1.32885z" fill="none" stroke-width="0.5" stroke-linecap="butt"/><path d="M256.78643,145.70163l7.36328,-8.31707l15.0835,13.35374l-7.36328,8.31707z" fill="#ff6300" stroke-width="0.5" stroke-linecap="butt"/><path d="M216.36697,191.64079l37.56519,-42.43116l14.6606,12.97934l-37.56519,42.43115z" fill="#fcff00" stroke-width="0.5" stroke-linecap="butt"/><path d="M255.21703,150.59863l-37.04982,42.13305" fill="none" stroke-width="0.5" stroke-linecap="round"/><path d="M220.76928,196.04118l1.74722,-1.97355l36.44199,-41.16244" fill="none" stroke-width="0.5" stroke-linecap="round"/><path d="M262.49883,156.29099l-38.64444,42.23005" fill="none" stroke-width="0.5" stroke-linecap="round"/><path d="M264.86748,160.14818l-36.67542,41.71015" fill="none" stroke-width="0.5" stroke-linecap="round"/><path d="M219.5924,209.58373l-7.3303,-6.48967" fill="none" stroke-width="0.5" stroke-linecap="round"/><path d="M206.96936,214.75296l9.5224,-23.25313l14.94253,13.22894l-23.77626,10.38244z" fill="#d67c00" stroke-width="0.5" stroke-linecap="butt"/><path d="M207.09417,214.61199l4.43529,-10.40636l6.76642,5.99046l-10.76266,5.05606z" fill="#000000" stroke-width="0.5" stroke-linecap="butt"/></g></g></g></svg>