<svg version="1.1" xmlns="http://www.w3.org/2000/svg" xmlns:xlink="http://www.w3.org/1999/xlink" width="130.33784" height="160.55622" viewBox="0,0,130.33784,160.55622"><g transform="translate(-175.86387,-70.74906)"><g data-paper-data="{&quot;isPaintingLayer&quot;:true}" fill-rule="nonzero" stroke-linejoin="miter" stroke-miterlimit="10" stroke-dasharray="" stroke-dashoffset="0" style="mix-blend-mode: normal"><path d="M177.33105,114.24374v-42.30435h127.58812v42.30435c0,0 -27.98215,0.22349 -52.42969,0.35548c-4.62285,0.02496 -9.34434,20.52375 -12.82627,16.93967c-3.52281,-3.62617 -10.0591,-16.84511 -13.72717,-16.84511c-19.39117,0 -48.605,-0.45005 -48.605,-0.45005z" fill="#ffffff" stroke="none" stroke-width="0" stroke-linecap="butt"/><g stroke="#000000"><path d="M201.58642,145.99165c18.7823,-21.21524 51.2067,-23.18752 72.42194,-4.40523c21.21524,18.7823 23.18752,51.2067 4.40523,72.42194c-18.7823,21.21524 -51.2067,23.18752 -72.42194,4.40523c-21.21524,-18.7823 -23.18752,-51.2067 -4.40523,-72.42194z" fill="#ff7d00" stroke-width="0" stroke-linecap="butt"/><path d="M216.63274,191.62462l37.5652,-42.43115l14.80156,13.10414l-37.5652,42.43115z" fill="none" stroke-width="0.5" stroke-linecap="butt"/><path d="M231.45047,204.99453l-24.1067,9.33553l9.41377,-22.8464" fill="none" stroke-width="0.5" stroke-linecap="round"/><path d="M253.93216,149.20964l10.23371,-11.55932l14.8339,13.63567l-10.01643,10.74585" fill="none" stroke-width="0.5" stroke-linecap="round"/><path d="M271.62032,159.3373l-14.94253,-13.22894" fill="none" stroke-width="0.5" stroke-linecap="round"/><path d="M256.1831,148.93935c0.34463,-0.38927 0.93958,-0.42546 1.32885,-0.08083c0.38927,0.34463 0.42546,0.93958 0.08083,1.32885c-0.34463,0.38927 -0.93958,0.42546 -1.32885,0.08083c-0.38927,-0.34463 -0.42546,-0.93958 -0.08083,-1.32885z" fill="none" stroke-width="0.5" stroke-linecap="butt"/><path d="M258.98628,151.1696c0.2757,-0.31142 0.75166,-0.34037 1.06307,-0.06466c0.31142,0.2757 0.34037,0.75166 0.06466,1.06307c-0.2757,0.31142 -0.75166,0.34037 -1.06307,0.06466c-0.31142,-0.2757 -0.34037,-0.75166 -0.06466,-1.06307z" fill="none" stroke-width="0.5" stroke-linecap="butt"/><path d="M261.39889,153.557c0.41355,-0.46712 1.12749,-0.51055 1.59461,-0.097c0.46712,0.41355 0.51055,1.12749 0.097,1.59461c-0.41355,0.46712 -1.12749,0.51055 -1.59461,0.097c-0.46712,-0.41355 -0.51055,-1.12749 -0.097,-1.59461z" fill="none" stroke-width="0.5" stroke-linecap="butt"/><path d="M264.42162,156.10735c0.37909,-0.4282 1.03353,-0.46801 1.46174,-0.08891c0.4282,0.37909 0.46801,1.03353 0.08891,1.46174c-0.37909,0.4282 -1.03353,0.46801 -1.46174,0.08891c-0.4282,-0.37909 -0.46801,-1.03353 -0.08891,-1.46174z" fill="none" stroke-width="0.5" stroke-linecap="butt"/><path d="M267.31953,158.79866c0.34463,-0.38927 0.93958,-0.42546 1.32885,-0.08083c0.38927,0.34463 0.42546,0.93958 0.08083,1.32885c-0.34463,0.38927 -0.93958,0.42546 -1.32885,0.08083c-0.38927,-0.34463 -0.42546,-0.93958 -0.08083,-1.32885z" fill="none" stroke-width="0.5" stroke-linecap="butt"/><path d="M256.78643,145.70163l7.36328,-8.31707l15.0835,13.35374l-7.36328,8.31707z" fill="#ff6300" stroke-width="0.5" stroke-linecap="butt"/><path d="M216.36697,191.64079l37.5652,-42.43115l14.6606,12.97934l-37.5652,42.43115z" fill="#fcff00" stroke-width="0.5" stroke-linecap="butt"/><path d="M255.21703,150.59863l-37.04982,42.13304" fill="none" stroke-width="0.5" stroke-linecap="round"/><path d="M220.76927,196.04118l1.74722,-1.97355l36.44198,-41.16245" fill="none" stroke-width="0.5" stroke-linecap="round"/><path d="M223.85439,198.52104l38.64444,-42.23005" fill="none" stroke-width="0.5" stroke-linecap="round"/><path d="M264.86747,160.14818l-36.67542,41.71015" fill="none" stroke-width="0.5" stroke-linecap="round"/><path d="M212.26209,203.09405l7.3303,6.48967" fill="none" stroke-width="0.5" stroke-linecap="round"/><path d="M206.96936,214.75296l9.52241,-23.25313l14.94253,13.22894l-23.77626,10.38244z" fill="#d67c00" stroke-width="0.5" stroke-linecap="butt"/><path d="M207.09416,214.61199l4.43529,-10.40636l6.76643,5.99046l-10.76266,5.05606z" fill="#000000" stroke-width="0.5" stroke-linecap="butt"/></g><path d="M226.89179,114.99906h-49.77792v-43h127.83784v43h-53.66338" fill="none" stroke="#565656" stroke-width="2.5" stroke-linecap="butt"/><path d="M251.61387,115.16573l-11.66667,18l-13.66666,-18.33333" fill="none" stroke="#565656" stroke-width="2.5" stroke-linecap="round"/><text transform="translate(185.77443,100.46904) scale(0.58731,0.58731)" font-size="40" xml:space="preserve" fill="#000000" fill-rule="nonzero" stroke="none" stroke-width="1" stroke-linecap="butt" stroke-linejoin="miter" stroke-miterlimit="10" stroke-dasharray="" stroke-dashoffset="0" font-family="Sans Serif" font-weight="normal" text-anchor="start" style="mix-blend-mode: normal"><tspan x="0" dy="0">Fun Draw</tspan></text></g></g></svg>