<svg version="1.1" xmlns="http://www.w3.org/2000/svg" xmlns:xlink="http://www.w3.org/1999/xlink" width="130.33784" height="137.57651" viewBox="0,0,130.33784,137.57651"><g transform="translate(-156.31875,-83.81585)"><g data-paper-data="{&quot;isPaintingLayer&quot;:true}" fill-rule="nonzero" stroke-linejoin="miter" stroke-miterlimit="10" stroke-dasharray="" stroke-dashoffset="0" style="mix-blend-mode: normal"><path d="M157.24187,128.18399l-0.16238,-43.51889h128.44569l0.16238,43.35651c0,0 -25.46385,-0.08058 -41.40372,-0.30159c-0.43377,-0.00601 -6.57964,-0.02733 -6.98676,-0.18074c-9.12571,-3.43863 -11.07486,17.05652 -17.25471,16.63266c-2.79687,-0.19183 -9.1016,-14.71 -11.48501,-15.0298c-17.20153,-2.30805 -51.31549,-0.95815 -51.31549,-0.95815z" fill="#ffffff" stroke="none" stroke-width="0" stroke-linecap="butt"/><path d="M207.34667,128.06585h-49.77792v-43h127.83784v43h-53.66338" fill="none" stroke="#565656" stroke-width="2.5" stroke-linecap="butt"/><path d="M232.06875,128.23252l-11.66667,18l-13.66666,-18.33333" fill="none" stroke="#565656" stroke-width="2.5" stroke-linecap="round"/><text transform="translate(162.83066,112.0532) scale(0.51958,0.51958)" font-size="40" xml:space="preserve" fill="#000000" fill-rule="nonzero" stroke="none" stroke-width="1" stroke-linecap="butt" stroke-linejoin="miter" stroke-miterlimit="10" stroke-dasharray="" stroke-dashoffset="0" font-family="Sans Serif" font-weight="normal" text-anchor="start" style="mix-blend-mode: normal"><tspan x="0" dy="0">Mini Games</tspan></text><g><path d="M214.98393,188.75472c0,17.96913 -9.41696,32.53598 -21.03336,32.53598c-11.61641,0 -21.03336,-14.56685 -21.03336,-32.53598c0,-17.96913 9.41696,-32.53599 21.03336,-32.53599c11.61641,0 21.03336,14.56686 21.03336,32.53599z" fill="#000000" stroke="none" stroke-width="0" stroke-linecap="butt"/><path d="M273.58464,188.85638c0,17.96913 -9.41697,32.53598 -21.03337,32.53598c-11.6164,0 -21.03336,-14.56685 -21.03336,-32.53598c0,-17.96913 9.41696,-32.53599 21.03336,-32.53599c11.6164,0 21.03337,14.56686 21.03337,32.53599z" fill="#000000" stroke="none" stroke-width="0" stroke-linecap="butt"/><path d="M267.23869,170.02188c0,12.52394 -19.71675,22.67659 -44.0386,22.67659c-24.32185,0 -44.0386,-10.15265 -44.0386,-22.67659c0,-12.52394 19.71675,-22.67659 44.0386,-22.67659c24.32185,0 44.0386,10.15265 44.0386,22.67659z" fill="#000000" stroke="none" stroke-width="0" stroke-linecap="butt"/><g fill="#ffffff" stroke="none" stroke-width="0" stroke-linecap="butt"><path d="M194.9831,158.0508c0,-1.99658 1.61853,-3.6151 3.61511,-3.6151c1.99658,0 3.61512,1.61853 3.61512,3.61511c0,1.99658 -1.61854,3.61512 -3.61512,3.61512c-1.99658,0 -3.6151,-1.61854 -3.6151,-3.61512z"/><path d="M203.62957,166.69727c0,-1.99658 1.61853,-3.6151 3.61511,-3.6151c1.99658,0 3.61511,1.61853 3.61511,3.61511c0,1.99658 -1.61854,3.61511 -3.61511,3.61511c-1.99658,0 -3.6151,-1.61853 -3.6151,-3.61511z"/><path d="M195.18643,174.02915c0,-1.99658 1.61853,-3.6151 3.61511,-3.6151c1.99658,0 3.61511,1.61853 3.61511,3.61511c0,1.99658 -1.61853,3.61512 -3.61511,3.61512c-1.99658,0 -3.6151,-1.61854 -3.6151,-3.61512z"/><path d="M187.07193,166.57195c0,-1.99658 1.61853,-3.6151 3.61511,-3.6151c1.99658,0 3.61512,1.61853 3.61512,3.61511c0,1.99658 -1.61854,3.61512 -3.61512,3.61512c-1.99658,0 -3.6151,-1.61854 -3.6151,-3.61512z"/></g><path d="M240.92634,184.96382c0,3.02465 -2.51036,5.47663 -5.60702,5.47663c-3.09667,0 -5.60703,-2.45198 -5.60703,-5.47663c0,-3.02465 2.51036,-5.47663 5.60703,-5.47663c3.09667,0 5.60702,2.45198 5.60702,5.47663z" fill="#ffffff" stroke="#000000" stroke-width="0.5" stroke-linecap="butt"/><path d="M219.06016,184.74338c0,3.02465 -2.51036,5.47663 -5.60703,5.47663c-3.09667,0 -5.60702,-2.45198 -5.60702,-5.47663c0,-3.02465 2.51035,-5.47663 5.60702,-5.47663c3.09667,0 5.60703,2.45198 5.60703,5.47663z" fill="#ffffff" stroke="#000000" stroke-width="0.5" stroke-linecap="butt"/><g><path d="M245.29448,156.50924c0,-1.99658 1.61853,-3.6151 3.6151,-3.6151c1.99657,0 3.61511,1.61853 3.61511,3.61511c0,1.99658 -1.61853,3.61511 -3.61511,3.61511c-1.99657,0 -3.6151,-1.61854 -3.6151,-3.61511z" fill="#ffffff" stroke="none" stroke-width="0" stroke-linecap="butt"/><path d="M253.94095,165.1557c0,-1.99658 1.61853,-3.6151 3.6151,-3.6151c1.99658,0 3.61512,1.61853 3.61512,3.61511c0,1.99658 -1.61854,3.61512 -3.61512,3.61512c-1.99657,0 -3.6151,-1.61854 -3.6151,-3.61512z" fill="#ffffff" stroke="none" stroke-width="0" stroke-linecap="butt"/><path d="M245.4978,172.48759c0,-1.99658 1.61853,-3.6151 3.6151,-3.6151c1.99657,0 3.61511,1.61853 3.61511,3.61511c0,1.99658 -1.61854,3.61511 -3.61511,3.61511c-1.99657,0 -3.6151,-1.61853 -3.6151,-3.61511z" fill="#ffffff" stroke="none" stroke-width="0" stroke-linecap="butt"/><path d="M237.38331,165.03038c0,-1.99658 1.61853,-3.6151 3.6151,-3.6151c1.99657,0 3.61511,1.61853 3.61511,3.61511c0,1.99658 -1.61853,3.61511 -3.61511,3.61511c-1.99658,0 -3.6151,-1.61854 -3.6151,-3.61511z" fill="#ffffff" stroke="none" stroke-width="0" stroke-linecap="butt"/><path d="M250.44524,157.58068l-3.1295,0.13039l1.95593,-2.60791z" fill="none" stroke="#000000" stroke-width="0.5" stroke-linecap="round"/><path d="M242.2303,163.31811v3.1295h-2.34713l-0.13039,-3.2599z" fill="none" stroke="#000000" stroke-width="0.5" stroke-linecap="round"/><path d="M259.31216,165.20884c0,0.90019 -0.70056,1.62996 -1.56475,1.62996c-0.86419,0 -1.56474,-0.72977 -1.56474,-1.62996c0,-0.90019 0.70055,-1.62994 1.56474,-1.62994c0.86419,0 1.56475,0.72975 1.56475,1.62994z" fill="#ffffff" stroke="#000000" stroke-width="0.5" stroke-linecap="butt"/><path d="M247.83732,171.79384l2.47752,2.34712" fill="none" stroke="#000000" stroke-width="0.5" stroke-linecap="round"/><path d="M249.27167,171.14186l-1.43435,3.2599" fill="none" stroke="#000000" stroke-width="0.5" stroke-linecap="round"/></g><path d="M209.50093,184.76823c0,-2.19648 1.78059,-3.97707 3.97707,-3.97707c2.19648,0 3.97708,1.78059 3.97708,3.97707c0,2.19648 -1.7806,3.97708 -3.97708,3.97708c-2.19648,0 -3.97707,-1.7806 -3.97707,-3.97708z" fill="#ffffff" stroke="#000000" stroke-width="0.5" stroke-linecap="butt"/><path d="M231.31738,184.93896c0,-2.19648 1.78059,-3.97707 3.97707,-3.97707c2.19648,0 3.97708,1.78059 3.97708,3.97707c0,2.19648 -1.7806,3.97708 -3.97708,3.97708c-2.19648,0 -3.97707,-1.7806 -3.97707,-3.97708z" fill="#ffffff" stroke="#000000" stroke-width="0.5" stroke-linecap="butt"/></g></g></g></svg>