<svg version="1.1" xmlns="http://www.w3.org/2000/svg" xmlns:xlink="http://www.w3.org/1999/xlink" width="100.66743" height="74.04707" viewBox="0,0,100.66743,74.04707"><g transform="translate(-172.91721,-147.34528)"><g data-paper-data="{&quot;isPaintingLayer&quot;:true}" fill-rule="nonzero" stroke-linejoin="miter" stroke-miterlimit="10" stroke-dasharray="" stroke-dashoffset="0" style="mix-blend-mode: normal"><g><path d="M214.98394,188.75472c0,17.96913 -9.41696,32.53598 -21.03336,32.53598c-11.61641,0 -21.03336,-14.56685 -21.03336,-32.53598c0,-17.96913 9.41696,-32.53599 21.03336,-32.53599c11.61641,0 21.03336,14.56686 21.03336,32.53599z" fill="#000000" stroke="none" stroke-width="0" stroke-linecap="butt"/><path d="M273.58465,188.85638c0,17.96913 -9.41697,32.53598 -21.03337,32.53598c-11.6164,0 -21.03336,-14.56685 -21.03336,-32.53598c0,-17.96913 9.41696,-32.53599 21.03336,-32.53599c11.6164,0 21.03337,14.56686 21.03337,32.53599z" fill="#000000" stroke="none" stroke-width="0" stroke-linecap="butt"/><path d="M267.2387,170.02188c0,12.52394 -19.71675,22.67659 -44.0386,22.67659c-24.32185,0 -44.0386,-10.15265 -44.0386,-22.67659c0,-12.52394 19.71675,-22.67659 44.0386,-22.67659c24.32185,0 44.0386,10.15265 44.0386,22.67659z" fill="#000000" stroke="none" stroke-width="0" stroke-linecap="butt"/><g fill="#ffffff" stroke="none" stroke-width="0" stroke-linecap="butt"><path d="M194.98311,158.0508c0,-1.99658 1.61853,-3.6151 3.61511,-3.6151c1.99658,0 3.61512,1.61853 3.61512,3.61511c0,1.99658 -1.61854,3.61512 -3.61512,3.61512c-1.99658,0 -3.6151,-1.61854 -3.6151,-3.61512z"/><path d="M203.62958,166.69726c0,-1.99658 1.61853,-3.6151 3.61511,-3.6151c1.99658,0 3.61511,1.61853 3.61511,3.61511c0,1.99658 -1.61854,3.61511 -3.61511,3.61511c-1.99658,0 -3.6151,-1.61853 -3.6151,-3.61511z"/><path d="M195.18644,174.02915c0,-1.99658 1.61853,-3.6151 3.61511,-3.6151c1.99658,0 3.61511,1.61853 3.61511,3.61511c0,1.99658 -1.61853,3.61512 -3.61511,3.61512c-1.99658,0 -3.6151,-1.61854 -3.6151,-3.61512z"/><path d="M187.07194,166.57195c0,-1.99658 1.61853,-3.6151 3.61511,-3.6151c1.99658,0 3.61512,1.61853 3.61512,3.61511c0,1.99658 -1.61854,3.61512 -3.61512,3.61512c-1.99658,0 -3.6151,-1.61854 -3.6151,-3.61512z"/></g><path d="M240.92635,184.96382c0,3.02465 -2.51036,5.47663 -5.60702,5.47663c-3.09667,0 -5.60703,-2.45198 -5.60703,-5.47663c0,-3.02465 2.51036,-5.47663 5.60703,-5.47663c3.09667,0 5.60702,2.45198 5.60702,5.47663z" fill="#ffffff" stroke="#000000" stroke-width="0.5" stroke-linecap="butt"/><path d="M219.06017,184.74338c0,3.02465 -2.51036,5.47663 -5.60703,5.47663c-3.09667,0 -5.60702,-2.45198 -5.60702,-5.47663c0,-3.02465 2.51035,-5.47663 5.60702,-5.47663c3.09667,0 5.60703,2.45198 5.60703,5.47663z" fill="#ffffff" stroke="#000000" stroke-width="0.5" stroke-linecap="butt"/><g><path d="M245.29449,156.50923c0,-1.99658 1.61853,-3.6151 3.6151,-3.6151c1.99657,0 3.61511,1.61853 3.61511,3.61511c0,1.99658 -1.61853,3.61511 -3.61511,3.61511c-1.99657,0 -3.6151,-1.61854 -3.6151,-3.61511z" fill="#ffffff" stroke="none" stroke-width="0" stroke-linecap="butt"/><path d="M253.94096,165.1557c0,-1.99658 1.61853,-3.6151 3.6151,-3.6151c1.99658,0 3.61512,1.61853 3.61512,3.61511c0,1.99658 -1.61854,3.61512 -3.61512,3.61512c-1.99657,0 -3.6151,-1.61854 -3.6151,-3.61512z" fill="#ffffff" stroke="none" stroke-width="0" stroke-linecap="butt"/><path d="M245.49781,172.48759c0,-1.99658 1.61853,-3.6151 3.6151,-3.6151c1.99657,0 3.61511,1.61853 3.61511,3.61511c0,1.99658 -1.61854,3.61511 -3.61511,3.61511c-1.99657,0 -3.6151,-1.61853 -3.6151,-3.61511z" fill="#ffffff" stroke="none" stroke-width="0" stroke-linecap="butt"/><path d="M237.38332,165.03038c0,-1.99658 1.61853,-3.6151 3.6151,-3.6151c1.99657,0 3.61511,1.61853 3.61511,3.61511c0,1.99658 -1.61853,3.61511 -3.61511,3.61511c-1.99658,0 -3.6151,-1.61854 -3.6151,-3.61511z" fill="#ffffff" stroke="none" stroke-width="0" stroke-linecap="butt"/><path d="M250.44525,157.58068l-3.1295,0.13039l1.95593,-2.60791z" fill="none" stroke="#000000" stroke-width="0.5" stroke-linecap="round"/><path d="M242.23031,163.31811v3.1295h-2.34713l-0.13039,-3.2599z" fill="none" stroke="#000000" stroke-width="0.5" stroke-linecap="round"/><path d="M259.31217,165.20884c0,0.90019 -0.70056,1.62996 -1.56475,1.62996c-0.86419,0 -1.56474,-0.72977 -1.56474,-1.62996c0,-0.90019 0.70055,-1.62994 1.56474,-1.62994c0.86419,0 1.56475,0.72975 1.56475,1.62994z" fill="#ffffff" stroke="#000000" stroke-width="0.5" stroke-linecap="butt"/><path d="M247.83733,171.79384l2.47752,2.34712" fill="none" stroke="#000000" stroke-width="0.5" stroke-linecap="round"/><path d="M249.27168,171.14186l-1.43435,3.2599" fill="none" stroke="#000000" stroke-width="0.5" stroke-linecap="round"/></g><path d="M209.50094,184.76823c0,-2.19648 1.78059,-3.97707 3.97707,-3.97707c2.19648,0 3.97708,1.78059 3.97708,3.97707c0,2.19648 -1.7806,3.97708 -3.97708,3.97708c-2.19648,0 -3.97707,-1.7806 -3.97707,-3.97708z" fill="#ffffff" stroke="#000000" stroke-width="0.5" stroke-linecap="butt"/><path d="M231.31739,184.93896c0,-2.19648 1.78059,-3.97707 3.97707,-3.97707c2.19648,0 3.97708,1.78059 3.97708,3.97707c0,2.19648 -1.7806,3.97708 -3.97708,3.97708c-2.19648,0 -3.97707,-1.7806 -3.97707,-3.97708z" fill="#ffffff" stroke="#000000" stroke-width="0.5" stroke-linecap="butt"/></g></g></g></svg>