<svg version="1.1" xmlns="http://www.w3.org/2000/svg" xmlns:xlink="http://www.w3.org/1999/xlink" width="130.33784" height="143.43337" viewBox="0,0,130.33784,143.43337"><g transform="translate(-172.34804,-80.16176)"><g data-paper-data="{&quot;isPaintingLayer&quot;:true}" fill-rule="nonzero" stroke-linejoin="miter" stroke-miterlimit="10" stroke-dasharray="" stroke-dashoffset="0" style="mix-blend-mode: normal"><path d="M173.97194,123.98406v-42.88506h128.08843l-0.56676,43.26291c0,0 -29.89399,0.89298 -51.0141,-0.87984c-7.10052,-0.59602 -9.69042,19.74144 -14.53653,17.09508c-5.68253,-3.10311 -8.64211,-15.77659 -13.26213,-15.77989c-16.22108,-0.01158 -48.7089,-0.8132 -48.7089,-0.8132z" fill="#ffffff" stroke="none" stroke-width="0" stroke-linecap="butt"/><g><path d="M223.37596,124.41176h-49.77792v-43h127.83784v43h-53.66338" fill="none" stroke="#565656" stroke-width="2.5" stroke-linecap="butt"/><path d="M248.09804,124.57843l-11.66667,18l-13.66666,-18.33333" fill="none" stroke="#565656" stroke-width="2.5" stroke-linecap="round"/><text transform="translate(190.85995,108.39911) scale(0.51958,0.51958)" font-size="40" xml:space="preserve" fill="#000000" fill-rule="nonzero" stroke="none" stroke-width="5" stroke-linecap="butt" stroke-linejoin="miter" stroke-miterlimit="10" stroke-dasharray="" stroke-dashoffset="0" font-family="Sans Serif" font-weight="normal" text-anchor="start" style="mix-blend-mode: normal"><tspan x="0" dy="0">Translate</tspan></text></g><path d="M267.4678,191.56438c0,16.72359 -13.04877,30.28075 -29.14522,30.28075c-16.09645,0 -29.14522,-13.55716 -29.14522,-30.28075c0,-16.72359 13.04876,-30.28075 29.14522,-30.28075c16.09645,0 29.14522,13.55716 29.14522,30.28075z" fill="#1a00ff" stroke="#ffffff" stroke-width="3.5" stroke-linecap="butt"/><path d="M228.22899,191.56438c0,-16.68692 4.51905,-30.21435 10.09358,-30.21435c5.57453,0 10.09358,13.52742 10.09358,30.21435c0,16.68692 -4.51905,30.21435 -10.09358,30.21435c-5.57453,0 -10.09358,-13.52742 -10.09358,-30.21435z" fill="none" stroke="#ffffff" stroke-width="3.5" stroke-linecap="butt"/><path d="M215.74483,191.56438c0,-16.68692 10.10841,-30.21435 22.57775,-30.21435c12.46935,0 22.57775,13.52742 22.57775,30.21435c0,16.68692 -10.10841,30.21435 -22.57775,30.21435c-12.46935,0 -22.57775,-13.52742 -22.57775,-30.21435z" fill="none" stroke="#ffffff" stroke-width="3.5" stroke-linecap="butt"/><path d="M210.89725,181.73642l54.85065,-0.13282" fill="none" stroke="#ffffff" stroke-width="3.5" stroke-linecap="round"/><path d="M211.82692,203.65012h53.12412" fill="none" stroke="#ffffff" stroke-width="3.5" stroke-linecap="round"/><g><text transform="translate(251.09632,160.04496) rotate(18.1817) scale(0.71187,0.71187)" font-size="40" xml:space="preserve" fill="#6600ff" fill-rule="nonzero" stroke="none" stroke-width="1" stroke-linecap="butt" stroke-linejoin="miter" stroke-miterlimit="10" stroke-dasharray="" stroke-dashoffset="0" font-family="&quot;ヒラギノ角ゴ Pro W3&quot;, &quot;Hiragino Kaku Gothic Pro&quot;, Osaka, &quot;メイリオ&quot;, Meiryo, &quot;ＭＳ Ｐゴシック&quot;, &quot;MS PGothic&quot;" font-weight="normal" text-anchor="start" style="mix-blend-mode: normal"><tspan x="0" dy="0">了</tspan></text><path d="M243.07796,152.2279c-0.35005,-1.90919 -0.25792,-3.80583 0.3367,-5.61633c2.86244,-8.71555 16.2856,-12.13446 29.98147,-7.63634c13.69587,4.49811 22.47811,15.20992 19.61567,23.92547c-2.86244,8.71555 -16.28561,12.13446 -29.98148,7.63634c-3.14272,-1.03215 -6.02671,-2.3915 -8.57066,-3.97881l-2.10798,-0.25601l-11.78988,5.00554l2.20523,-17.22374l0.31436,-2.45527l-0.11726,0.91582" fill="none" stroke="#000000" stroke-width="1.5" stroke-linecap="round"/></g><g><text transform="translate(198.09237,166.37846) rotate(-17.0747) scale(0.70043,0.70043)" font-size="40" xml:space="preserve" fill="#0008ff" fill-rule="nonzero" stroke="none" stroke-width="1" stroke-linecap="butt" stroke-linejoin="miter" stroke-miterlimit="10" stroke-dasharray="" stroke-dashoffset="0" font-family="Curly" font-weight="normal" text-anchor="start" style="mix-blend-mode: normal"><tspan x="0" dy="0">A</tspan></text><path d="M231.43576,152.05646l-0.09795,-0.90317l0.2626,2.42136l1.84208,16.98585l-11.50323,-5.14828l-2.07859,0.21179c-2.53279,1.51318 -5.39577,2.79563 -8.50705,3.7513c-13.55886,4.16477 -26.699,0.5463 -29.34931,-8.08206c-2.65031,-8.62837 6.19284,-18.99926 19.7517,-23.16403c13.55886,-4.16477 26.69901,-0.5463 29.34931,8.08206c0.55056,1.79238 0.60514,3.65998 0.2245,5.5315" data-paper-data="{&quot;index&quot;:null}" fill="none" stroke="#000000" stroke-width="1.5" stroke-linecap="round"/></g></g></g></svg>