<svg version="1.1" xmlns="http://www.w3.org/2000/svg" xmlns:xlink="http://www.w3.org/1999/xlink" width="113.51773" height="90.09009" viewBox="0,0,113.51773,90.09009"><g transform="translate(-180.78499,-133.50504)"><g data-paper-data="{&quot;isPaintingLayer&quot;:true}" fill-rule="nonzero" stroke-linejoin="miter" stroke-miterlimit="10" stroke-dasharray="" stroke-dashoffset="0" style="mix-blend-mode: normal"><path d="M267.4678,191.56438c0,16.72359 -13.04877,30.28075 -29.14522,30.28075c-16.09646,0 -29.14522,-13.55715 -29.14522,-30.28075c0,-16.72359 13.04876,-30.28075 29.14522,-30.28075c16.09646,0 29.14522,13.55715 29.14522,30.28075z" fill="#1a00ff" stroke="#ffffff" stroke-width="3.5" stroke-linecap="butt"/><path d="M228.22899,191.56438c0,-16.68692 4.51905,-30.21434 10.09358,-30.21434c5.57453,0 10.09358,13.52742 10.09358,30.21434c0,16.68692 -4.51905,30.21434 -10.09358,30.21434c-5.57453,0 -10.09358,-13.52742 -10.09358,-30.21434z" fill="none" stroke="#ffffff" stroke-width="3.5" stroke-linecap="butt"/><path d="M215.74483,191.56438c0,-16.68692 10.1084,-30.21434 22.57775,-30.21434c12.46935,0 22.57775,13.52742 22.57775,30.21434c0,16.68692 -10.10841,30.21434 -22.57775,30.21434c-12.46935,0 -22.57775,-13.52742 -22.57775,-30.21434z" fill="none" stroke="#ffffff" stroke-width="3.5" stroke-linecap="butt"/><path d="M210.89725,181.73642l54.85065,-0.13282" fill="none" stroke="#ffffff" stroke-width="3.5" stroke-linecap="round"/><path d="M211.82692,203.65012h53.12412" fill="none" stroke="#ffffff" stroke-width="3.5" stroke-linecap="round"/><g><text transform="translate(251.09632,160.04497) rotate(18.18158) scale(0.71187,0.71187)" font-size="40" xml:space="preserve" fill="#6600ff" fill-rule="nonzero" stroke="none" stroke-width="1" stroke-linecap="butt" stroke-linejoin="miter" stroke-miterlimit="10" stroke-dasharray="" stroke-dashoffset="0" font-family="&quot;ヒラギノ角ゴ Pro W3&quot;, &quot;Hiragino Kaku Gothic Pro&quot;, Osaka, &quot;メイリオ&quot;, Meiryo, &quot;ＭＳ Ｐゴシック&quot;, &quot;MS PGothic&quot;" font-weight="normal" text-anchor="start" style="mix-blend-mode: normal"><tspan x="0" dy="0">了</tspan></text><path d="M242.96413,152.54457l0.11725,-0.91582l-0.31436,2.45527l-2.20523,17.22374l11.78988,-5.00554l2.10797,0.25601c2.54395,1.58731 5.42795,2.94665 8.57066,3.97881c13.69587,4.49812 27.11904,1.07921 29.98148,-7.63634c2.86244,-8.71555 -5.9198,-19.42735 -19.61567,-23.92547c-13.69587,-4.49812 -27.11903,-1.07921 -29.98147,7.63634c-0.59462,1.8105 -0.68675,3.70714 -0.33671,5.61633" fill="none" stroke="#000000" stroke-width="1.5" stroke-linecap="round"/></g><g><text transform="translate(198.09236,166.37846) rotate(-17.07483) scale(0.70043,0.70043)" font-size="40" xml:space="preserve" fill="#0008ff" fill-rule="nonzero" stroke="none" stroke-width="1" stroke-linecap="butt" stroke-linejoin="miter" stroke-miterlimit="10" stroke-dasharray="" stroke-dashoffset="0" font-family="Curly" font-weight="normal" text-anchor="start" style="mix-blend-mode: normal"><tspan x="0" dy="0">A</tspan></text><path d="M231.43576,152.05646l-0.09795,-0.90317l0.2626,2.42136l1.84208,16.98585l-11.50323,-5.14828l-2.0786,0.21179c-2.53279,1.51318 -5.39577,2.79563 -8.50705,3.7513c-13.55887,4.16477 -26.699,0.5463 -29.34931,-8.08207c-2.65031,-8.62837 6.19283,-18.99925 19.7517,-23.16402c13.55887,-4.16477 26.69901,-0.54631 29.34931,8.08206c0.55055,1.79238 0.60514,3.65997 0.2245,5.53149" data-paper-data="{&quot;index&quot;:null}" fill="none" stroke="#000000" stroke-width="1.5" stroke-linecap="round"/></g></g></g></svg>