<svg version="1.1" xmlns="http://www.w3.org/2000/svg" xmlns:xlink="http://www.w3.org/1999/xlink" width="116.24051" height="78.24124" viewBox="0,0,116.24051,78.24124"><g transform="translate(-215.5,-160.12231)"><g data-paper-data="{&quot;isPaintingLayer&quot;:true}" fill-rule="nonzero" stroke-linejoin="miter" stroke-miterlimit="10" stroke-dasharray="" stroke-dashoffset="0" style="mix-blend-mode: normal"><path d="M216.35714,237.14286v-25.57143c0,0 6.6928,-0.14286 14.14286,-0.14286c2.64373,0 5.32991,-8.57143 8.14286,-8.57143c2.69268,0 5.51347,9 8,9c21.04765,0 84.14286,0.85714 84.14286,0.85714l-0.28571,24.71429z" fill="#ffffff" stroke="none" stroke-width="none" stroke-linecap="butt"/><path d="M249.93915,184.70449c0,8.37993 -6.73667,15.17321 -15.04677,15.17321c-8.3101,0 -15.04677,-6.79328 -15.04677,-15.17321c0,-8.37993 6.73667,-15.17321 15.04677,-15.17321c8.3101,0 15.04677,6.79328 15.04677,15.17321z" fill="#ffffff" stroke="none" stroke-width="0" stroke-linecap="butt"/><path d="M257.81261,184.83093c0,6.07545 -5.2724,11.00058 -11.77622,11.00058c-6.50383,0 -11.77622,-4.92513 -11.77622,-11.00058c0,-6.07545 5.2724,-11.00058 11.77622,-11.00058c6.50383,0 11.77622,4.92513 11.77622,11.00058z" fill="#9c9c9c" stroke="none" stroke-width="0" stroke-linecap="butt"/><path d="M236.17986,166.46964c-1.26135,1.41484 -3.08674,1.84603 -4.07713,0.96309c-0.99039,-0.88294 -0.77074,-2.74566 0.49061,-4.16051c1.26135,-1.41484 3.08674,-1.84603 4.07713,-0.96309c0.99039,0.88294 0.77074,2.74566 -0.49061,4.16051z" fill="#ffffff" stroke="none" stroke-width="0" stroke-linecap="butt"/><path d="M253.35312,183.94583c-0.06983,0 -0.12644,-0.05661 -0.12644,-0.12644c0,-0.06983 0.05661,-0.12644 0.12644,-0.12644c0.06983,0 0.12644,0.05661 0.12644,0.12644c0,0.06983 -0.05661,0.12644 -0.12644,0.12644z" fill="#ffffff" stroke="none" stroke-width="0" stroke-linecap="butt"/><text transform="translate(223.30931,188.17616) scale(0.35826,0.35826)" font-size="40" xml:space="preserve" fill="#ffc500" fill-rule="nonzero" stroke="none" stroke-width="1" stroke-linecap="butt" stroke-linejoin="miter" stroke-miterlimit="10" stroke-dasharray="" stroke-dashoffset="0" font-family="Marker" font-weight="normal" text-anchor="start" style="mix-blend-mode: normal"><tspan x="0" dy="0">S</tspan></text><path d="M239.80139,170.29883c0,-5.62034 4.55618,-10.17652 10.17652,-10.17652c5.62034,0 10.17652,4.55618 10.17652,10.17652c0,5.62034 -4.55618,10.17652 -10.17652,10.17652c-5.62034,0 -10.17652,-4.55618 -10.17652,-10.17652z" fill="#ff0000" stroke="none" stroke-width="0" stroke-linecap="butt"/><path d="M238.64954,201.5l-7.77127,10.05694h-14.62827v26.05661h107.8835h6.857v-25.59948h-84.5697z" fill="none" stroke="#000000" stroke-width="1.5" stroke-linecap="round"/><text transform="translate(218.07853,230.29941) scale(0.45713,0.45713)" font-size="40" xml:space="preserve" fill="#000000" fill-rule="nonzero" stroke="none" stroke-width="1" stroke-linecap="butt" stroke-linejoin="miter" stroke-miterlimit="10" stroke-dasharray="" stroke-dashoffset="0" font-family="Sans Serif" font-weight="normal" text-anchor="start" style="mix-blend-mode: normal"><tspan x="0" dy="0">Click for info</tspan></text></g></g></svg>