<svg version="1.1" xmlns="http://www.w3.org/2000/svg" xmlns:xlink="http://www.w3.org/1999/xlink" width="40.30881" height="39.75539" viewBox="0,0,40.30881,39.75539"><g transform="translate(-219.84559,-160.1223)"><g data-paper-data="{&quot;isPaintingLayer&quot;:true}" fill-rule="nonzero" stroke="none" stroke-linecap="butt" stroke-linejoin="miter" stroke-miterlimit="10" stroke-dasharray="" stroke-dashoffset="0" style="mix-blend-mode: normal"><path d="M249.93914,184.70448c0,8.37993 -6.73667,15.17321 -15.04677,15.17321c-8.3101,0 -15.04677,-6.79328 -15.04677,-15.17321c0,-8.37993 6.73667,-15.17321 15.04677,-15.17321c8.3101,0 15.04677,6.79328 15.04677,15.17321z" fill="#ffffff" stroke-width="0"/><path d="M257.8126,184.83092c0,6.07545 -5.2724,11.00058 -11.77622,11.00058c-6.50383,0 -11.77622,-4.92513 -11.77622,-11.00058c0,-6.07545 5.2724,-11.00058 11.77622,-11.00058c6.50383,0 11.77622,4.92513 11.77622,11.00058z" fill="#9c9c9c" stroke-width="0"/><path d="M236.17985,166.46963c-1.26135,1.41484 -3.08674,1.84603 -4.07713,0.96309c-0.99039,-0.88294 -0.77074,-2.74566 0.49061,-4.16051c1.26135,-1.41484 3.08674,-1.84603 4.07713,-0.96309c0.99039,0.88294 0.77074,2.74566 -0.49061,4.16051z" fill="#ffffff" stroke-width="0"/><path d="M253.35311,183.94582c-0.06983,0 -0.12644,-0.05661 -0.12644,-0.12644c0,-0.06983 0.05661,-0.12644 0.12644,-0.12644c0.06983,0 0.12644,0.05661 0.12644,0.12644c0,0.06983 -0.05661,0.12644 -0.12644,0.12644z" fill="#ffffff" stroke-width="0"/><text transform="translate(223.3093,188.17615) scale(0.35826,0.35826)" font-size="40" xml:space="preserve" fill="#ffc500" fill-rule="nonzero" stroke="none" stroke-width="1" stroke-linecap="butt" stroke-linejoin="miter" stroke-miterlimit="10" stroke-dasharray="" stroke-dashoffset="0" font-family="Marker" font-weight="normal" text-anchor="start" style="mix-blend-mode: normal"><tspan x="0" dy="0">S</tspan></text><path d="M239.80138,170.29882c0,-5.62034 4.55618,-10.17652 10.17652,-10.17652c5.62034,0 10.17652,4.55618 10.17652,10.17652c0,5.62034 -4.55618,10.17652 -10.17652,10.17652c-5.62034,0 -10.17652,-4.55618 -10.17652,-10.17652z" fill="#ff0000" stroke-width="0"/></g></g></svg>