<svg version="1.1" xmlns="http://www.w3.org/2000/svg" xmlns:xlink="http://www.w3.org/1999/xlink" width="48" height="39.97509" viewBox="0,0,48,39.97509"><g transform="translate(-216.1,-146.40909)"><g data-paper-data="{&quot;isPaintingLayer&quot;:true}" fill-rule="nonzero" stroke="none" stroke-width="0" stroke-linecap="butt" stroke-linejoin="miter" stroke-miterlimit="10" stroke-dasharray="" stroke-dashoffset="0" style="mix-blend-mode: normal"><path d="M222,180c0,-9.94112 8.05888,-18 18,-18c9.94113,0 18,8.05888 18,18c0,0.56143 -0.0257,1.11686 -0.076,1.66518c-0.33678,0.22588 -0.66959,0.50339 -0.98939,0.8186c-0.8858,-0.02377 -1.98357,0.04948 -2.90772,0.13958c-1.39748,-0.40359 -3.30174,-0.0789 -4.52714,-0.0789l-0.09492,0.02373c-7.41959,0 -14.97284,-0.94731 -22.35938,-0.45455c-0.38999,0.02602 -0.72383,0.11059 -1.0033,0.24073c-1.05834,-0.08871 -2.06681,-0.09509 -2.99488,0.08497c-0.27688,-0.13791 -0.58618,-0.22044 -0.91342,-0.23308c-0.08837,-0.72304 -0.13386,-1.45933 -0.13386,-2.20625z" fill="#549a10"/><path d="M216.1,186.11175v-3.11175h4.22877" fill="none"/><path d="M219.1,185.81998v-1.61998h0.70969" fill="none"/><path d="M263.34299,184.2h0.75701v2.18418" fill="none"/><path d="" fill="#ffffff"/><path d="M257.02084,182.4c-0.02884,0.02762 -0.05759,0.05554 -0.08623,0.08378c-0.8858,-0.02377 -1.98357,0.04948 -2.90772,0.13958c-1.39748,-0.40359 -3.30174,-0.0789 -4.52714,-0.0789l-0.09492,0.02373c-2.06148,0 -4.13327,-0.07313 -6.20895,-0.16818z" fill="#ffffff"/><path d="M219.9,182.4h1.22684c-0.58157,0.26043 -1.0324,0.76053 -1.22684,1.37466z" fill="#ffffff"/><path d="M219.9,185.79223l0,-0.6578c0.07481,0.23629 0.18758,0.4557 0.33114,0.65107c-0.11056,0.00181 -0.22095,0.00405 -0.33114,0.00673z" fill="#ffffff"/><path d="M223.04727,182.43933c-0.02742,-0.01366 -0.05516,-0.02677 -0.0832,-0.03933l0.30525,0c-0.07451,0.01197 -0.14853,0.02507 -0.22205,0.03933z" fill="#ffffff"/><path d="M230.31818,156.09091c0,-5.34712 4.3347,-9.68182 9.68182,-9.68182c5.34712,0 9.68182,4.3347 9.68182,9.68182c0,5.34712 -4.3347,9.68182 -9.68182,9.68182c-5.34712,0 -9.68182,-4.3347 -9.68182,-9.68182z" fill="#ff0000"/></g></g></svg>